<svg xmlns="http://www.w3.org/2000/svg" viewBox="0 0 358.99 214.45"><defs><style>.cls-1{fill:#fff;}</style></defs><title>glogo</title><g id="Слой_2" data-name="Слой 2"><g id="Layer_1" data-name="Layer 1"><path class="cls-1" d="M76,207.11v7.31h-1v-5l-2.27,5-2.2-5v5h-1v-7.31h1.2l2,4.75,2.08-4.75Z"/><path class="cls-1" d="M90.75,213.29H87.67l-.51,1.14H86l3.16-7.32,3.17,7.32H91.23Zm-.44-1L89.2,209.8l-1.1,2.54Z"/><path class="cls-1" d="M107.74,210.34v4.08h-1v-.37a5.68,5.68,0,0,1-.75.26,3.15,3.15,0,0,1-.82.11,3.61,3.61,0,0,1-1.45-.29,3.73,3.73,0,0,1-2-2,3.59,3.59,0,0,1-.29-1.45,3.45,3.45,0,0,1,.29-1.42,3.6,3.6,0,0,1,2-1.91,3.76,3.76,0,0,1,1.45-.28,4,4,0,0,1,1.09.15,2.38,2.38,0,0,1,.94.51l-.37.92a2.53,2.53,0,0,0-1.66-.56,2.57,2.57,0,0,0-1,.21,2.62,2.62,0,0,0-.83.57,2.74,2.74,0,0,0-.55.83,2.52,2.52,0,0,0-.2,1,2.79,2.79,0,0,0,.2,1,2.71,2.71,0,0,0,.55.86,2.65,2.65,0,0,0,.83.58,2.53,2.53,0,0,0,1,.21,1.89,1.89,0,0,0,.42-.05,2.73,2.73,0,0,0,.43-.14,2.86,2.86,0,0,0,.4-.2,1.75,1.75,0,0,0,.32-.25v-1.49h-1.2v-.93Z"/><path class="cls-1" d="M118.85,214.44h-1v-7.33h1Z"/><path class="cls-1" d="M134.84,213.76a3.69,3.69,0,0,1-1,.49,3.67,3.67,0,0,1-2.55-.11,3.74,3.74,0,0,1-1.16-.79,3.63,3.63,0,0,1-.79-1.16,3.64,3.64,0,0,1,0-2.85,3.66,3.66,0,0,1,.79-1.16,3.73,3.73,0,0,1,1.16-.78,3.52,3.52,0,0,1,1.42-.29,3.61,3.61,0,0,1,2.1.66l-.46,1a2.5,2.5,0,0,0-1.64-.56,2.55,2.55,0,0,0-1,.2,2.63,2.63,0,0,0-.83.55,2.62,2.62,0,0,0-.56,2.87,2.65,2.65,0,0,0,.56.83,2.6,2.6,0,0,0,.83.56,2.55,2.55,0,0,0,1,.2,2.59,2.59,0,0,0,.9-.16,2.74,2.74,0,0,0,.77-.44Z"/><path class="cls-1" d="M167.65,207.13v4.94a2.47,2.47,0,0,1-.24.91,2.61,2.61,0,0,1-.55.75,2.77,2.77,0,0,1-.8.52,2.48,2.48,0,0,1-1,.19H165a2.61,2.61,0,0,1-1.15-.25,2.17,2.17,0,0,1-.87-.75l.54-.83a3.24,3.24,0,0,0,.63.59,1.44,1.44,0,0,0,.85.24,1.79,1.79,0,0,0,.64-.12,1.58,1.58,0,0,0,.52-.32,1.46,1.46,0,0,0,.35-.49,1.49,1.49,0,0,0,.13-.63v-4.75Z"/><path class="cls-1" d="M182.1,213.47v1h-4.36v-7.32H182v1h-3.31v2.25h2.63v1h-2.63v2.14Z"/><path class="cls-1" d="M199.06,214.45l-1.9-4.76-2,4.76-3-7.33h1l2,4.67,2-4.67,1.9,4.67,2-4.67h1.14Z"/><path class="cls-1" d="M217,213.47v1H212.6v-7.32h4.31v1H213.6v2.25h2.63v1H213.6v2.14Z"/><path class="cls-1" d="M228,213.45h3.07v1H227v-7.32h1Z"/><path class="cls-1" d="M242.47,213.45h3.07v1h-4.07v-7.32h1Z"/><path class="cls-1" d="M260,213.47v1h-4.36v-7.32h4.31v1h-3.31v2.25h2.63v1h-2.63v2.14Z"/><path class="cls-1" d="M274.78,209.71a2.79,2.79,0,0,1-.28,1.28,2.37,2.37,0,0,1-.86.93l1.14,2.51h-1.06l-1.15-2.13H271v2.13h-1v-7.32h2.22a2.31,2.31,0,0,1,1,.2,2.54,2.54,0,0,1,.8.56,2.65,2.65,0,0,1,.74,1.84ZM271,211.35h1.14a1.53,1.53,0,0,0,.62-.13,1.77,1.77,0,0,0,.53-.36,1.69,1.69,0,0,0,.36-.52,1.56,1.56,0,0,0,0-1.25,1.74,1.74,0,0,0-.89-.89,1.58,1.58,0,0,0-.62-.13H271Z"/><path class="cls-1" d="M288.61,214.44h-1.06V211.3l-2.38-4.2h1.15l1.7,3.15,1.82-3.15H291l-2.38,4.2Z"/><path class="cls-1" d="M14.86,163.62v9.61H12.45v-.86a13.45,13.45,0,0,1-1.78.6,7.31,7.31,0,0,1-1.92.26,8.46,8.46,0,0,1-3.41-.69,8.79,8.79,0,0,1-4.65-4.64A8.52,8.52,0,0,1,0,164.48a8.21,8.21,0,0,1,.69-3.35,8.61,8.61,0,0,1,1.87-2.7,8.71,8.71,0,0,1,2.77-1.8A8.9,8.9,0,0,1,8.75,156a9.49,9.49,0,0,1,2.56.34,5.64,5.64,0,0,1,2.22,1.21l-.86,2.17a6,6,0,0,0-3.92-1.33,6,6,0,0,0-2.43.49,6.16,6.16,0,0,0-1.95,1.34,6.35,6.35,0,0,0-1.3,2,5.92,5.92,0,0,0-.47,2.32,6.54,6.54,0,0,0,.47,2.47,6.37,6.37,0,0,0,1.3,2,6.18,6.18,0,0,0,1.95,1.37,5.85,5.85,0,0,0,2.43.51,4.27,4.27,0,0,0,1-.12,6.2,6.2,0,0,0,1-.33,7.41,7.41,0,0,0,.94-.48,3.88,3.88,0,0,0,.77-.59v-3.5H7.3v-2.19Z"/><path class="cls-1" d="M53.2,156a8.71,8.71,0,0,1,6.23,2.52,8.55,8.55,0,0,1,1.85,2.73,8.73,8.73,0,0,1,0,6.69,8.61,8.61,0,0,1-4.61,4.62,8.75,8.75,0,0,1-3.46.68,8.21,8.21,0,0,1-3.32-.68,8.51,8.51,0,0,1-2.7-1.86,8.84,8.84,0,0,1-1.82-2.76,8.73,8.73,0,0,1,0-6.69,8.76,8.76,0,0,1,1.82-2.73,8.58,8.58,0,0,1,2.7-1.85A8.21,8.21,0,0,1,53.2,156Zm0,14.88A6.3,6.3,0,0,0,57.69,169,6.12,6.12,0,0,0,59,167a6.34,6.34,0,0,0,.48-2.45,6.19,6.19,0,0,0-.48-2.41,6,6,0,0,0-1.32-2,6.39,6.39,0,0,0-2-1.33,6.29,6.29,0,0,0-2.49-.49,5.73,5.73,0,0,0-2.36.49,6.22,6.22,0,0,0-3.69,5.72A6.38,6.38,0,0,0,48.92,169a6.1,6.1,0,0,0,1.92,1.34A5.68,5.68,0,0,0,53.2,170.86Z"/><path class="cls-1" d="M104.86,164.63a8.49,8.49,0,0,1-.66,3.34,8.67,8.67,0,0,1-1.82,2.73,8.84,8.84,0,0,1-2.7,1.86,8,8,0,0,1-3.32.69H91.75V156l4.61,0a8.29,8.29,0,0,1,3.32.72,8.76,8.76,0,0,1,4.52,4.58A8.28,8.28,0,0,1,104.86,164.63Zm-8.62,6.16a6,6,0,0,0,2.4-.48,6.17,6.17,0,0,0,3.28-8.06,6.21,6.21,0,0,0-1.32-2,6.39,6.39,0,0,0-2-1.33,5.91,5.91,0,0,0-2.4-.49H94.16v12.32Z"/><path class="cls-1" d="M140.35,173.17h-.67a6.14,6.14,0,0,1-1.55-.15,6.43,6.43,0,0,1-1.44-.5,6.25,6.25,0,0,1-1.23-.79,5.36,5.36,0,0,1-.95-1v0l1-1.67a4.5,4.5,0,0,0,1.65,1.42,6.27,6.27,0,0,0,2.56.68,1,1,0,0,0,.38,0l.26,0a3.31,3.31,0,0,0,1.21-.22,3,3,0,0,0,1-.62,2.91,2.91,0,0,0,.67-.94,2.84,2.84,0,0,0,.25-1.18,2.09,2.09,0,0,0-.89-1.87,5.44,5.44,0,0,0-2.22-.79,3.22,3.22,0,0,0-.54-.1l-.61-.07a8.73,8.73,0,0,1-1.75-.53,5.64,5.64,0,0,1-1.48-.91,4.23,4.23,0,0,1-1-1.32,3.81,3.81,0,0,1-.38-1.73,4.68,4.68,0,0,1,.37-1.83,4.8,4.8,0,0,1,1-1.52,4.92,4.92,0,0,1,1.47-1,4.34,4.34,0,0,1,1.8-.38h.37a6.39,6.39,0,0,1,2.51.52A4.75,4.75,0,0,1,144,158l-1.11,2a6.35,6.35,0,0,0-1.48-1.23,4,4,0,0,0-1.85-.49h-.37a2.08,2.08,0,0,0-.93.21,2.72,2.72,0,0,0-.77.55,2.53,2.53,0,0,0-.7,1.78,1.88,1.88,0,0,0,.64,1.53,3.3,3.3,0,0,0,1.75.69l.64.08.57,0a8.25,8.25,0,0,1,2,.53,5.48,5.48,0,0,1,1.63,1,4.56,4.56,0,0,1,1.08,1.49,4.65,4.65,0,0,1,.4,1.95,4.88,4.88,0,0,1-.41,2,4.93,4.93,0,0,1-1.12,1.6,5.32,5.32,0,0,1-3.67,1.44Z"/><path class="cls-1" d="M178.07,165.93v7.32h-2.36V156h10.15v2.36h-7.79v7.59Z"/><path class="cls-1" d="M273.62,162.11a6.59,6.59,0,0,1-.67,3,5.48,5.48,0,0,1-2,2.18l2.69,5.91h-2.49l-2.71-5H264.8v5h-2.29V156h5.23a5.56,5.56,0,0,1,2.28.48,6,6,0,0,1,1.87,1.31,6.21,6.21,0,0,1,1.74,4.35ZM264.8,166h2.68a3.61,3.61,0,0,0,1.47-.31,4.08,4.08,0,0,0,1.24-.84,3.9,3.9,0,0,0,.85-1.22,3.68,3.68,0,0,0,0-2.94,4,4,0,0,0-.85-1.25,4.06,4.06,0,0,0-1.24-.85,3.6,3.6,0,0,0-1.47-.31H264.8Z"/><path class="cls-1" d="M351.08,165.9V171H359v2.29H348.71V156h10.15v2.32h-7.79v7.59Z"/><path class="cls-1" d="M222.93,156a8.71,8.71,0,0,1,6.23,2.52,8.55,8.55,0,0,1,1.85,2.73,8.73,8.73,0,0,1,0,6.69,8.61,8.61,0,0,1-4.61,4.62,8.75,8.75,0,0,1-3.46.68,8.21,8.21,0,0,1-3.32-.68,8.51,8.51,0,0,1-2.7-1.86,8.84,8.84,0,0,1-1.82-2.76,8.73,8.73,0,0,1,0-6.69,8.76,8.76,0,0,1,1.82-2.73,8.58,8.58,0,0,1,2.7-1.85A8.21,8.21,0,0,1,222.93,156Zm0,14.88a6.3,6.3,0,0,0,4.49-1.83,6.12,6.12,0,0,0,1.32-2,6.33,6.33,0,0,0,.48-2.45,6.19,6.19,0,0,0-.48-2.41,6,6,0,0,0-1.32-2,6.39,6.39,0,0,0-2-1.33,6.29,6.29,0,0,0-2.49-.49,5.73,5.73,0,0,0-2.36.49,6.22,6.22,0,0,0-3.69,5.72,6.38,6.38,0,0,0,1.77,4.45,6.1,6.1,0,0,0,1.92,1.34A5.68,5.68,0,0,0,222.93,170.86Z"/><path class="cls-1" d="M318.52,163.62v9.61h-2.41v-.86a13.45,13.45,0,0,1-1.78.6,7.31,7.31,0,0,1-1.92.26,8.46,8.46,0,0,1-3.41-.69,8.79,8.79,0,0,1-4.65-4.64,8.52,8.52,0,0,1-.69-3.41,8.21,8.21,0,0,1,.69-3.35,8.61,8.61,0,0,1,1.87-2.7,8.71,8.71,0,0,1,2.77-1.8,8.9,8.9,0,0,1,3.41-.65,9.49,9.49,0,0,1,2.56.34,5.64,5.64,0,0,1,2.22,1.21l-.86,2.17a6.35,6.35,0,0,0-6.35-.84A6.16,6.16,0,0,0,308,160.2a6.35,6.35,0,0,0-1.3,2,5.92,5.92,0,0,0-.47,2.32,6.54,6.54,0,0,0,.47,2.47,6.37,6.37,0,0,0,1.3,2,6.18,6.18,0,0,0,1.95,1.37,5.85,5.85,0,0,0,2.43.51,4.27,4.27,0,0,0,1-.12,6.2,6.2,0,0,0,1-.33,7.4,7.4,0,0,0,.94-.48,3.89,3.89,0,0,0,.77-.59v-3.5H311v-2.19Z"/><polyline class="cls-1" points="351.07 163.62 357.26 163.62 357.26 165.91 351.07 165.91"/><polyline class="cls-1" points="178.07 163.74 184.33 163.74 184.33 165.93 178.07 165.93"/><path class="cls-1" d="M180,116.37a56.45,56.45,0,1,1,56.45-56.45A56.51,56.51,0,0,1,180,116.37ZM180,4.52a55.4,55.4,0,1,0,55.4,55.4A55.46,55.46,0,0,0,180,4.52Z"/><path class="cls-1" d="M180,119.84a59.92,59.92,0,1,1,59.92-59.92A60,60,0,0,1,180,119.84ZM180,1a58.87,58.87,0,1,0,58.87,58.87A58.94,58.94,0,0,0,180,1Z"/><path class="cls-1" d="M180,107.41a.52.52,0,0,1-.47-.29L144,33.95a.52.52,0,0,1,.47-.75h71.1a.52.52,0,0,1,.47.75l-35.55,73.17A.52.52,0,0,1,180,107.41ZM145.28,34.24,180,105.69l34.71-71.45Z"/><path class="cls-1" d="M180,76.38a.52.52,0,0,1-.41-.2L165.14,57.76a.52.52,0,0,1,.41-.85h28.89a.52.52,0,0,1,.41.85L180.41,76.18A.53.53,0,0,1,180,76.38ZM166.63,58,180,75l13.37-17Z"/><path class="cls-1" d="M180,88.22a.52.52,0,0,1-.47-.3L161.94,51.14a.52.52,0,0,1,.47-.75h34.92a.52.52,0,0,1,.47.75L180.46,87.92a.53.53,0,0,1-.47.3ZM163.24,51.43l16.75,35,16.51-35Z"/><path class="cls-1" d="M180,116.37a.52.52,0,0,1-.42-.21l-53.7-71.11a.52.52,0,0,1,.42-.84H233.7a.52.52,0,0,1,.42.84l-53.7,71.11A.53.53,0,0,1,180,116.37ZM127.34,45.26,180,115l52.65-69.72Z"/><path class="cls-1" d="M216.11,88.4H143.88a.52.52,0,0,1-.47-.76l36.11-71.92a.54.54,0,0,1,.94,0l36.11,71.92a.52.52,0,0,1-.47.76Zm-71.38-1h70.53L180,17.12Z"/><path class="cls-1" d="M233.58,76.4H126.41a.52.52,0,0,1-.42-.84L179.57,4.11a.54.54,0,0,1,.84,0L234,75.56a.52.52,0,0,1-.42.84Zm-106.12-1H232.53L180,5.3Z"/><path class="cls-1" d="M180,66.67h0a.52.52,0,0,1-.43-.23l-34-50.22a.52.52,0,0,1,.43-.82H214.2a.52.52,0,0,1,.43.82l-34.2,50.22A.52.52,0,0,1,180,66.67ZM146.94,16.45,180,65.21l33.21-48.77Z"/><path class="cls-1" d="M210.34,107.42H149.65a.52.52,0,0,1-.47-.75L179.52,44.5a.55.55,0,0,1,.94,0l30.34,62.17a.52.52,0,0,1-.47.75Zm-59.85-1h59L180,45.92Z"/><path class="cls-1" d="M199.62,66.61H160.36a.52.52,0,0,1-.45-.8l19.63-32.3a.54.54,0,0,1,.9,0l19.63,32.3a.52.52,0,0,1-.45.8Zm-38.33-1h37.4L180,34.8Z"/><circle class="cls-1" cx="179.99" cy="60.34" r="1.05"/></g></g></svg>