<svg id="Layer_1" data-name="Layer 1" xmlns="http://www.w3.org/2000/svg" viewBox="0 0 101 101"><path d="M9,38a1.5,1.5,0,0,0,1.5-1.5V27H20a1.5,1.5,0,0,0,0-3H9a1.5,1.5,0,0,0-1.5,1.5v11A1.5,1.5,0,0,0,9,38Z"/><path d="M20,74H10.5V64.5a1.5,1.5,0,0,0-3,0v11A1.5,1.5,0,0,0,9,77H20a1.5,1.5,0,0,0,0-3Z"/><path d="M92.5,63A1.5,1.5,0,0,0,91,64.5V74H81.5a1.5,1.5,0,0,0,0,3h11A1.5,1.5,0,0,0,94,75.5v-11A1.5,1.5,0,0,0,92.5,63Z"/><path d="M92.5,24h-11a1.5,1.5,0,0,0,0,3H91v9.5a1.5,1.5,0,0,0,3,0v-11A1.5,1.5,0,0,0,92.5,24Z"/><path d="M20.5,33A1.5,1.5,0,0,0,19,34.5v32a1.5,1.5,0,0,0,3,0v-32A1.5,1.5,0,0,0,20.5,33Z"/><path d="M31.5,33A1.5,1.5,0,0,0,30,34.5v32a1.5,1.5,0,0,0,3,0v-32A1.5,1.5,0,0,0,31.5,33Z"/><path d="M37.5,33A1.5,1.5,0,0,0,36,34.5v32a1.5,1.5,0,0,0,3,0v-32A1.5,1.5,0,0,0,37.5,33Z"/><path d="M43.5,33A1.5,1.5,0,0,0,42,34.5v32a1.5,1.5,0,0,0,3,0v-32A1.5,1.5,0,0,0,43.5,33Z"/><path d="M53.5,33A1.5,1.5,0,0,0,52,34.5v32a1.5,1.5,0,0,0,3,0v-32A1.5,1.5,0,0,0,53.5,33Z"/><path d="M64.5,33A1.5,1.5,0,0,0,63,34.5v32a1.5,1.5,0,0,0,3,0v-32A1.5,1.5,0,0,0,64.5,33Z"/><path d="M70.5,33A1.5,1.5,0,0,0,69,34.5v32a1.5,1.5,0,0,0,3,0v-32A1.5,1.5,0,0,0,70.5,33Z"/><path d="M82,66.5v-32a1.5,1.5,0,0,0-3,0v32a1.5,1.5,0,0,0,3,0Z"/></svg>