<svg id="Layer_1" data-name="Layer 1" xmlns="http://www.w3.org/2000/svg" viewBox="0 0 101 101"><title>Artboard 2 copy</title><path d="M91.44,22.74a1.5,1.5,0,0,0-1.27-.29l-40,9a1.46,1.46,0,0,0-.26.11l-.12,0-39-8.94A1.5,1.5,0,0,0,9,24V75.91a1.5,1.5,0,0,0,1.06,1.43L49,89.43a1.41,1.41,0,0,0,.86,0,1.39,1.39,0,0,0,1.07.09l40-12.12A1.5,1.5,0,0,0,92,76V23.91A1.5,1.5,0,0,0,91.44,22.74ZM12,25.88l37,8.49V86.29L12,74.81Zm77,49L52,86.07v-52l37-8.29Z"/><path d="M58.15,49.13a1.5,1.5,0,0,0,.42-.06l24.12-6.94a1.5,1.5,0,0,0-.83-2.88L57.74,46.19a1.5,1.5,0,0,0,.41,2.94Z"/><path d="M58.15,58.19a1.5,1.5,0,0,0,.42-.06l24.12-6.94a1.5,1.5,0,0,0-.83-2.88L57.74,55.24a1.5,1.5,0,0,0,.41,2.94Z"/><path d="M58.15,67.24a1.5,1.5,0,0,0,.42-.06l24.12-6.94a1.5,1.5,0,0,0-.83-2.88L57.74,64.3a1.5,1.5,0,0,0,.41,2.94Z"/></svg>