<svg id="Layer_1" data-name="Layer 1" xmlns="http://www.w3.org/2000/svg" viewBox="0 0 101 101"><title>log_Artboard 2 copy 5</title><path d="M36.11,31.29s0,.09,0,.14a1.49,1.49,0,0,0,0,.15s0,.09.05.14l.06.13.09.14.06.09,0,0h0c.45.56,6.22,7.61,14.11,7.61,7.35,0,13-7.36,13.19-7.68l0-.07.08-.14.06-.13,0-.14a1.5,1.5,0,0,0,0-.15s0-.09,0-.14,0-.1,0-.15,0-.1,0-.15,0-.09,0-.14a1.5,1.5,0,0,0,0-.15l0-.14-.06-.13-.08-.14,0-.07c-.24-.31-5.84-7.68-13.19-7.68-7.89,0-13.66,7-14.11,7.61h0l0,0-.06.09-.09.14-.06.13s0,.09-.05.14a1.49,1.49,0,0,0,0,.15s0,.09,0,.14,0,.1,0,.14S36.11,31.24,36.11,31.29Zm14.46-5.72c4.5,0,8.43,3.8,10,5.58-1.59,1.78-5.51,5.57-10,5.57-5,0-9.25-3.79-11-5.58C41.32,29.35,45.51,25.57,50.57,25.57Z"/><path d="M54.74,58.15c-1.65,1.84-3.3,2.74-4.91,2.66-2.48-.12-4.28-2.5-4.32-2.55A1.5,1.5,0,0,0,43.09,60c.11.15,2.64,3.57,6.57,3.78H50c2.43,0,4.76-1.23,6.94-3.67a1.5,1.5,0,0,0-2.23-2Z"/><circle cx="50.08" cy="31.39" r="3.5"/><path d="M97.07,37.53a1.5,1.5,0,0,0-1.23-.64H82V22.5c0-7-6.14-12.61-13.7-12.61H30.7C23.14,9.89,17,15.55,17,22.5V36.89H3.07a1.5,1.5,0,0,0-1.41,2c.22.6,5.24,14.15,15.35,15l.14,10.92a34.63,34.63,0,0,0,9.5,24,31.61,31.61,0,0,0,23,10h0a31.59,31.59,0,0,0,23-10A34.66,34.66,0,0,0,82.2,64.76L82,53.85C92,53,97,39.5,97.25,38.9A1.5,1.5,0,0,0,97.07,37.53ZM5.35,39.89H17V50.83C11,50.17,7,43.37,5.35,39.89ZM70.52,86.75a28.62,28.62,0,0,1-20.85,9.06h0a28.63,28.63,0,0,1-20.86-9.07,31.66,31.66,0,0,1-8.67-22l-.15-11V22.5c0-5.3,4.8-9.61,10.7-9.61H68.3c5.9,0,10.7,4.31,10.7,9.61V53.74l.2,11A31.65,31.65,0,0,1,70.52,86.75ZM82,50.82V39.89H93.56C91.9,43.35,87.94,50.1,82,50.82Z"/><path d="M64.08,69.89h-28a1.5,1.5,0,0,0,0,3h28a1.5,1.5,0,0,0,0-3Z"/></svg>