<svg width="45" height="59" viewBox="0 0 45 59" fill="none" xmlns="http://www.w3.org/2000/svg">
<path fill-rule="evenodd" clip-rule="evenodd" d="M30.9616 1.41456C32.9853 -0.527688 36.2004 -0.461646 38.1426 1.56207C40.0849 3.58578 40.0188 6.80083 37.9951 8.74308L18.2675 27.6765C15.8648 29.9825 16.3456 33.9489 19.2297 35.614L42.4597 49.0259C44.8889 50.4284 45.7212 53.5345 44.3187 55.9637C42.9162 58.3928 39.8101 59.2251 37.3809 57.8227L2.54025 37.7074C0.111095 36.3049 -0.721195 33.1988 0.681278 30.7696C0.956879 30.2922 1.29825 29.8766 1.68736 29.5274C1.76669 29.4399 1.84959 29.3546 1.93607 29.2716L30.9616 1.41456Z" fill="#AB296A"/>
</svg>
