<svg width="45" height="59" viewBox="0 0 45 59" fill="none" xmlns="http://www.w3.org/2000/svg">
<path fill-rule="evenodd" clip-rule="evenodd" d="M14.0384 1.41456C12.0147 -0.527688 8.79964 -0.461646 6.85739 1.56207C4.91514 3.58578 4.98119 6.80083 7.0049 8.74308L26.7325 27.6765C29.1352 29.9825 28.6544 33.9489 25.7703 35.614L2.54025 49.0259C0.111096 50.4284 -0.721195 53.5345 0.681279 55.9637C2.08375 58.3928 5.18991 59.2251 7.61906 57.8227L42.4597 37.7074C44.8889 36.3049 45.7212 33.1988 44.3187 30.7696C44.0431 30.2922 43.7017 29.8766 43.3126 29.5274C43.2333 29.4399 43.1504 29.3546 43.0639 29.2716L14.0384 1.41456Z" fill="#AB296A"/>
</svg>
