<?xml version="1.0" encoding="iso-8859-1"?>
<!-- Generator: Adobe Illustrator 21.0.0, SVG Export Plug-In . SVG Version: 6.00 Build 0)  -->
<svg version="1.1" id="Layer_1" xmlns="http://www.w3.org/2000/svg" xmlns:xlink="http://www.w3.org/1999/xlink" x="0px" y="0px"
	 viewBox="0 0 100.353 100.353" style="enable-background:new 0 0 100.353 100.353;" xml:space="preserve">
<g>
	<path d="M71.773,19.463v-6.845h-3v6.845H30.308v-6.845h-3v6.845H11.672v65.44h77.449v-65.44H71.773z M86.121,81.903H14.672v-59.44
		h12.636v4.541h3v-4.541h38.465v4.541h3v-4.541h14.348L86.121,81.903L86.121,81.903z"/>
	<polygon points="76.355,57.291 71.294,62.353 66.234,57.291 64.112,59.412 69.173,64.475 64.112,69.538 66.234,71.659 
		71.294,66.597 76.355,71.659 78.477,69.538 73.416,64.475 78.477,59.412 	"/>
	<path d="M23.595,48.837h12.249V36.59H23.595V48.837z M26.595,39.589h6.249v6.247h-6.249V39.589z"/>
	<path d="M44.673,48.837h12.246V36.59H44.673V48.837z M47.673,39.589h6.246v6.247h-6.246V39.589z"/>
	<path d="M23.595,70.107h12.249V57.86H23.595V70.107z M26.595,60.859h6.249v6.247h-6.249V60.859z"/>
	<path d="M44.673,70.107h12.246V57.86H44.673V70.107z M47.673,60.859h6.246v6.247h-6.246V60.859z"/>
	<path d="M77.03,36.589H64.781v12.247H77.03V36.589z M74.03,45.837h-6.249V39.59h6.249V45.837z"/>
</g>
</svg>
