<?xml version="1.0" encoding="UTF-8"?> <svg xmlns="http://www.w3.org/2000/svg" width="248" height="476" viewBox="0 0 248 476" fill="none"> <g filter="url(#filter0_d)"> <path d="M93.7625 268.875L82.16 351.75C78.845 371.64 82.16 387.11 92.105 398.16C102.05 409.763 115.863 415.288 134.095 415.288C151.775 415.288 167.245 409.763 179.953 398.16C192.66 387.11 200.395 371.64 203.71 351.75L219.733 235.725C222.495 216.387 219.18 200.917 210.34 189.315C200.948 178.265 188.793 172.187 173.323 172.187L241.833 58.925L247.358 20.25H131.333L125.808 58.925H202.605L134.648 172.187L129.123 210.862H165.035C170.56 210.862 174.428 213.072 177.743 216.94C181.058 221.36 182.163 227.437 181.058 235.725L165.035 351.75C162.825 368.325 153.985 376.612 139.62 376.612C124.703 376.612 118.625 368.325 120.835 351.75L132.438 268.875H93.7625Z" fill="#25DC4B"></path> </g> <defs> <filter id="filter0_d" x="0.91687" y="0.25" width="246.441" height="475.038" filterUnits="userSpaceOnUse" color-interpolation-filters="sRGB"> <feFlood flood-opacity="0" result="BackgroundImageFix"></feFlood> <feColorMatrix in="SourceAlpha" type="matrix" values="0 0 0 0 0 0 0 0 0 0 0 0 0 0 0 0 0 0 127 0"></feColorMatrix> <feOffset dx="-40" dy="20"></feOffset> <feGaussianBlur stdDeviation="20"></feGaussianBlur> <feColorMatrix type="matrix" values="0 0 0 0 0 0 0 0 0 0 0 0 0 0 0 0 0 0 0.38 0"></feColorMatrix> <feBlend mode="normal" in2="BackgroundImageFix" result="effect1_dropShadow"></feBlend> <feBlend mode="normal" in="SourceGraphic" in2="effect1_dropShadow" result="shape"></feBlend> </filter> </defs> </svg> 