<?xml version="1.0" encoding="UTF-8"?> <svg xmlns="http://www.w3.org/2000/svg" width="105" height="92" viewBox="0 0 105 92" fill="none"> <g clip-path="url(#clip0)"> <path d="M110.2 7.73333H96.6667V1.93333C96.6667 0.8642 95.8025 0 94.7333 0H81.2C80.1309 0 79.2667 0.8642 79.2667 1.93333V7.73333H36.7333V1.93333C36.7333 0.8642 35.8691 0 34.8 0H21.2667C20.1975 0 19.3333 0.8642 19.3333 1.93333V7.73333H5.8C4.73087 7.73333 3.86667 8.59753 3.86667 9.66667V30.9333V114.067C3.86667 115.136 4.73087 116 5.8 116H110.2C111.269 116 112.133 115.136 112.133 114.067V30.9333V9.66667C112.133 8.59753 111.269 7.73333 110.2 7.73333ZM83.1333 3.86667H92.8V9.66667V15.4667H83.1333V9.66667V3.86667ZM23.2 3.86667H32.8667V9.66667V15.4667H23.2V9.66667V3.86667ZM7.73334 11.6H19.3333V17.4C19.3333 18.4691 20.1975 19.3333 21.2667 19.3333H34.8C35.8691 19.3333 36.7333 18.4691 36.7333 17.4V11.6H79.2667V17.4C79.2667 18.4691 80.1309 19.3333 81.2 19.3333H94.7333C95.8025 19.3333 96.6667 18.4691 96.6667 17.4V11.6H108.267V29H7.73334V11.6ZM7.73334 112.133V32.8667H108.267V112.133H7.73334Z" fill="#313640"></path> <path d="M73.4667 44.4667H59.9333H56.0667H42.5333H38.6667H21.2667V61.8667V65.7333V79.2667V83.1333V100.533H38.6667H42.5333H56.0667H59.9333H73.4667H77.3333H94.7333V83.1333V79.2667V65.7333V61.8667V44.4667H77.3333H73.4667ZM59.9333 48.3333H73.4667V61.8667H59.9333V48.3333ZM73.4667 79.2667H59.9333V65.7333H73.4667V79.2667ZM42.5333 65.7333H56.0667V79.2667H42.5333V65.7333ZM42.5333 48.3333H56.0667V61.8667H42.5333V48.3333ZM25.1333 48.3333H38.6667V61.8667H25.1333V48.3333ZM25.1333 65.7333H38.6667V79.2667H25.1333V65.7333ZM38.6667 96.6667H25.1333V83.1333H38.6667V96.6667ZM56.0667 96.6667H42.5333V83.1333H56.0667V96.6667ZM73.4667 96.6667H59.9333V83.1333H73.4667V96.6667ZM90.8667 96.6667H77.3333V83.1333H90.8667V96.6667ZM90.8667 79.2667H77.3333V65.7333H90.8667V79.2667ZM90.8667 48.3333V61.8667H77.3333V48.3333H90.8667Z" fill="#313640"></path> </g> <defs> <clipPath id="clip0"> <rect width="105" height="92" fill="white"></rect> </clipPath> </defs> </svg> 