<?xml version="1.0" encoding="UTF-8"?> <svg xmlns="http://www.w3.org/2000/svg" width="102" height="104" viewBox="0 0 102 104" fill="none"> <g filter="url(#filter0_d)"> <path d="M61.2734 52.0154C61.2734 52.3496 61.1937 52.6632 61.0601 52.9482C60.1691 55.8225 55.9979 55.6125 50.0646 55.7527C49.0727 55.776 49.6401 56.9474 49.9882 59.5187C50.2148 61.191 49.1364 63.759 47.3239 63.759C44.3353 63.759 47.2103 61.4016 44.5679 55.572C43.156 52.4572 40 54.202 40 51.0732V43.952C40 42.7341 40.1196 41.5634 41.8325 41.3707C43.4929 41.1833 43.1195 40 45.5147 40H57.5035C58.7247 40 59.718 40.994 59.718 42.2152C59.718 42.7215 59.5406 43.1826 59.2542 43.556C59.9319 43.9354 60.397 44.6516 60.397 45.4821C60.397 45.9871 60.2203 46.4482 59.9346 46.8209C60.6143 47.1997 61.0807 47.9166 61.0807 48.7484C61.0807 49.3524 60.8362 49.8999 60.4422 50.3005C60.9452 50.7065 61.2734 51.3204 61.2734 52.0154Z" fill="#25DC4B"></path> <path d="M53.3429 49.8012H59.0596C59.8369 49.8012 60.5665 50.2171 60.9638 50.8862C61.1272 51.1619 61.0362 51.5187 60.7598 51.6828C60.4841 51.8469 60.1273 51.7546 59.9632 51.4788C59.7751 51.1606 59.4276 50.9639 59.0589 50.9639H53.2053C52.6253 50.9639 52.1536 51.4356 52.1536 52.0157C52.1536 52.5957 52.6253 53.0675 53.2053 53.0675H57.1168C57.4377 53.0675 57.6982 53.3279 57.6982 53.6488C57.6982 53.9697 57.4377 54.2302 57.1168 54.2302H53.2047C51.9835 54.2302 50.9902 53.2369 50.9902 52.0157C50.9902 51.3347 51.3058 50.732 51.7908 50.3254C51.3822 49.9234 51.1277 49.3653 51.1277 48.7487C51.1277 48.0657 51.4453 47.4611 51.933 47.0551C51.527 46.6538 51.2752 46.0977 51.2752 45.4824C51.2752 44.7383 51.6466 44.0818 52.2114 43.6799C51.8632 43.2885 51.6453 42.7789 51.6453 42.2155C51.6453 40.9943 52.6386 40.001 53.8598 40.001H57.5035C58.2809 40.001 59.0111 40.4162 59.4084 41.0853C59.5725 41.361 59.4815 41.7178 59.2057 41.882C58.9293 42.0447 58.5725 41.955 58.4091 41.6793C58.2197 41.361 57.8722 41.1637 57.5035 41.1637H53.8598C53.2798 41.1637 52.808 41.6355 52.808 42.2155C52.808 42.7955 53.2798 43.2673 53.8598 43.2673H58.1825C58.9599 43.2673 59.6908 43.6832 60.0874 44.3523C60.2515 44.6287 60.1605 44.9855 59.8848 45.1489C59.6064 45.3157 59.2509 45.222 59.0881 44.9463C58.8961 44.6227 58.5573 44.43 58.1825 44.43H53.4897C52.9097 44.43 52.4379 44.9024 52.4379 45.4824C52.4379 46.0625 52.9097 46.5342 53.4897 46.5342H58.8655C59.6429 46.5342 60.3731 46.9495 60.7704 47.6186C60.9346 47.8943 60.8435 48.2511 60.5678 48.4152C60.2907 48.5786 59.9346 48.4883 59.7711 48.2125C59.5791 47.8896 59.2403 47.697 58.8655 47.697H53.3429C52.7628 47.697 52.2911 48.1687 52.2911 48.7487C52.2911 49.3288 52.7622 49.8012 53.3429 49.8012Z" fill="#1BB73B"></path> </g> <defs> <filter id="filter0_d" x="0" y="0" width="101.273" height="103.759" filterUnits="userSpaceOnUse" color-interpolation-filters="sRGB"> <feFlood flood-opacity="0" result="BackgroundImageFix"></feFlood> <feColorMatrix in="SourceAlpha" type="matrix" values="0 0 0 0 0 0 0 0 0 0 0 0 0 0 0 0 0 0 127 0"></feColorMatrix> <feOffset></feOffset> <feGaussianBlur stdDeviation="20"></feGaussianBlur> <feColorMatrix type="matrix" values="0 0 0 0 0.145098 0 0 0 0 0.862745 0 0 0 0 0.294118 0 0 0 0.3 0"></feColorMatrix> <feBlend mode="normal" in2="BackgroundImageFix" result="effect1_dropShadow"></feBlend> <feBlend mode="normal" in="SourceGraphic" in2="effect1_dropShadow" result="shape"></feBlend> </filter> </defs> </svg> 