<?xml version="1.0" encoding="UTF-8"?> <svg xmlns="http://www.w3.org/2000/svg" width="16" height="25" viewBox="0 0 16 25" fill="none"> <path d="M15.9213 13.4629C15.9213 13.4629 15.9833 11.8874 14.726 11.4165C13.6141 10.9996 13.1858 11.8314 13.1858 11.8314C13.1858 11.8314 13.2252 10.5547 11.8911 10.0824C10.6338 9.63685 9.90073 10.598 9.90073 10.598C9.90073 10.598 9.8527 9.47276 8.52798 9.10923C7.41338 8.80307 6.58293 9.88765 6.58293 9.88765V9.33936C6.58293 8.69968 6.2214 7.62176 4.88668 7.62109C3.55263 7.61976 3.24779 8.72769 3.24779 9.33936V10.4159C3.24779 11.2984 2.61545 10.548 2.15654 10.9649C1.1093 11.9168 0.643052 15.2546 1.36411 17.9687C2.23925 21.2625 4.07357 24.0393 7.83027 24.0393C13.2545 24.0393 15.9173 20.5054 15.9206 16.0857L15.9213 13.4629Z" fill="#25DC4B"></path> <path d="M9.91069 12.34C9.91069 13.2612 9.16429 14.0076 8.24312 14.0076C7.32196 14.0076 6.57556 13.2612 6.57556 12.34V1.66757C6.57556 0.746404 7.32196 0 8.24312 0C9.16429 0 9.91069 0.746404 9.91069 1.66757V12.34ZM4.0742 10.6724L2.53204 10.6744C1.44812 10.6744 1.10393 10.9846 0.656355 12.7569C0.364197 13.9102 0 14.4558 0 15.6858C0 17.6242 3.06432 23.9223 7.57676 23.951L4.0742 10.6724Z" fill="#25DC4B"></path> <path d="M2.57336 17.0236C2.57336 17.191 2.70944 17.3431 2.87753 17.3431H2.93623C3.10432 17.3431 3.24039 17.2071 3.24039 17.039V10.6729H2.59404L2.57336 17.0236Z" fill="#1CAF3B"></path> </svg> 