<svg width="20" height="21" viewBox="0 0 20 21" fill="none" xmlns="http://www.w3.org/2000/svg">
<path d="M10.6667 5.3418C10.2987 5.3418 10 5.64046 10 6.00846C10 6.37646 10.2987 6.67513 10.6667 6.67513C12.1373 6.67513 13.3333 7.87113 13.3333 9.3418C13.3333 9.7098 13.632 10.0085 14 10.0085C14.368 10.0085 14.6667 9.7098 14.6667 9.3418C14.6667 7.13646 12.872 5.3418 10.6667 5.3418Z" fill="#148E2D"/>
<path d="M10.6667 2.67383C10.2987 2.67383 10 2.97249 10 3.34049C10 3.70849 10.2987 4.00716 10.6667 4.00716C13.608 4.00716 16 6.39916 16 9.34049C16 9.70849 16.2987 10.0072 16.6667 10.0072C17.0347 10.0072 17.3333 9.70849 17.3333 9.34049C17.3333 5.66449 14.3427 2.67383 10.6667 2.67383Z" fill="#148E2D"/>
<path d="M10.6667 0.0078125C10.2987 0.0078125 10 0.306479 10 0.674479C10 1.04248 10.2987 1.34115 10.6667 1.34115C15.0787 1.34115 18.6667 4.92915 18.6667 9.34115C18.6667 9.70915 18.9653 10.0078 19.3333 10.0078C19.7013 10.0078 20 9.70915 20 9.34115C20 4.19448 15.812 0.0078125 10.6667 0.0078125Z" fill="#148E2D"/>
<path d="M18 14.6751C16.064 14.6751 14.22 14.2538 12.52 13.4231C12.36 13.3431 12.176 13.3338 12.0093 13.3925C11.8413 13.4511 11.704 13.5738 11.6267 13.7325L10.5787 15.9018C7.86667 14.3885 5.62133 12.1445 4.10933 9.43246L6.27733 8.3818C6.43733 8.30446 6.55867 8.16713 6.61733 7.99913C6.67467 7.83246 6.664 7.64846 6.58533 7.48846C5.75467 5.78846 5.33333 3.94446 5.33333 2.00846C5.33333 1.64046 5.03467 1.3418 4.66667 1.3418H0.666667C0.298667 1.3418 0 1.64046 0 2.00846C0 11.9338 8.07467 20.0085 18 20.0085C18.368 20.0085 18.6667 19.7098 18.6667 19.3418V15.3418C18.6667 14.9738 18.368 14.6751 18 14.6751Z" fill="#148E2D"/>
</svg>
