<?xml version="1.0" encoding="UTF-8"?> <svg xmlns="http://www.w3.org/2000/svg" width="301" height="111" viewBox="0 0 301 111" fill="none"> <path d="M25.164 13.76V12.9015H24.417L24.3137 13.6413L25.164 13.76ZM44.404 13.76V14.6185H45.1486L45.2539 13.8814L44.404 13.76ZM45.884 3.39999L46.7339 3.5214L46.8739 2.54149H45.884V3.39999ZM16.284 3.39999V2.54149H15.5373L15.4338 3.28096L16.284 3.39999ZM1.78 107L0.929789 106.881L0.792934 107.859H1.78V107ZM12.14 107V107.859H12.8874L12.9903 107.118L12.14 107ZM18.208 63.34V62.4815H17.4606L17.3577 63.2218L18.208 63.34ZM33.008 63.34V64.1985H33.7526L33.8579 63.4614L33.008 63.34ZM34.488 52.98L35.3379 53.1014L35.4779 52.1215H34.488V52.98ZM19.688 52.98L18.8377 52.8613L18.7013 53.8385H19.688V52.98ZM25.164 14.6185H44.404V12.9015H25.164V14.6185ZM45.2539 13.8814L46.7339 3.5214L45.0341 3.27858L43.5541 13.6386L45.2539 13.8814ZM45.884 2.54149H16.284V4.2585H45.884V2.54149ZM15.4338 3.28096L0.929789 106.881L2.63021 107.119L17.1342 3.51902L15.4338 3.28096ZM1.78 107.859H12.14V106.141H1.78V107.859ZM12.9903 107.118L19.0583 63.4582L17.3577 63.2218L11.2897 106.882L12.9903 107.118ZM18.208 64.1985H33.008V62.4815H18.208V64.1985ZM33.8579 63.4614L35.3379 53.1014L33.6381 52.8586L32.1581 63.2186L33.8579 63.4614ZM34.488 52.1215H19.688V53.8385H34.488V52.1215ZM20.5383 53.0987L26.0143 13.8787L24.3137 13.6413L18.8377 52.8613L20.5383 53.0987ZM94.184 97.232L94.8708 96.7169L94.8541 96.6945L94.8359 96.6733L94.184 97.232ZM93.444 92.2L94.2878 92.3582L94.2915 92.3387L94.2942 92.319L93.444 92.2ZM103.804 18.2L104.654 18.319L104.655 18.3135L103.804 18.2ZM115.644 18.2L116.494 18.319L116.495 18.3135L115.644 18.2ZM105.284 92.2L106.131 92.3411L106.133 92.3301L106.134 92.319L105.284 92.2ZM99.66 5.768L99.0967 5.12017L99.0889 5.12699L99.0812 5.13401L99.66 5.768ZM93.444 18.2L92.5942 18.0786L92.5938 18.081L93.444 18.2ZM83.084 92.2L83.9309 92.3411L83.9327 92.3301L83.9342 92.319L83.084 92.2ZM85.748 104.632L86.4153 104.092L86.4012 104.074L86.3862 104.058L85.748 104.632ZM109.28 104.632L108.717 103.984L108.715 103.986L109.28 104.632ZM115.644 92.2L116.491 92.3411L116.493 92.3301L116.494 92.319L115.644 92.2ZM126.004 18.2L125.154 18.0786L125.154 18.081L126.004 18.2ZM123.192 5.768L123.844 5.20929L123.837 5.20141L123.83 5.19369L123.192 5.768ZM98.328 98.0015C96.5308 98.0015 95.5266 97.5912 94.8708 96.7169L93.4972 97.7471C94.6175 99.2408 96.2773 99.7185 98.328 99.7185V98.0015ZM94.8359 96.6733C94.1957 95.9265 93.8639 94.6191 94.2878 92.3582L92.6002 92.0418C92.1362 94.5169 92.3963 96.4655 93.5322 97.7907L94.8359 96.6733ZM94.2942 92.319L104.654 18.319L102.954 18.081L92.5938 92.081L94.2942 92.319ZM104.655 18.3135C104.936 16.2027 105.589 14.7459 106.534 13.817C107.463 12.903 108.779 12.3985 110.612 12.3985V10.6815C108.45 10.6815 106.657 11.287 105.33 12.5929C104.017 13.8841 103.264 15.7572 102.953 18.0865L104.655 18.3135ZM110.612 12.3985C112.379 12.3985 113.48 12.9037 114.112 13.7273C114.763 14.5774 115.075 15.9699 114.793 18.0865L116.495 18.3135C116.805 15.9901 116.525 14.0526 115.474 12.6827C114.404 11.2862 112.693 10.6815 110.612 10.6815V12.3985ZM114.794 18.081L104.434 92.081L106.134 92.319L116.494 18.319L114.794 18.081ZM104.437 92.0589C104.086 94.1635 103.368 95.6323 102.379 96.5733C101.405 97.5017 100.079 98.0015 98.328 98.0015V99.7185C100.425 99.7185 102.207 99.1083 103.564 97.8167C104.907 96.5377 105.742 94.6765 106.131 92.3411L104.437 92.0589ZM112.092 0.321492C107 0.321492 102.656 2.02503 99.0967 5.12017L100.223 6.41583C103.472 3.59095 107.416 2.0385 112.092 2.0385V0.321492ZM99.0812 5.13401C95.5104 8.39429 93.3583 12.7297 92.5942 18.0786L94.2939 18.3214C95.0098 13.3103 97.0017 9.35769 100.239 6.40199L99.0812 5.13401ZM92.5938 18.081L82.2338 92.081L83.9342 92.319L94.2942 18.319L92.5938 18.081ZM82.2372 92.0589C81.3226 97.5467 82.214 101.989 85.1099 105.206L86.3862 104.058C83.9541 101.355 83.0695 97.5093 83.9309 92.3411L82.2372 92.0589ZM85.0808 105.172C87.8018 108.533 91.7802 110.079 96.848 110.079V108.361C92.1479 108.361 88.7262 106.947 86.4153 104.092L85.0808 105.172ZM96.848 110.079C101.781 110.079 106.129 108.53 109.845 105.278L108.715 103.986C105.327 106.95 101.387 108.361 96.848 108.361V110.079ZM109.843 105.28C113.432 102.159 115.578 97.8161 116.491 92.3411L114.797 92.0589C113.934 97.2399 111.936 101.185 108.717 103.984L109.843 105.28ZM116.494 92.319L126.854 18.319L125.154 18.081L114.794 92.081L116.494 92.319ZM126.854 18.3214C127.617 12.9816 126.717 8.56142 123.844 5.20929L122.54 6.3267C124.995 9.19056 125.871 13.0584 125.154 18.0786L126.854 18.3214ZM123.83 5.19369C120.986 2.03337 117.044 0.321492 112.092 0.321492V2.0385C116.612 2.0385 120.07 3.58262 122.554 6.34231L123.83 5.19369ZM213.034 20.42L212.184 20.2986V20.2986L213.034 20.42ZM210.222 7.988L210.874 7.42929L210.867 7.42141L210.86 7.41369L210.222 7.988ZM182.842 3.39999V2.54149H182.095L181.992 3.28096L182.842 3.39999ZM168.338 107L167.488 106.881L167.351 107.859H168.338V107ZM178.698 107V107.859H179.446L179.548 107.118L178.698 107ZM184.026 68.52V67.6615H183.278L183.175 68.4023L184.026 68.52ZM189.946 68.52L190.804 68.4903L190.775 67.6615H189.946V68.52ZM191.278 107L190.42 107.03L190.449 107.859H191.278V107ZM202.378 107V107.859H203.287L203.235 106.951L202.378 107ZM200.01 65.56L199.593 64.8095L199.122 65.0712L199.153 65.609L200.01 65.56ZM203.71 62.452L204.351 63.0224L204.375 62.9957L204.397 62.9671L203.71 62.452ZM206.522 58.012L205.754 57.6281L206.522 58.012ZM208.594 51.5L209.441 51.6411L209.442 51.6313L209.444 51.6214L208.594 51.5ZM198.234 51.5L197.384 51.3786L197.383 51.3865L198.234 51.5ZM185.506 58.16L184.656 58.041L184.519 59.0185H185.506V58.16ZM191.722 13.76V12.9015H190.975L190.872 13.641L191.722 13.76ZM202.674 20.42L203.524 20.5414L203.525 20.5335L202.674 20.42ZM213.884 20.5414C214.647 15.2016 213.747 10.7814 210.874 7.42929L209.57 8.5467C212.025 11.4106 212.901 15.2784 212.184 20.2986L213.884 20.5414ZM210.86 7.41369C208.016 4.25337 204.074 2.54149 199.122 2.54149V4.2585C203.642 4.2585 207.1 5.80262 209.584 8.5623L210.86 7.41369ZM199.122 2.54149H182.842V4.2585H199.122V2.54149ZM181.992 3.28096L167.488 106.881L169.188 107.119L183.692 3.51902L181.992 3.28096ZM168.338 107.859H178.698V106.141H168.338V107.859ZM179.548 107.118L184.876 68.6377L183.175 68.4023L177.847 106.882L179.548 107.118ZM184.026 69.3785H189.946V67.6615H184.026V69.3785ZM189.088 68.5497L190.42 107.03L192.136 106.97L190.804 68.4903L189.088 68.5497ZM191.278 107.859H202.378V106.141H191.278V107.859ZM203.235 106.951L200.867 65.511L199.153 65.609L201.521 107.049L203.235 106.951ZM200.427 66.3105C201.869 65.509 203.127 64.4003 204.351 63.0224L203.068 61.8816C201.925 63.1677 200.814 64.131 199.593 64.8095L200.427 66.3105ZM204.397 62.9671C205.298 61.7655 206.368 60.2385 207.29 58.3959L205.754 57.6281C204.899 59.3375 203.898 60.7705 203.023 61.9369L204.397 62.9671ZM207.29 58.3959C208.215 56.5456 208.982 54.392 209.441 51.6411L207.747 51.3589C207.317 53.936 206.605 55.9263 205.754 57.6281L207.29 58.3959ZM209.444 51.6214L213.884 20.5414L212.184 20.2986L207.744 51.3786L209.444 51.6214ZM197.383 51.3865C197.103 53.4842 196.419 54.9442 195.454 55.8781C194.5 56.8008 193.178 57.3015 191.426 57.3015V59.0185C193.521 59.0185 195.307 58.4092 196.648 57.1119C197.977 55.8258 198.772 53.9558 199.085 51.6135L197.383 51.3865ZM191.426 57.3015H185.506V59.0185H191.426V57.3015ZM186.356 58.279L192.572 13.879L190.872 13.641L184.656 58.041L186.356 58.279ZM191.722 14.6185H197.642V12.9015H191.722V14.6185ZM197.642 14.6185C199.409 14.6185 200.51 15.1237 201.142 15.9473C201.793 16.7974 202.105 18.1899 201.823 20.3065L203.525 20.5335C203.835 18.2101 203.554 16.2726 202.504 14.9027C201.434 13.5062 199.722 12.9015 197.642 12.9015V14.6185ZM201.824 20.2986L197.384 51.3786L199.084 51.6214L203.524 20.5414L201.824 20.2986ZM298.914 20.42L298.064 20.2986L298.064 20.3006L298.914 20.42ZM296.102 7.988L296.754 7.42929L296.747 7.42141L296.74 7.41369L296.102 7.988ZM268.722 3.39999V2.54149H267.976L267.872 3.28096L268.722 3.39999ZM254.218 107L253.368 106.881L253.231 107.859H254.218V107ZM282.782 102.412L282.219 101.764L282.211 101.771L282.203 101.778L282.782 102.412ZM289.146 89.98L289.993 90.1211L289.995 90.1103L289.996 90.0994L289.146 89.98ZM278.786 89.98L279.633 90.1211L279.635 90.1103L279.636 90.0994L278.786 89.98ZM265.91 96.64L265.06 96.5201L264.922 97.4985H265.91V96.64ZM277.602 13.76V12.9015H276.856L276.752 13.6401L277.602 13.76ZM288.554 20.42L289.404 20.5394L289.405 20.5335L288.554 20.42ZM299.764 20.5414C300.527 15.2016 299.627 10.7814 296.754 7.42929L295.45 8.5467C297.905 11.4106 298.782 15.2784 298.064 20.2986L299.764 20.5414ZM296.74 7.41369C293.896 4.25337 289.954 2.54149 285.002 2.54149V4.2585C289.522 4.2585 292.98 5.80262 295.464 8.5623L296.74 7.41369ZM285.002 2.54149H268.722V4.2585H285.002V2.54149ZM267.872 3.28096L253.368 106.881L255.069 107.119L269.573 3.51902L267.872 3.28096ZM254.218 107.859H270.498V106.141H254.218V107.859ZM270.498 107.859C275.428 107.859 279.785 106.312 283.361 103.046L282.203 101.778C278.972 104.728 275.04 106.141 270.498 106.141V107.859ZM283.346 103.06C286.934 99.9393 289.081 95.5961 289.993 90.1211L288.299 89.8389C287.436 95.0199 285.438 98.9647 282.219 101.764L283.346 103.06ZM289.996 90.0994L299.764 20.5394L298.064 20.3006L288.296 89.8606L289.996 90.0994ZM277.939 89.8389C277.589 91.9435 276.87 93.4123 275.882 94.3533C274.907 95.2817 273.581 95.7815 271.83 95.7815V97.4985C273.928 97.4985 275.71 96.8883 277.066 95.5967C278.409 94.3177 279.244 92.4565 279.633 90.1211L277.939 89.8389ZM271.83 95.7815H265.91V97.4985H271.83V95.7815ZM266.76 96.7599L278.452 13.8799L276.752 13.6401L265.06 96.5201L266.76 96.7599ZM277.602 14.6185H283.522V12.9015H277.602V14.6185ZM283.522 14.6185C285.29 14.6185 286.391 15.1237 287.022 15.9473C287.674 16.7974 287.986 18.1899 287.703 20.3065L289.405 20.5335C289.715 18.2101 289.435 16.2726 288.385 14.9027C287.314 13.5062 285.603 12.9015 283.522 12.9015V14.6185ZM287.704 20.3006L277.936 89.8606L279.636 90.0994L289.404 20.5394L287.704 20.3006Z" fill="#2A2A34"></path> </svg> 