<?xml version="1.0" encoding="UTF-8"?> <svg xmlns="http://www.w3.org/2000/svg" width="128" height="121" viewBox="0 0 128 121" fill="none"> <g opacity="0.8" clip-path="url(#clip0)"> <g filter="url(#filter0_d)"> <path d="M65.3414 102.467H80.6526V100.14H74.1748V21.019H71.8192C71.8192 24.5096 70.877 27.3022 69.2281 29.1638C67.4614 31.1419 65.5769 32.0727 63.5747 32.0727V33.818C65.2236 33.818 66.5192 33.5853 67.5792 33.1199C68.5214 32.6545 69.4636 32.1891 70.1703 31.4909C70.877 30.7928 71.3481 30.0947 71.8192 29.1638V100.14H65.3414V102.467Z" fill="#343943"></path> <path d="M64.8816 102.467V102.927H65.3414H80.6526H81.1124V102.467V100.14V99.6805H80.6526H74.6346V21.019V20.5592H74.1748H71.8192H71.3594V21.019C71.3594 24.4318 70.4383 27.1036 68.8845 28.8583C67.1815 30.7647 65.4139 31.6129 63.5747 31.6129H63.1149V32.0727V33.818V34.2778H63.5747C65.2649 34.2778 66.6283 34.0396 67.764 33.5409L67.7735 33.5367L67.7828 33.5321L67.8166 33.5154C68.7349 33.0619 69.7337 32.5686 70.4934 31.818L70.1703 31.4909L70.4934 31.818C70.8241 31.4913 71.1059 31.1644 71.3594 30.8184V99.6805H65.3414H64.8816V100.14V102.467Z" stroke="#343943" stroke-width="0.919579"></path> </g> <path d="M44.2638 114.918C44.0049 115.103 46.5936 120.169 50.7353 122.98C54.8032 125.864 59.0928 126.604 59.5736 125.642C60.0913 124.644 56.8371 122.314 52.9911 119.762C49.1082 117.285 44.5596 114.622 44.2638 114.918Z" fill="#343943"></path> <path d="M20.1897 118.283C20.0787 118.727 25.4409 123.238 30.5071 124.644C35.5364 126.123 39.4563 125.531 39.3454 124.496C39.2345 123.386 35.3516 122.166 30.5811 120.65C25.8476 119.245 20.2636 117.95 20.1897 118.283Z" fill="#343943"></path> <path d="M40.7507 120.835C41.4903 120.132 39.3084 116.915 36.6459 113.18C33.9463 109.519 30.5441 105.525 30.2113 105.673C29.9155 105.747 30.803 111.22 33.6875 115.177C36.498 119.208 40.048 121.5 40.7507 120.835Z" fill="#343943"></path> <path d="M7.83836 100.385C7.61648 100.754 11.1666 106.523 15.2714 109.482C19.3392 112.514 22.9263 113.365 23.1112 112.403C23.333 111.405 20.2267 108.927 16.4178 105.969C12.6458 103.084 7.98628 100.126 7.83836 100.385Z" fill="#343943"></path> <path d="M25.4039 109.63C26.2544 109.297 25.219 105.636 23.8507 101.42C22.4085 97.2044 20.4485 92.5079 20.1157 92.4709C19.8199 92.4709 19.2282 97.6111 20.6704 102.16C22.1126 106.671 24.5533 109.963 25.4039 109.63Z" fill="#343943"></path> <path d="M1.47777 80.4525C1.18193 80.7113 2.92 86.924 5.76747 90.8439C8.57796 94.8378 11.5364 96.7977 11.9431 95.9842C12.4239 95.1336 10.316 91.9533 7.69043 88.1074C5.06484 84.3354 1.69965 80.2676 1.47777 80.4525Z" fill="#343943"></path> <path d="M14.7166 94.32C15.5672 94.283 15.6411 90.6959 15.4932 86.4802C15.3083 82.2275 14.7166 77.383 14.4208 77.2721C14.1989 77.1612 12.3129 81.6358 12.4608 86.1473C12.5718 90.6219 13.903 94.3569 14.7166 94.32Z" fill="#343943"></path> <path d="M0.664167 60.8159C0.331346 60.9639 0.479271 66.9547 2.03244 71.2813C3.5856 75.645 5.69347 78.3445 6.28516 77.7529C6.91382 77.1612 5.8414 73.6481 4.43615 69.4323C2.99392 65.2905 0.849068 60.705 0.664167 60.8159Z" fill="#343943"></path> <path d="M9.13261 77.1242C9.90919 77.3831 10.8337 74.2028 11.7582 70.3568C12.6457 66.5109 13.2004 61.8884 12.9785 61.7405C12.7567 61.5925 10.1311 65.0687 9.13261 69.1365C8.09716 73.1673 8.393 76.9023 9.13261 77.1242Z" fill="#343943"></path> <path d="M4.28816 43.1025C3.99232 43.1394 2.77197 48.5016 3.21574 52.7913C3.62252 57.081 4.87984 60.0763 5.54548 59.7435C6.21112 59.3737 6.13717 55.9716 5.76736 51.8298C5.39756 47.688 4.51004 43.0655 4.28816 43.1025Z" fill="#343943"></path> <path d="M8.24506 59.9654C8.87372 60.4092 10.4269 57.8576 12.091 54.6773C13.7181 51.46 15.2713 47.5031 15.0864 47.2812C14.9385 47.0963 11.7952 49.4631 10.0201 52.8652C8.31903 56.1565 7.6164 59.5587 8.24506 59.9654Z" fill="#343943"></path> <path d="M8.98467 43.3244C9.68729 43.2134 10.279 40.1071 10.8707 36.3721C11.3884 32.6371 11.4993 28.2734 11.3144 28.2734C11.0556 28.2364 8.91072 32.6371 8.39299 36.557C7.83829 40.4769 8.31902 43.4723 8.98467 43.3244Z" fill="#343943"></path> <path d="M11.2774 44.2858C11.7211 44.8405 13.6811 42.9915 15.8259 40.5878C17.9708 38.1471 20.1896 34.9668 20.0787 34.7079C19.9677 34.486 16.6765 35.8543 14.4207 38.4059C12.1279 40.9206 10.8336 43.7681 11.2774 44.2858Z" fill="#343943"></path> <path d="M15.4561 29.6046C16.0848 29.6786 17.2682 27.09 18.4515 23.9097C19.5979 20.7294 20.4855 16.8835 20.3375 16.8095C20.0787 16.6986 17.4531 20.1377 16.2327 23.4659C15.0124 26.7941 14.8645 29.5307 15.4561 29.6046Z" fill="#343943"></path> <path d="M17.3052 31.0099C17.6011 31.6386 19.672 30.4552 22.0757 28.8281C24.4794 27.164 26.994 24.7603 26.9571 24.5384C26.9201 24.3165 23.7028 24.7973 21.2251 26.5353C18.7475 28.2364 17.0464 30.4182 17.3052 31.0099Z" fill="#343943"></path> <path d="M23.8877 18.8435C24.4424 19.0284 25.9216 17.0314 27.5117 14.4798C29.1019 11.9282 30.4701 8.7109 30.3222 8.63693C30.1373 8.52599 27.2159 10.9297 25.6257 13.6293C23.9986 16.2918 23.3699 18.6586 23.8877 18.8435Z" fill="#343943"></path> <path d="M25.2559 20.5445C25.4038 21.1362 27.4747 20.6184 29.8784 19.657C32.2822 18.6585 34.9817 17.1053 34.9447 16.8834C34.9447 16.6985 32.0233 16.4767 29.5086 17.4381C27.031 18.3996 25.108 19.9528 25.2559 20.5445Z" fill="#343943"></path> <path d="M33.2806 11.1515C33.7244 11.4474 35.3515 10.0051 37.1636 8.08216C38.9386 6.15919 40.6397 3.60756 40.5288 3.49662C40.3808 3.3487 37.4964 4.90187 35.6474 6.97276C33.7614 8.89573 32.8369 10.8927 33.2806 11.1515Z" fill="#343943"></path> <path d="M34.2052 12.8896C34.2422 13.4813 36.1282 13.3703 38.421 13.0375C40.6768 12.6307 43.3024 11.7432 43.3393 11.5583C43.3393 11.3734 40.8247 10.6708 38.458 11.0406C36.0912 11.4104 34.1683 12.3718 34.2052 12.8896Z" fill="#343943"></path> <path d="M42.8215 6.15921C43.1544 6.52902 44.7815 5.53055 46.6305 4.19926C48.4425 2.79402 50.2176 0.908029 50.1436 0.760108C50.0327 0.612187 47.3331 1.49971 45.4841 2.94194C43.5981 4.34719 42.4887 5.82639 42.8215 6.15921Z" fill="#343943"></path> <path d="M43.3762 7.86028C43.3023 8.34102 44.9664 8.67384 47.0003 8.7478C49.0342 8.82176 51.4749 8.48894 51.5119 8.30404C51.5488 8.1931 49.441 7.08369 47.3331 7.04671C45.2252 6.89879 43.4502 7.41652 43.3762 7.86028Z" fill="#343943"></path> <path d="M51.9187 3.49666C52.1776 3.82948 53.6568 3.27478 55.3948 2.42423C57.0959 1.49973 58.834 0.168442 58.797 0.020521C58.723 -0.0904195 56.3193 0.242404 54.5813 1.16691C52.8062 2.01745 51.6968 3.20082 51.9187 3.49666Z" fill="#343943"></path> <path d="M52.1776 5.04982C52.0666 5.49358 53.4349 5.93735 55.173 6.38111C56.911 6.71393 59.0559 6.82487 59.1298 6.63997C59.2038 6.52903 57.4657 5.30868 55.6537 4.93888C53.8787 4.49512 52.2885 4.64304 52.1776 5.04982Z" fill="#343943"></path> <path d="M55.3948 3.64463C55.4688 4.05142 56.874 4.12538 58.5751 3.97746C60.2762 3.79256 62.2361 3.16389 62.2361 3.01597C62.2361 2.86805 60.2392 2.31335 58.4642 2.49825C56.7261 2.64617 55.3578 3.20087 55.3948 3.64463C41.4903 5.3827 28.2514 13.3704 19.2652 25.4999C10.1681 37.5185 5.4346 53.5679 6.24817 69.3954C6.95079 85.2229 13.3484 100.607 23.6658 111.516C33.9093 122.536 47.9988 128.896 62.2361 128.933V126.826C48.4795 126.973 34.7229 120.983 24.6273 110.369C14.4578 99.867 8.02322 84.8901 7.20965 69.3214C6.24817 53.7897 10.7228 37.8883 19.635 25.8327C28.4363 13.7032 41.4903 5.5676 55.3948 3.64463Z" fill="#343943"></path> <path d="M102.566 114.918C102.825 115.103 100.236 120.169 96.0946 122.98C92.0268 125.864 87.7371 126.604 87.2564 125.642C86.7386 124.644 89.9929 122.314 93.8388 119.762C97.7218 117.285 102.27 114.622 102.566 114.918Z" fill="#343943"></path> <path d="M126.64 118.283C126.751 118.727 121.389 123.238 116.323 124.644C111.293 126.123 107.373 125.531 107.484 124.496C107.595 123.386 111.478 122.166 116.249 120.65C120.982 119.245 126.566 117.95 126.64 118.283Z" fill="#343943"></path> <path d="M106.079 120.835C105.34 120.132 107.521 116.915 110.184 113.18C112.884 109.519 116.286 105.525 116.619 105.673C116.914 105.747 116.027 111.22 113.142 115.177C110.332 119.208 106.782 121.5 106.079 120.835Z" fill="#343943"></path> <path d="M138.991 100.385C139.213 100.754 135.663 106.523 131.558 109.482C127.491 112.514 123.904 113.365 123.719 112.403C123.497 111.405 126.603 108.927 130.412 105.969C134.184 103.084 138.844 100.126 138.991 100.385Z" fill="#343943"></path> <path d="M121.426 109.63C120.575 109.297 121.611 105.636 122.979 101.42C124.421 97.2044 126.381 92.5079 126.714 92.4709C127.01 92.4709 127.602 97.6111 126.159 102.16C124.717 106.671 122.276 109.963 121.426 109.63Z" fill="#343943"></path> <path d="M135.552 44.2858C135.109 44.8405 133.149 42.9915 131.004 40.5878C128.859 38.1471 126.64 34.9668 126.751 34.7079C126.862 34.486 130.153 35.8543 132.409 38.4059C134.702 40.9206 135.996 43.7681 135.552 44.2858Z" fill="#343943"></path> <path d="M131.374 29.6046C130.745 29.6786 129.562 27.09 128.378 23.9097C127.232 20.7294 126.344 16.8835 126.492 16.8095C126.751 16.6986 129.377 20.1377 130.597 23.4659C131.817 26.7941 131.965 29.5307 131.374 29.6046Z" fill="#343943"></path> <path d="M129.525 31.0099C129.229 31.6386 127.158 30.4552 124.754 28.8281C122.351 27.164 119.836 24.7603 119.873 24.5384C119.91 24.3165 123.127 24.7973 125.605 26.5353C128.082 28.2364 129.784 30.4182 129.525 31.0099Z" fill="#343943"></path> <path d="M122.942 18.8435C122.388 19.0284 120.908 17.0314 119.318 14.4798C117.728 11.9282 116.36 8.7109 116.508 8.63693C116.693 8.52599 119.614 10.9297 121.204 13.6293C122.831 16.2918 123.46 18.6586 122.942 18.8435Z" fill="#343943"></path> <path d="M121.574 20.5445C121.426 21.1362 119.355 20.6184 116.951 19.657C114.548 18.6585 111.848 17.1053 111.885 16.8834C111.885 16.6985 114.807 16.4767 117.321 17.4381C119.799 18.3996 121.722 19.9528 121.574 20.5445Z" fill="#343943"></path> <path d="M113.549 11.1515C113.105 11.4474 111.478 10.0051 109.666 8.08216C107.891 6.15919 106.19 3.60756 106.301 3.49662C106.449 3.3487 109.333 4.90187 111.182 6.97276C113.068 8.89573 113.993 10.8927 113.549 11.1515Z" fill="#343943"></path> <path d="M112.625 12.8896C112.588 13.4813 110.702 13.3703 108.409 13.0375C106.153 12.6307 103.528 11.7432 103.491 11.5583C103.491 11.3734 106.005 10.6708 108.372 11.0406C110.739 11.4104 112.662 12.3718 112.625 12.8896Z" fill="#343943"></path> <path d="M104.008 6.15921C103.676 6.52902 102.048 5.53055 100.199 4.19926C98.3874 2.79402 96.6123 0.908029 96.6863 0.760108C96.7972 0.612187 99.4968 1.49971 101.346 2.94194C103.232 4.34719 104.341 5.82639 104.008 6.15921Z" fill="#343943"></path> <path d="M103.454 7.86028C103.528 8.34102 101.864 8.67384 99.8296 8.7478C97.7957 8.82176 95.355 8.48894 95.318 8.30404C95.2811 8.1931 97.3889 7.08369 99.4968 7.04671C101.605 6.89879 103.38 7.41652 103.454 7.86028Z" fill="#343943"></path> <path d="M94.9113 3.49666C94.6524 3.82948 93.1732 3.27478 91.4351 2.42423C89.734 1.49973 87.996 0.168442 88.0329 0.020521C88.1069 -0.0904195 90.5106 0.242404 92.2487 1.16691C94.0237 2.01745 95.1331 3.20082 94.9113 3.49666Z" fill="#343943"></path> <path d="M94.6523 5.04982C94.7633 5.49358 93.395 5.93735 91.6569 6.38111C89.9189 6.71393 87.774 6.82487 87.7001 6.63997C87.6261 6.52903 89.3642 5.30868 91.1762 4.93888C92.9512 4.49512 94.5414 4.64304 94.6523 5.04982Z" fill="#343943"></path> <path d="M91.4352 3.64463C91.3612 4.05142 89.9559 4.12538 88.2549 3.97746C86.5538 3.79256 84.5938 3.16389 84.5938 3.01597C84.5938 2.86805 86.5907 2.31335 88.3658 2.49825C90.1039 2.64617 91.4721 3.20087 91.4352 3.64463C105.34 5.3827 118.579 13.3704 127.565 25.4999C136.662 37.5185 141.395 53.5679 140.582 69.3954C139.879 85.2229 133.482 100.607 123.164 111.516C112.921 122.536 98.8312 128.896 84.5938 128.933V126.826C98.3504 126.973 112.107 120.983 122.203 110.369C132.372 99.867 138.807 84.8901 139.62 69.3214C140.582 53.7897 136.107 37.8883 127.195 25.8327C118.394 13.7032 105.34 5.5676 91.4352 3.64463Z" fill="#343943"></path> </g> <defs> <filter id="filter0_d" x="-74.0631" y="-111.15" width="292.354" height="356.724" filterUnits="userSpaceOnUse" color-interpolation-filters="sRGB"> <feFlood flood-opacity="0" result="BackgroundImageFix"></feFlood> <feColorMatrix in="SourceAlpha" type="matrix" values="0 0 0 0 0 0 0 0 0 0 0 0 0 0 0 0 0 0 127 0"></feColorMatrix> <feOffset dy="5.46873"></feOffset> <feGaussianBlur stdDeviation="68.3591"></feGaussianBlur> <feColorMatrix type="matrix" values="0 0 0 0 0.0470588 0 0 0 0 0.870588 0 0 0 0 0.27451 0 0 0 0.49 0"></feColorMatrix> <feBlend mode="normal" in2="BackgroundImageFix" result="effect1_dropShadow"></feBlend> <feBlend mode="normal" in="SourceGraphic" in2="effect1_dropShadow" result="shape"></feBlend> </filter> <clipPath id="clip0"> <rect width="127.482" height="121" fill="white" transform="translate(0.517883)"></rect> </clipPath> </defs> </svg> 