<?xml version="1.0" encoding="UTF-8"?> <svg xmlns="http://www.w3.org/2000/svg" width="264" height="322" viewBox="0 0 264 322" fill="none"> <path d="M88.9776 143.586H100.709V139.024H97.1241V97.9652H93.5397C93.5397 99.7901 92.9531 101.289 91.8452 102.462C90.7372 103.635 89.4338 104.157 88 104.157V107.415C88.7169 107.415 89.3686 107.35 89.89 107.22C90.4114 107.089 90.8024 106.959 91.1934 106.764C91.5845 106.633 91.9755 106.372 92.2362 106.112H92.5621V139.024H88.9776V143.586ZM120.265 102.527H128.412V97.9652H115.703V143.586H120.265V102.527ZM139.848 140.001C138.088 140.001 137.241 139.024 137.241 137.069V104.482C137.241 102.527 138.088 101.55 139.848 101.55C141.542 101.55 142.455 102.527 142.455 104.482V137.069C142.455 139.024 141.542 140.001 139.848 140.001ZM139.848 96.9877C137.697 96.9877 135.937 97.7046 134.634 99.008C133.33 100.377 132.679 102.201 132.679 104.482V137.069C132.679 139.415 133.33 141.24 134.634 142.543C135.937 143.912 137.697 144.564 139.848 144.564C141.933 144.564 143.693 143.912 144.996 142.543C146.3 141.24 147.017 139.415 147.017 137.069V104.482C147.017 102.201 146.3 100.377 144.996 99.008C143.693 97.7046 141.933 96.9877 139.848 96.9877ZM170.807 139.024H168.526V97.9652H156.143L154.188 133.81C154.123 134.657 153.993 135.374 153.732 136.026C153.471 136.678 153.211 137.199 152.95 137.655C152.624 138.177 152.298 138.633 151.907 139.024H151.255V149.126H155.817V143.586H166.245V149.126H170.807V139.024ZM156.795 138.698C157.121 138.372 157.447 137.981 157.707 137.46C157.903 137.069 158.099 136.612 158.359 135.961C158.555 135.374 158.685 134.657 158.75 133.81L160.38 102.527H163.964V139.024H156.795V138.698Z" fill="#34343F"></path> <path d="M171.003 306.086V260.666C166.458 262.106 162.208 264.348 158.455 267.288L150.276 274.257C144.986 278.597 138.354 280.969 131.512 280.969C124.669 280.969 118.037 278.597 112.747 274.257L104.545 267.288C101.152 264.598 97.3249 262.508 93.228 261.108V306.132L133.01 291.774L171.003 306.086ZM175.07 311.963L132.987 296.165L89.0918 311.963V259.784C87.1851 259.238 85.2444 258.819 83.2825 258.529V321.977L132.987 303.507L180.949 321.977V258.39C178.984 258.619 177.035 258.976 175.116 259.458L175.07 311.963Z" fill="#34343F"></path> <path d="M131.5 21.6999C108.681 21.6999 86.3751 28.465 67.4021 41.1396C48.4291 53.8143 33.6414 71.8292 24.909 92.9064C16.1767 113.984 13.8919 137.176 18.3436 159.552C22.7953 181.927 33.7836 202.48 49.9188 218.612C66.0541 234.744 86.6116 245.73 108.992 250.18C131.372 254.631 154.57 252.347 175.652 243.616C196.733 234.886 214.752 220.102 227.429 201.133C240.107 182.164 246.873 159.862 246.873 137.048C246.843 106.465 234.677 77.144 213.047 55.5186C191.417 33.8933 162.09 21.7306 131.5 21.6999ZM131.5 248.54C109.44 248.54 87.8748 242 69.5322 229.747C51.1897 217.493 36.8935 200.077 28.4513 179.7C20.0092 159.323 17.8003 136.901 22.1041 115.27C26.4079 93.6378 37.0309 73.7677 52.63 58.172C68.229 42.5763 88.1034 31.9556 109.74 27.6527C131.376 23.3499 153.803 25.5583 174.184 33.9986C194.565 42.4389 211.985 56.7321 224.241 75.0706C236.498 93.4092 243.039 114.97 243.039 137.025C243.039 166.601 231.288 194.965 210.37 215.878C189.452 236.791 161.082 248.54 131.5 248.54ZM257.307 154.333C253.333 143.144 253.333 130.929 257.307 119.74L261.466 109.843C263.326 105.01 263.466 99.684 261.862 94.7598C260.259 89.8356 257.009 85.6129 252.659 82.8009L243.365 77.1787C233.593 70.4838 226.409 60.6451 223.009 49.2999L220.522 38.7989C219.186 33.7925 216.168 29.3978 211.975 26.3522C207.782 23.3065 202.669 21.7951 197.494 22.0716L186.735 22.9544C174.866 23.2717 163.248 19.4984 153.831 12.2676L145.628 5.29787C141.606 2.03842 136.585 0.259766 131.407 0.259766C126.229 0.259766 121.209 2.03842 117.186 5.29787L109.006 12.2676C99.5805 19.4984 87.9556 23.2714 76.079 22.9544L65.3202 22.0716C60.1466 21.8039 55.0378 23.3186 50.8467 26.3629C46.6557 29.4073 43.636 33.7969 42.292 38.7989L39.8056 49.2999C36.4234 60.6476 29.2454 70.4896 19.4729 77.1787L10.178 82.8009C5.86444 85.6431 2.65573 89.8777 1.08692 94.7987C-0.481893 99.7198 -0.315994 105.03 1.55696 109.843L5.6932 119.81C9.6669 130.999 9.6669 143.214 5.6932 154.403L1.55696 164.3C-0.302094 169.135 -0.444032 174.461 1.15489 179.388C2.75381 184.315 5.9966 188.543 10.3407 191.366L19.6356 196.965C29.4081 203.654 36.5861 213.496 39.9683 224.843L42.4546 235.344C43.7987 240.346 46.8183 244.736 51.0094 247.78C55.2005 250.825 60.3093 252.339 65.4828 252.072L76.2417 251.189C88.1225 250.869 99.7507 254.651 109.169 261.899L117.349 268.869C121.371 272.128 126.392 273.907 131.57 273.907C136.748 273.907 141.768 272.128 145.791 268.869L153.994 261.899C163.404 254.653 175.024 250.871 186.898 251.189L197.657 252.072C202.832 252.348 207.945 250.837 212.138 247.791C216.331 244.745 219.349 240.351 220.685 235.344L223.171 224.843C226.571 213.498 233.755 203.659 243.527 196.965L252.822 191.366C257.174 188.549 260.424 184.323 262.027 179.395C263.631 174.466 263.49 169.137 261.629 164.3L257.307 154.333ZM131.5 257.183C107.732 257.169 84.5017 250.109 64.7463 236.897C44.9909 223.685 29.5976 204.912 20.5125 182.954C11.4275 160.995 9.05879 136.837 13.7058 113.532C18.3529 90.228 29.8071 68.8245 46.6201 52.0281C63.4332 35.2316 84.8501 23.7965 108.163 19.1685C131.476 14.5404 155.638 16.9273 177.594 26.0274C199.55 35.1274 218.315 50.532 231.515 70.2933C244.715 90.0547 251.758 113.285 251.753 137.048C251.716 168.915 239.032 199.464 216.485 221.988C193.939 244.512 163.373 257.17 131.5 257.183Z" fill="#34343F"></path> <path d="M131.5 216.432C115.79 216.432 100.433 211.775 87.3714 203.048C74.3095 194.322 64.1293 181.918 58.1185 167.407C52.1077 152.896 50.5362 136.928 53.6027 121.524C56.6692 106.12 64.236 91.9706 75.3462 80.8661C86.4563 69.7616 100.611 62.2006 116.019 59.1392C131.428 56.0779 147.398 57.6537 161.911 63.6675C176.423 69.6813 188.826 79.8628 197.551 92.9245C206.275 105.986 210.93 121.341 210.925 137.048C210.901 158.098 202.524 178.279 187.634 193.162C172.743 208.045 152.555 216.414 131.5 216.432ZM131.5 62.2395C116.701 62.2395 102.235 66.6269 89.9299 74.8469C77.6252 83.0669 68.0348 94.7504 62.3715 108.42C56.7082 122.089 55.2265 137.131 58.1136 151.642C61.0007 166.153 68.127 179.483 78.5913 189.945C89.0557 200.407 102.388 207.532 116.903 210.418C131.417 213.305 146.462 211.823 160.134 206.161C173.806 200.499 185.492 190.911 193.714 178.609C201.936 166.307 206.324 151.843 206.324 137.048C206.306 117.213 198.417 98.1959 184.388 84.1706C170.36 70.1454 151.339 62.2579 131.5 62.2395Z" fill="#34343F"></path> <path d="M228.655 142.367C228.864 142.367 229.073 142.367 229.073 142.205C229.073 142.042 228.888 141.926 228.655 141.949C228.423 141.972 228.655 142.205 228.655 142.367Z" fill="#34343F"></path> <path d="M238.485 135.398H237.625C237.609 135.435 237.602 135.474 237.602 135.514C237.602 135.554 237.609 135.593 237.625 135.63C237.346 135.63 237.369 135.491 237.439 135.375H235.812C235.812 135.56 235.812 135.746 236.207 135.677C236.602 135.607 235.882 135.909 235.882 136.165C235.882 136.42 235.882 136.002 235.696 136.002C235.51 136.002 235.51 136.234 235.696 136.257C235.882 136.281 235.417 136.257 235.464 136.49C235.276 136.083 235.05 135.694 234.79 135.328H234.023C233.814 135.328 233.767 135.491 233.605 135.328V135.909C233.442 135.909 233.396 135.909 233.279 135.909C233.183 136.207 233.042 136.489 232.861 136.745C232.141 136.745 231.955 136.048 231.862 135.328C231.884 135.318 231.908 135.312 231.932 135.312C231.956 135.312 231.98 135.318 232.001 135.328H229.678L229.19 134.027C229.19 134.027 229.19 134.027 229.073 134.236C228.957 134.445 229.073 134.236 229.073 134.236C229.073 134.236 228.911 134.236 228.818 134.236C228.95 134.437 228.998 134.681 228.95 134.916C228.902 135.152 228.762 135.358 228.562 135.491C228.725 135.793 228.795 135.328 228.981 135.491C228.725 135.886 229.19 136.072 228.981 136.42C228.771 136.769 228.981 136.42 229.236 136.42C229.492 136.42 229.236 136.629 229.236 136.815C229.236 137.001 229.073 136.978 229.05 137.326C228.774 136.919 228.471 136.531 228.144 136.165C227.935 136.165 227.981 136.443 227.726 136.42C227.888 136.257 227.726 136.165 227.726 136.002C227.467 135.976 227.207 136.033 226.982 136.165C226.982 136.165 227.168 136.165 227.145 136.42C227.122 136.676 226.75 135.979 226.401 135.909C226.657 135.607 226.401 134.98 226.889 135.166C226.889 134.84 226.68 134.771 226.401 134.747C226.122 134.724 226.68 134.747 226.564 134.329C226.699 134.375 226.846 134.375 226.982 134.329C226.982 134.329 226.982 134.143 226.982 134.167C226.927 134.037 226.848 133.919 226.75 133.818C227.005 133.818 226.982 133.957 227.238 133.655C227.238 133.911 227.447 134.259 227.238 134.399C227.337 134.556 227.483 134.678 227.656 134.747C227.795 134.747 227.842 134.608 227.819 134.399C228.423 134.678 228.353 133.934 228.957 134.004V133.865C228.86 133.894 228.757 133.899 228.657 133.882C228.557 133.864 228.462 133.823 228.381 133.762C228.3 133.701 228.234 133.621 228.189 133.53C228.143 133.439 228.12 133.339 228.121 133.237C228.336 133.199 228.556 133.199 228.771 133.237L227.842 130.682C227.842 130.682 227.842 130.682 227.702 130.682L226.262 126.709L226.029 127.406C226.285 127.824 225.704 127.987 226.029 128.08C225.915 128.106 225.795 128.106 225.681 128.08L225.286 129.172C225.588 129.172 225.936 129.357 225.96 129.729C225.96 129.729 225.797 129.729 225.797 129.892C225.797 130.054 225.425 129.706 225.216 129.613L223.45 134.469L223.078 135.491H221.428C221.893 135.886 221.847 136.815 222.474 137.024C222.429 137.081 222.399 137.149 222.387 137.22C222.376 137.292 222.384 137.366 222.409 137.434C222.435 137.502 222.478 137.562 222.534 137.608C222.591 137.655 222.658 137.686 222.73 137.698C222.497 137.837 222.335 138.023 222.056 137.86C221.777 137.698 222.218 137.86 222.311 137.86C221.872 137.55 221.338 137.403 220.801 137.442C220.336 137.14 220.801 136.676 220.22 136.513C220.22 136.513 220.731 136.234 220.638 136.513C220.871 136.513 220.638 136.257 220.801 135.839C220.995 135.813 221.175 135.723 221.312 135.584L213.783 135.398L221.196 141.183L218.733 149.732V149.941V150.22L225.472 145.574C225.326 145.571 225.185 145.525 225.065 145.442C224.945 145.36 224.852 145.244 224.798 145.109C225.152 145.147 225.502 145.217 225.843 145.318L226.517 144.853L226.982 145.179C227.354 145.016 227.656 145.504 228.144 145.667C228.129 145.735 228.129 145.807 228.144 145.876L228.678 146.247C228.818 146.297 228.945 146.376 229.05 146.48L230.189 147.27C230.189 147.13 230.328 147.037 230.328 147.27C230.371 147.263 230.412 147.244 230.445 147.215C230.478 147.186 230.502 147.149 230.514 147.107C230.514 147.107 230.305 147.107 230.166 147.107C230.026 147.107 230.026 146.851 230.166 146.596C230.578 146.689 230.998 146.743 231.42 146.758C231.42 147.014 231.235 147.13 231.165 147.339C231.095 147.548 231.397 148.222 231.839 148.362C231.839 147.827 232.489 147.897 232.745 148.362C232.742 148.593 232.695 148.822 232.606 149.035L233.186 149.43C233.186 149.43 233.186 149.43 233.326 149.43C233.465 149.43 233.326 149.43 233.326 149.593L233.884 149.988C233.884 149.988 233.884 149.848 233.721 149.848C233.558 149.848 234.116 149.686 234.139 149.43L233.326 146.642C233.265 146.659 233.201 146.659 233.14 146.642H233.303L233.163 146.131L232.768 144.76C232.768 144.76 232.466 144.598 232.513 144.342C232.572 144.319 232.639 144.319 232.698 144.342L232.094 142.182H231.769C231.769 141.973 231.513 141.671 231.769 141.601C232.025 141.531 231.769 141.601 231.769 141.601C231.769 141.601 231.769 141.601 231.932 141.601V141.392C231.932 141.392 231.815 141.392 231.746 141.392C231.676 141.392 231.885 140.997 231.746 140.904C231.606 140.811 231.537 141.183 231.235 141.136C230.932 141.09 230.863 140.648 231.235 140.393C231.025 139.789 230.398 139.998 230.212 139.556C230.107 139.596 229.992 139.596 229.887 139.556C229.887 139.556 229.887 139.975 229.724 140.137C229.561 140.3 229.864 140.137 229.98 140.137C230.096 140.137 229.817 140.137 229.817 140.393C229.817 140.648 229.817 140.741 230.212 141.159C230.375 140.974 230.491 141.159 230.561 140.974C230.71 141.208 230.873 141.433 231.049 141.647C230.421 141.647 230.677 142.182 230.561 142.391C230.049 142.205 229.585 142.6 229.213 142.809C229.073 142.6 229.073 142.809 228.888 142.646C228.702 142.484 228.888 142.925 228.725 142.995C228.647 142.95 228.559 142.926 228.469 142.926C228.38 142.926 228.291 142.95 228.214 142.995C228.214 142.693 228.33 142.67 228.214 142.391H228.539C228.452 142.373 228.37 142.333 228.302 142.276C228.234 142.218 228.181 142.144 228.149 142.061C228.116 141.978 228.105 141.888 228.117 141.8C228.128 141.711 228.161 141.627 228.214 141.554C228.214 141.392 227.842 141.554 227.795 141.392C227.749 141.229 227.935 141.113 227.795 140.811C227.734 140.717 227.646 140.642 227.543 140.597C227.44 140.552 227.326 140.537 227.214 140.555C227.214 140.346 227.075 140.3 227.214 140.137C226.564 140.137 226.796 139.696 226.378 139.394C226.378 139.394 226.517 139.394 226.634 139.394C226.75 139.394 226.424 139.208 226.215 139.231C226.138 139.299 226.081 139.388 226.053 139.487C225.886 139.54 225.708 139.54 225.541 139.487C225.541 138.952 225.843 138.906 225.96 138.581C226.076 138.255 226.239 138.813 226.308 138.581C226.424 138.813 226.308 138.906 226.634 138.906C226.494 139.069 226.494 138.906 226.634 139.231C226.773 139.556 226.773 139.231 226.796 139.069C226.796 139.324 227.075 139.44 227.214 139.649C227.54 139.464 227.772 139.649 228.051 139.394C228.33 139.138 227.749 139.394 228.051 139.069C228.353 138.743 228.19 139.44 228.051 139.487C228.376 139.696 228.562 139.045 228.795 138.906C229.027 139.162 229.399 138.906 229.538 139.231C230.026 138.674 229.329 137.953 230.119 137.814C230.259 138.07 230.119 138.139 230.119 138.488C229.91 138.488 229.724 138.488 229.701 138.65C229.678 138.813 230.142 138.534 230.212 138.395C230.282 138.255 230.375 138.627 230.537 138.65C230.235 139.022 230.886 139.022 230.537 139.324C230.956 139.324 231.467 139.324 231.537 138.813C231.606 138.302 231.235 138.813 231.374 138.395C231.676 138.65 231.955 138.395 232.443 138.395C232.443 137.977 232.164 138.395 232.21 138.07C232.257 137.744 232.675 138.07 232.629 137.721C232.861 138 233.117 137.535 233.279 137.721C233.094 137.256 233.721 136.954 233.791 136.467C233.791 136.467 233.791 136.954 233.791 137.14C233.791 137.326 234.046 137.14 234.046 136.978C234.418 137.117 234.046 137.419 233.86 137.489C234.093 137.977 234.697 138.813 235.371 138.325C235.383 138.35 235.39 138.378 235.39 138.406C235.39 138.435 235.383 138.462 235.371 138.488L236.045 137.977C236.045 137.977 235.859 137.977 235.719 137.977C235.58 137.977 235.719 137.698 235.533 137.721C235.348 137.744 235.743 137.535 235.952 137.558C236.161 137.582 236.231 137.86 236.207 137.721C236.184 137.582 236.207 137.721 236.207 137.86L238.531 136.072C238.531 136.072 238.531 136.072 238.531 135.955C238.564 135.865 238.576 135.768 238.568 135.672C238.56 135.575 238.532 135.482 238.485 135.398Z" fill="#34343F"></path> <path d="M227.238 132.238C227.447 132.238 227.238 132.773 226.912 132.633C226.587 132.494 227.168 132.401 227.238 132.238Z" fill="#34343F"></path> <path d="M219.058 139.069C218.803 139.069 219.058 138.65 218.733 138.743C218.872 138.372 218.733 138.743 219.151 138.743C219.569 138.743 219.035 138.906 219.058 139.069Z" fill="#34343F"></path> <path d="M224.24 145.248C224.371 145.226 224.504 145.226 224.635 145.248C224.496 145.387 224.426 145.248 224.24 145.248Z" fill="#34343F"></path> <path d="M232.164 145.573C232.164 145.829 232.164 145.899 232.164 146.085C232.164 146.27 232.164 145.899 232.001 145.759C231.769 146.131 231.862 146.224 231.746 146.665C231.63 147.107 232.001 146.665 232.164 146.665C232.327 146.665 231.908 147.014 232.164 147.084C232.42 147.153 231.908 147.084 231.908 147.339C231.833 147.298 231.769 147.238 231.724 147.164C231.679 147.091 231.655 147.007 231.653 146.921C231.749 146.994 231.835 147.08 231.908 147.177C231.908 147.177 231.908 146.921 232.071 146.758C232.234 146.596 231.606 146.758 231.49 146.991C231.374 147.223 231.653 147.177 231.49 147.409C231.328 147.641 231.258 147.409 231.072 147.409C231.513 147.409 231.351 146.294 230.886 146.317C231.281 145.899 231.467 145.388 232.164 145.573Z" fill="#34343F"></path> <path d="M225.75 142.995C225.75 142.833 225.96 142.763 226.169 142.74C226.093 142.672 226.006 142.618 225.913 142.577C225.913 142.368 226.192 142.577 226.238 142.577C226.285 142.577 226.238 142.833 225.983 142.903C225.727 142.972 226.285 143.112 226.401 143.251C226.374 143.334 226.374 143.424 226.401 143.507C226.076 143.507 226.146 143.019 225.82 143.321C225.82 143.181 226.029 143.065 225.75 142.995Z" fill="#34343F"></path> <path d="M228.167 138.65C227.958 138.65 227.563 138.371 227.749 138.162C227.935 137.953 227.749 138.162 227.586 138.162C227.424 138.162 227.865 138.162 227.912 138.162C227.958 138.162 227.912 138.58 227.912 138.58C227.912 138.58 227.912 138.58 227.912 138.325C227.912 138.069 227.912 138.511 228.144 138.488C228.145 138.542 228.153 138.597 228.167 138.65Z" fill="#34343F"></path> <path d="M229.84 137.302C229.678 137.302 229.608 137.302 229.585 137.488C229.561 137.674 229.585 137.209 229.259 137.302C229.308 137.128 229.387 136.963 229.492 136.814C229.654 136.814 229.678 136.814 229.84 136.814C230.003 136.814 229.817 137.116 229.84 137.302Z" fill="#34343F"></path> <path d="M231.327 138.488C231.142 138.302 231.583 138.069 231.746 137.977C231.792 138.325 231.397 138.232 231.327 138.488Z" fill="#34343F"></path> <path d="M233.581 139.324C233.163 139.324 233.233 138.789 232.931 138.65C232.976 138.537 233.03 138.428 233.094 138.325C233.03 138.242 232.94 138.184 232.838 138.162C232.739 138.398 232.689 138.65 232.689 138.906C232.689 139.161 232.739 139.413 232.838 139.649C232.838 139.649 232.582 139.649 232.582 139.812C232.582 139.974 232.838 139.812 232.838 139.812C232.889 139.849 232.931 139.898 232.959 139.954C232.987 140.011 233.001 140.074 233.001 140.137L233.535 139.719C233.588 139.704 233.644 139.704 233.698 139.719H233.837C233.837 139.603 233.837 139.486 234 139.463C234.162 139.44 234 139.463 234 139.3C234 139.138 233.814 139.347 233.581 139.324Z" fill="#34343F"></path> <path d="M233.001 140.044C233.001 140.044 233.001 140.044 233.001 139.882C233.001 139.719 232.722 139.882 232.745 140.137C232.768 140.393 232.582 139.858 232.327 139.882C232.384 139.993 232.414 140.116 232.414 140.242C232.414 140.367 232.384 140.49 232.327 140.602L233.001 140.044Z" fill="#34343F"></path> <path d="M33.3223 142.367C33.1132 142.367 32.9041 142.367 32.9041 142.205C32.9041 142.042 33.09 141.926 33.3223 141.949C33.5547 141.972 33.3223 142.205 33.3223 142.367Z" fill="#34343F"></path> <path d="M23.5626 135.399H24.4224C24.4377 135.436 24.4456 135.475 24.4456 135.515C24.4456 135.555 24.4377 135.595 24.4224 135.631C24.7013 135.631 24.678 135.492 24.6083 135.376H26.2349C26.2349 135.562 26.2349 135.748 25.8399 135.678C25.4448 135.608 26.1652 135.91 26.1652 136.166C26.1652 136.421 26.1652 136.003 26.3279 136.003C26.4905 136.003 26.537 136.235 26.3279 136.259C26.1187 136.282 26.63 136.259 26.5835 136.491C26.7715 136.084 26.9971 135.695 27.2574 135.329H28.0242C28.2333 135.329 28.2798 135.492 28.4425 135.329V135.91C28.6051 135.91 28.6516 135.91 28.7678 135.91C28.8646 136.208 29.0056 136.49 29.1861 136.747C29.9064 136.747 30.0923 136.05 30.1853 135.329C30.1635 135.319 30.1397 135.314 30.1155 135.314C30.0914 135.314 30.0676 135.319 30.0458 135.329H32.3696L32.8575 134.028C32.8575 134.028 32.8576 134.028 32.9737 134.237C33.0899 134.447 32.9737 134.237 32.9737 134.237C32.9737 134.237 33.1364 134.237 33.2293 134.237C33.097 134.438 33.0496 134.682 33.0976 134.918C33.1455 135.153 33.2848 135.359 33.485 135.492C33.3223 135.794 33.2526 135.329 33.0667 135.492C33.3223 135.887 32.8575 136.073 33.0667 136.421C33.2758 136.77 32.9505 136.421 32.8111 136.421C32.6717 136.421 32.8111 136.63 32.8111 136.816C32.8111 137.002 32.9737 136.979 32.997 137.327C33.2655 136.915 33.5687 136.527 33.9032 136.166C34.1124 136.166 34.0659 136.445 34.3215 136.421C34.1588 136.259 34.3215 136.166 34.3215 136.003C34.5803 135.977 34.8406 136.034 35.0651 136.166C35.0651 136.166 34.8792 136.166 34.9024 136.421C34.9257 136.677 35.2975 135.98 35.646 135.91C35.3904 135.608 35.646 134.981 35.158 135.167C35.158 134.841 35.3672 134.772 35.646 134.749C35.9249 134.725 35.3672 134.749 35.4834 134.33C35.3477 134.376 35.2007 134.376 35.0651 134.33C35.0651 134.33 35.0651 134.145 35.0651 134.168C35.1203 134.038 35.1991 133.92 35.2975 133.819C35.0419 133.819 35.0651 133.959 34.8095 133.657C34.8095 133.912 34.6003 134.261 34.8095 134.4C34.7103 134.557 34.5639 134.679 34.3912 134.749C34.2518 134.749 34.2053 134.609 34.2286 134.4C33.6244 134.679 33.6941 133.935 33.0899 134.005V133.866C33.1874 133.895 33.2902 133.901 33.3903 133.883C33.4904 133.865 33.5849 133.824 33.6662 133.763C33.7476 133.702 33.8135 133.623 33.8587 133.532C33.9039 133.44 33.9271 133.34 33.9265 133.238C33.7365 133.148 33.5319 133.093 33.3223 133.076L34.2518 130.52C34.2518 130.52 34.368 130.52 34.3912 130.52L35.646 126.292L35.8784 126.989C35.6228 127.407 36.2037 127.57 35.8784 127.663C35.993 127.689 36.1123 127.689 36.227 127.663L36.622 128.755C36.3199 128.755 35.9714 128.94 35.9481 129.312C35.9481 129.312 36.1108 129.312 36.1108 129.475C36.1108 129.637 36.4826 129.289 36.6917 129.196L38.4577 134.052C38.4577 134.052 38.4577 134.052 38.5739 134.052L38.9457 135.074H40.5956C40.1308 135.469 40.1773 136.398 39.5499 136.607C39.5954 136.664 39.6254 136.732 39.6367 136.803C39.6481 136.875 39.6405 136.949 39.6146 137.017C39.5888 137.085 39.5457 137.145 39.4895 137.191C39.4333 137.238 39.366 137.269 39.2943 137.281C39.5267 137.42 39.6661 137.606 39.9682 137.443C40.2703 137.281 39.8055 137.443 39.7126 137.443C40.1524 137.133 40.6863 136.986 41.223 137.025C41.6877 136.723 41.223 136.259 41.8039 136.096C41.8039 136.096 41.2927 135.817 41.3856 136.096C41.1533 136.096 41.2695 135.84 41.223 135.422C41.029 135.396 40.8491 135.306 40.7118 135.167L48.3336 135.422L40.9209 141.207L43.3143 149.803V150.012V150.291L36.5755 145.645C36.721 145.641 36.8624 145.596 36.9822 145.513C37.102 145.431 37.1949 145.315 37.2494 145.18C36.8953 145.218 36.5453 145.288 36.2037 145.389L35.5298 144.924L35.0651 145.25C34.6933 145.087 34.3912 145.575 33.9032 145.737C33.9587 145.796 33.9986 145.868 34.0194 145.947L33.4617 146.318C33.3322 146.373 33.214 146.452 33.1132 146.551L31.9745 147.34C31.9745 147.201 31.8351 147.108 31.8119 147.34C31.773 147.33 31.7375 147.309 31.709 147.281C31.6805 147.252 31.6599 147.217 31.6492 147.178C31.6492 147.178 31.8583 147.178 31.9978 147.178C32.1372 147.178 32.1372 146.922 31.9978 146.667C31.5854 146.76 31.1654 146.814 30.743 146.829C30.743 147.085 30.9289 147.201 30.9986 147.41C31.0683 147.619 30.7662 148.293 30.3247 148.432C30.3247 147.898 29.674 147.968 29.4184 148.432C29.4214 148.664 29.4688 148.893 29.5579 149.106L28.9537 149.501C28.9537 149.501 28.9537 149.501 28.8375 149.501C28.7213 149.501 28.8375 149.501 28.8375 149.664L28.2798 150.059C28.2798 150.059 28.2798 149.919 28.4425 149.919C28.6051 149.919 28.0474 149.757 28.0242 149.501L28.8375 146.713H29.0234H28.8607L29.0002 146.202L29.3952 144.831C29.3952 144.831 29.6973 144.669 29.6508 144.413C29.591 144.39 29.5247 144.39 29.4649 144.413L30.0691 142.253H30.3944C30.3944 142.043 30.65 141.741 30.3944 141.672C30.1388 141.602 30.3944 141.672 30.3944 141.672C30.3944 141.672 30.2782 141.672 30.2317 141.672V141.463H30.3479C30.3479 141.463 30.4641 141.463 30.5106 141.463C30.5571 141.463 30.3944 141.068 30.5106 140.975C30.6268 140.882 30.7197 141.254 31.0218 141.207C31.3239 141.161 31.3936 140.719 31.0218 140.464C31.2309 139.86 31.8583 140.069 32.0442 139.627C32.0442 139.627 32.2301 139.627 32.3696 139.627C32.509 139.627 32.3696 140.046 32.5322 140.208C32.6949 140.371 32.3928 140.208 32.2766 140.208C32.1604 140.208 32.4393 140.208 32.4393 140.464C32.4393 140.719 32.4393 140.812 32.0442 141.23C31.8816 141.045 31.7654 141.23 31.6957 141.045C31.5463 141.278 31.3834 141.503 31.2077 141.718C31.8351 141.718 31.5795 142.253 31.6957 142.462C32.2069 142.276 32.6717 142.671 33.0434 142.88C33.1829 142.671 33.1829 142.88 33.3688 142.717C33.5547 142.555 33.3688 142.996 33.5314 143.066C33.6091 143.021 33.6973 142.997 33.787 142.997C33.8768 142.997 33.9649 143.021 34.0427 143.066C34.0427 142.764 33.9265 142.74 34.0427 142.462H33.7173C33.8047 142.444 33.8863 142.404 33.9544 142.346C34.0226 142.289 34.0753 142.215 34.1076 142.132C34.14 142.049 34.151 141.959 34.1396 141.87C34.1283 141.782 34.0949 141.698 34.0427 141.625C34.0427 141.463 34.4145 141.625 34.4609 141.463C34.5074 141.3 34.3215 141.184 34.4609 140.882C34.5203 140.785 34.6077 140.709 34.7115 140.663C34.8153 140.618 34.9305 140.605 35.0419 140.626C35.0419 140.417 35.1813 140.371 35.0419 140.208C35.6925 140.208 35.4601 139.767 35.8784 139.465C35.7622 139.465 35.739 139.465 35.6228 139.465C35.5066 139.465 35.8319 139.279 36.0411 139.302C36.1188 139.37 36.1753 139.459 36.2037 139.558C36.37 139.611 36.5487 139.611 36.7149 139.558C36.7149 139.023 36.4129 138.977 36.2967 138.652C36.1805 138.326 36.0178 138.884 35.9481 138.652C35.8319 138.884 36.0643 138.977 35.6228 138.977C35.7622 139.139 35.7622 138.977 35.6228 139.302C35.4834 139.627 35.4834 139.302 35.4601 139.139C35.4601 139.395 35.1813 139.511 35.0419 139.72C34.7165 139.534 34.4842 139.72 34.2053 139.465C33.9265 139.209 34.5074 139.465 34.2053 139.139C33.9032 138.814 34.0427 139.511 34.2053 139.558C33.88 139.767 33.6941 139.116 33.4617 138.977C33.2293 139.232 32.8576 138.977 32.7181 139.302C32.2301 138.745 32.9273 138.024 32.1372 137.885C31.9978 138.14 32.1372 138.21 32.1372 138.559C32.3463 138.559 32.5322 138.559 32.5555 138.721C32.5787 138.884 32.114 138.605 32.0442 138.466C31.9745 138.326 31.8816 138.698 31.7189 138.721C32.021 139.093 31.3704 139.093 31.7189 139.395C31.3006 139.395 30.7894 139.395 30.7197 138.884C30.65 138.373 31.0218 138.884 30.8824 138.466C30.5803 138.721 30.3014 138.466 29.8135 138.466C29.8135 138.048 30.0923 138.466 30.0458 138.14C29.9994 137.815 29.5811 138.14 29.6276 137.792C29.3952 138.071 29.1396 137.606 28.9769 137.792C29.1628 137.327 28.5354 137.025 28.4657 136.537C28.4657 136.537 28.4657 137.025 28.4657 137.211C28.4657 137.397 28.2101 137.211 28.2101 137.049C27.8383 137.188 28.2101 137.49 28.396 137.56C28.1636 138.048 27.5594 138.884 26.8856 138.396C26.8732 138.421 26.8668 138.449 26.8668 138.477C26.8668 138.506 26.8732 138.533 26.8856 138.559L26.3511 137.978C26.3511 137.978 26.537 137.978 26.6764 137.978C26.8158 137.978 26.6764 137.699 26.8623 137.722C27.0482 137.746 26.6532 137.536 26.4208 137.56C26.1884 137.583 26.1652 137.862 26.1884 137.722C26.2117 137.583 26.1884 137.722 26.1884 137.862L23.8647 136.073V135.957C23.7725 135.896 23.6966 135.813 23.644 135.716C23.5913 135.618 23.5633 135.51 23.5626 135.399Z" fill="#34343F"></path> <path d="M34.8095 132.238C34.6003 132.238 34.8095 132.773 35.1348 132.633C35.4601 132.494 34.8792 132.401 34.8095 132.238Z" fill="#34343F"></path> <path d="M42.989 139.069C43.2446 139.069 42.989 138.65 43.3144 138.743C43.1749 138.372 43.3144 138.743 42.8961 138.743C42.4778 138.743 43.0123 138.906 42.989 139.069Z" fill="#34343F"></path> <path d="M37.8071 145.248C37.6763 145.226 37.5428 145.226 37.412 145.248C37.5515 145.387 37.6212 145.248 37.8071 145.248Z" fill="#34343F"></path> <path d="M29.8832 145.573C29.9993 145.829 29.8832 145.899 29.8832 146.085C29.8832 146.27 29.8832 145.899 30.0458 145.759C30.2782 146.131 30.1852 146.224 30.3014 146.665C30.4176 147.107 30.0458 146.665 29.8832 146.665C29.7205 146.665 30.1388 147.014 29.8832 147.084C29.6275 147.153 30.1388 147.084 30.1388 147.339C30.1388 147.595 30.3479 147.107 30.3944 146.921C30.2979 146.994 30.2119 147.08 30.1388 147.177C30.1388 147.177 30.1388 146.921 29.9761 146.758C29.8134 146.596 30.4408 146.758 30.557 146.991C30.6732 147.223 30.3944 147.177 30.557 147.409C30.7197 147.641 30.7894 147.409 30.9753 147.409C30.5338 147.409 30.6965 146.294 31.1612 146.317C30.7662 145.899 30.5803 145.388 29.8832 145.573Z" fill="#34343F"></path> <path d="M36.2966 142.995C36.2966 142.833 36.0875 142.763 35.8784 142.74C35.9543 142.672 36.0406 142.618 36.134 142.577C36.134 142.368 35.8551 142.577 35.8087 142.577C35.7622 142.577 35.9248 142.833 36.0643 142.903C36.2037 142.972 35.7622 143.112 35.646 143.251C35.6727 143.334 35.6727 143.424 35.646 143.507C35.9713 143.507 35.9016 143.019 36.2269 143.321C36.2269 143.181 36.0178 143.065 36.2966 142.995Z" fill="#34343F"></path> <path d="M33.88 138.65C34.0891 138.65 34.4842 138.371 34.2983 138.162C34.1124 137.953 34.2983 138.162 34.4609 138.162C34.6236 138.162 34.1821 138.162 34.1356 138.162C34.0891 138.162 34.1356 138.58 34.1356 138.58C34.1356 138.58 34.1356 138.58 34.1356 138.325C34.1356 138.069 34.1356 138.511 33.9032 138.488C33.9022 138.542 33.8944 138.597 33.88 138.65Z" fill="#34343F"></path> <path d="M32.2069 137.302C32.2651 137.295 32.3238 137.311 32.3712 137.345C32.4186 137.38 32.4512 137.431 32.4625 137.488C32.602 137.488 32.4625 137.209 32.7879 137.302C32.739 137.128 32.6604 136.963 32.5555 136.814C32.3928 136.814 32.3696 136.814 32.2069 136.814C32.0443 136.814 32.2302 137.116 32.2069 137.302Z" fill="#34343F"></path> <path d="M30.6965 138.488C30.9056 138.302 30.4641 138.069 30.3015 137.977C30.255 138.325 30.65 138.232 30.6965 138.488Z" fill="#34343F"></path> <path d="M28.4657 139.324C28.884 139.324 28.8143 138.789 29.1164 138.65C29.1164 138.534 29.0002 138.441 28.9537 138.325C29.0171 138.242 29.1076 138.184 29.2093 138.162C29.3077 138.398 29.3584 138.65 29.3584 138.906C29.3584 139.161 29.3077 139.413 29.2093 139.649C29.2093 139.649 29.4649 139.649 29.4649 139.812C29.4649 139.974 29.2093 139.812 29.2093 139.812C29.1581 139.849 29.1166 139.898 29.0883 139.954C29.06 140.011 29.0457 140.074 29.0467 140.137L28.5122 139.719C28.459 139.704 28.4027 139.704 28.3495 139.719H28.2101C28.2101 139.603 28.2101 139.486 28.0475 139.463C27.8848 139.44 28.0475 139.463 28.0475 139.3C28.0475 139.138 28.2334 139.347 28.4657 139.324Z" fill="#34343F"></path> <path d="M29.0467 140.044C29.0467 140.044 29.0467 140.044 29.0467 139.882C29.0467 139.719 29.3255 139.882 29.3023 140.137C29.2791 140.393 29.465 139.858 29.7206 139.882C29.6635 139.993 29.6337 140.116 29.6337 140.242C29.6337 140.367 29.6635 140.49 29.7206 140.602L29.0467 140.044Z" fill="#34343F"></path> <path d="M175.194 164.229H84.8547L88.41 172.987L84.8547 182.21H175.194L171.639 172.987L175.194 164.229Z" fill="#34343F"></path> <path d="M224.426 116.255C225.953 116.255 227.191 115.017 227.191 113.49C227.191 111.963 225.953 110.726 224.426 110.726C222.899 110.726 221.661 111.963 221.661 113.49C221.661 115.017 222.899 116.255 224.426 116.255Z" fill="#34343F"></path> <path d="M223.38 164.229C224.908 164.229 226.146 162.991 226.146 161.464C226.146 159.937 224.908 158.699 223.38 158.699C221.853 158.699 220.615 159.937 220.615 161.464C220.615 162.991 221.853 164.229 223.38 164.229Z" fill="#34343F"></path> <path d="M38.7831 117.51C40.3103 117.51 41.5484 116.272 41.5484 114.745C41.5484 113.218 40.3103 111.98 38.7831 111.98C37.2559 111.98 36.0179 113.218 36.0179 114.745C36.0179 116.272 37.2559 117.51 38.7831 117.51Z" fill="#34343F"></path> <path d="M39.5035 163.067C41.0307 163.067 42.2687 161.83 42.2687 160.303C42.2687 158.776 41.0307 157.538 39.5035 157.538C37.9763 157.538 36.7382 158.776 36.7382 160.303C36.7382 161.83 37.9763 163.067 39.5035 163.067Z" fill="#34343F"></path> <path d="M95.0978 168.394H101.561V170.047H97.104V178H95.0978V168.394ZM105.442 168.394H107.736L111.134 178H108.951L108.337 176.02H104.789L104.122 178H102.005L105.442 168.394ZM105.325 174.36H107.775L106.579 170.557H106.553L105.325 174.36ZM112.506 168.394H116.871C117.381 168.394 117.823 168.464 118.198 168.603C118.577 168.743 118.891 168.945 119.139 169.211C119.387 169.477 119.572 169.799 119.694 170.178C119.816 170.557 119.877 170.988 119.877 171.472C119.877 171.921 119.805 172.334 119.662 172.713C119.518 173.088 119.309 173.413 119.034 173.687C118.764 173.957 118.433 174.169 118.041 174.321C117.649 174.473 117.205 174.55 116.708 174.55H114.512V178H112.506V168.394ZM114.512 172.89H116.414C116.867 172.89 117.222 172.779 117.479 172.557C117.74 172.334 117.871 171.973 117.871 171.472C117.871 171.219 117.836 171.004 117.767 170.825C117.701 170.646 117.605 170.5 117.479 170.387C117.357 170.269 117.205 170.185 117.022 170.132C116.843 170.076 116.64 170.047 116.414 170.047H114.512V172.89ZM124.04 168.394H126.333L129.732 178H127.549L126.935 176.02H123.386L122.72 178H120.603L124.04 168.394ZM123.922 174.36H126.373L125.177 170.557H125.151L123.922 174.36ZM130.94 168.394H132.953V172.047H136.724V168.394H138.73V178H136.724V173.707H132.953V178H130.94V168.394ZM139.841 168.394H147.708V170.047H144.774V178H142.768V170.047H139.841V168.394ZM148.806 168.394H150.734V174.935H150.76L154.563 168.394H156.595V178H154.668V171.498H154.642L150.845 178H148.806V168.394ZM158.477 168.394H160.405V174.935H160.431L164.235 168.394H166.267V178H164.339V171.498H164.313L160.516 178H158.477V168.394Z" fill="#101014"></path> </svg> 