<?xml version="1.0" encoding="UTF-8"?> <svg xmlns="http://www.w3.org/2000/svg" width="82" height="90" viewBox="0 0 82 90" fill="none"> <path opacity="0.1" fill-rule="evenodd" clip-rule="evenodd" d="M11.68 78.4802L11.6604 78.4541L11.6392 78.4294C11.208 77.9263 10.9262 76.9797 11.2628 75.1845L11.2671 75.1618L19.6703 15.1388L19.6712 15.1324C19.8942 13.4597 20.4058 12.3521 21.1062 11.6631C21.7892 10.9914 22.7716 10.6002 24.2 10.6002C25.5776 10.6002 26.3621 10.9922 26.7964 11.5586C27.2539 12.1555 27.5124 13.1872 27.2891 14.865L27.2887 14.868L18.8915 74.8484C18.6131 76.5071 18.0517 77.6247 17.3153 78.3261C16.5925 79.0145 15.598 79.4002 14.24 79.4002C12.8276 79.4002 12.1294 79.0794 11.68 78.4802ZM14.24 80.4002C17.36 80.4002 19.28 78.6002 19.88 75.0002L28.28 15.0002C28.76 11.4002 27.32 9.60019 24.2 9.60019C20.96 9.60019 19.16 11.4002 18.68 15.0002L10.28 75.0002C9.91997 76.9202 10.16 78.2402 10.88 79.0802C11.6 80.0402 12.68 80.4002 14.24 80.4002ZM14.6638 4.16559L14.6547 4.17354L14.6457 4.18171C11.6914 6.8791 9.91813 10.462 9.29002 14.8588L0.891414 74.8488C0.14574 79.3383 0.86534 83.0337 3.27915 85.7296C5.55756 88.5306 8.87584 89.8002 13.04 89.8002C17.1094 89.8002 20.7063 88.5205 23.7773 85.8338C26.7516 83.2469 28.5179 79.6552 29.2664 75.1646L29.2685 75.1517L37.6699 15.1416L37.6702 15.14C38.2963 10.7545 37.5627 7.07343 35.1592 4.26941L35.1514 4.26022L35.1433 4.25123C32.7733 1.61789 29.4915 0.200195 25.4 0.200195C21.1975 0.200195 17.6048 1.60818 14.6638 4.16559ZM4.03997 85.0802C1.87997 82.6802 1.15997 79.3202 1.87997 75.0002L10.28 15.0002C10.88 10.8002 12.56 7.44019 15.32 4.9202C18.08 2.52019 21.44 1.2002 25.4 1.2002C29.24 1.2002 32.24 2.52019 34.4 4.9202C36.56 7.44019 37.28 10.8002 36.68 15.0002L28.28 75.0002C27.56 79.3202 25.88 82.6802 23.12 85.0802C20.24 87.6002 16.88 88.8002 13.04 88.8002C9.07997 88.8002 6.07997 87.6002 4.03997 85.0802ZM64.5133 53H65.5228L65.9647 49.8002C66.2047 48.0002 65.9647 46.6802 65.2447 45.7202C64.5247 44.8802 63.6847 44.4002 62.4847 44.4002H54.6847L55.8847 36.0002L70.6447 11.4002H53.9647L55.1647 3.00019H80.3647L79.1647 11.4002L64.2847 36.0002C64.6732 36.0002 65.0521 36.0178 65.4216 36.0528C68.2472 36.3199 70.5206 37.5977 72.3247 39.7202C74.2447 42.2402 74.9647 45.6002 74.3647 49.8002L73.9228 53H74.9323L75.3546 49.9416L75.3549 49.9395C75.9809 45.5544 75.2448 41.9028 73.1201 39.1142L73.1039 39.0929L73.0866 39.0725C71.2206 36.8773 68.8668 35.4977 65.9909 35.1115L80.1258 11.7434L81.5177 2.00019H54.2974L52.8116 12.4002H68.8785L54.9233 35.6589L53.5316 45.4002H62.4847C63.3354 45.4002 63.9081 45.7069 64.4633 46.3454C64.9514 47.0132 65.1924 48.0231 64.9737 49.6657L64.9734 49.668L64.5133 53Z" fill="white"></path> </svg> 