<?xml version="1.0" encoding="UTF-8"?> <svg xmlns="http://www.w3.org/2000/svg" width="28" height="28" viewBox="0 0 28 28" fill="none"> <path d="M28 5.06198V0.875C28 0.391781 27.6082 0 27.125 0H26.5164C23.5128 0 21.0251 2.25137 20.6522 5.15523C16.7483 2.08299 11.2549 2.08048 7.34781 5.15523C6.9749 2.25137 4.48722 0 1.48356 0H0.875C0.391781 0 0 0.391781 0 0.875V5.06198C0 7.53145 1.5225 9.65076 3.67757 10.5341C3.26047 11.9239 3.13201 13.3773 3.28978 14.8145C1.75323 16.2544 0.881234 18.2545 0.881234 20.3757C0.881289 24.5797 4.3015 28 8.50555 28H19.4945C23.6985 28 27.1187 24.5797 27.1187 20.3757C27.1187 18.2545 26.2468 16.2544 24.7102 14.8145C24.8661 13.3953 24.7445 11.9406 24.3224 10.5341C26.4775 9.65076 28 7.53145 28 5.06198ZM1.75 5.06198V1.75842C3.92153 1.89629 5.64616 3.70683 5.64616 5.91254V6.82861C5.12766 7.46457 4.68021 8.16058 4.31599 8.90449C2.81099 8.27712 1.75 6.79164 1.75 5.06198ZM25.3687 20.3757C25.3687 23.6148 22.7335 26.25 19.4945 26.25H8.50555C5.26646 26.25 2.63129 23.6148 2.63129 20.3757C2.63129 18.6136 3.4125 16.9597 4.7746 15.8383C5.01337 15.6417 5.13062 15.3337 5.08298 15.0281C4.23106 9.5573 8.46202 4.60113 14 4.60113C19.5403 4.60113 23.7691 9.55888 22.917 15.0281C22.8693 15.3337 22.9866 15.6417 23.2253 15.8383C24.5875 16.9598 25.3687 18.6136 25.3687 20.3757ZM23.684 8.90449C23.3198 8.16058 22.8723 7.46457 22.3538 6.82861V5.91254C22.3538 3.70683 24.0784 1.89629 26.25 1.75842V5.06198C26.25 6.79164 25.189 8.27712 23.684 8.90449Z" fill="#25DC4B"></path> <path d="M16.3261 16.7534H11.6739C9.51271 16.7534 7.75446 18.5117 7.75446 20.6729C7.75446 22.8341 9.51271 24.5923 11.6739 24.5923H16.3261C18.4873 24.5923 20.2456 22.8341 20.2456 20.6729C20.2456 18.5117 18.4873 16.7534 16.3261 16.7534ZM16.3261 22.8424H11.6739C10.4777 22.8424 9.50446 21.8692 9.50446 20.6729C9.50446 19.4767 10.4777 18.5035 11.6739 18.5035H16.3261C17.5224 18.5035 18.4956 19.4767 18.4956 20.6729C18.4956 21.8692 17.5224 22.8424 16.3261 22.8424Z" fill="#25DC4B"></path> <path d="M12.3917 21.7148C12.9673 21.7148 13.4339 21.2482 13.4339 20.6726C13.4339 20.097 12.9673 19.6304 12.3917 19.6304C11.8161 19.6304 11.3494 20.097 11.3494 20.6726C11.3494 21.2482 11.8161 21.7148 12.3917 21.7148Z" fill="#25DC4B"></path> <path d="M15.6084 21.7148C16.184 21.7148 16.6506 21.2482 16.6506 20.6726C16.6506 20.097 16.184 19.6304 15.6084 19.6304C15.0328 19.6304 14.5661 20.097 14.5661 20.6726C14.5661 21.2482 15.0328 21.7148 15.6084 21.7148Z" fill="#25DC4B"></path> <path d="M11.0391 15.042C11.6147 15.042 12.0813 14.5754 12.0813 13.9998C12.0813 13.4241 11.6147 12.9575 11.0391 12.9575C10.4635 12.9575 9.99683 13.4241 9.99683 13.9998C9.99683 14.5754 10.4635 15.042 11.0391 15.042Z" fill="#25DC4B"></path> <path d="M16.961 15.042C17.5366 15.042 18.0032 14.5754 18.0032 13.9998C18.0032 13.4241 17.5366 12.9575 16.961 12.9575C16.3854 12.9575 15.9188 13.4241 15.9188 13.9998C15.9188 14.5754 16.3854 15.042 16.961 15.042Z" fill="#25DC4B"></path> </svg> 