<?xml version="1.0" encoding="UTF-8"?> <svg xmlns="http://www.w3.org/2000/svg" width="71" height="55" viewBox="0 0 71 55" fill="none"> <path d="M67.5011 3.50818C65.2541 1.26117 62.2611 0.017763 59.0815 0.017763C55.9019 0.017763 52.9 1.26117 50.653 3.51706L50.0047 4.16541L49.3385 3.4993C47.0827 1.2434 44.0896 0 40.9012 0C37.7216 0 34.7374 1.23452 32.4904 3.49041C30.2345 5.7463 29 8.73936 29 11.9189C29 15.0985 30.2434 18.0915 32.4993 20.3385L48.7257 36.565C49.0632 36.9025 49.5251 37.0979 50.0135 37.0979C50.4931 37.0979 50.955 36.9025 51.3013 36.565L67.4834 20.3652C69.7393 18.1093 70.9738 15.1162 70.9827 11.9367C70.9915 8.75712 69.7481 5.76407 67.5011 3.50818Z" fill="#14C54D"></path> <path d="M49.2707 10.7699L49.2693 10.7685C46.3648 7.86399 42.491 6.25439 38.3798 6.25439C34.2694 6.25439 30.384 7.86346 27.4785 10.7801C27.4784 10.7803 27.4782 10.7805 27.4781 10.7806L27.4025 10.8562L27.304 10.7578C24.3889 7.84262 20.515 6.23291 16.3929 6.23291C12.283 6.23291 8.4191 7.83092 5.51344 10.7477C2.59765 13.6638 1 17.5378 1 21.6473C1 25.7583 2.60947 29.6325 5.52532 32.5374C5.52562 32.5377 5.52593 32.538 5.52624 32.5383L25.1487 52.1607C25.7426 52.7546 26.5547 53.0981 27.4132 53.0981C28.2657 53.0981 29.0715 52.7516 29.6685 52.1698L29.6686 52.1699L29.6782 52.1603L49.2479 32.5691C52.1641 29.6529 53.7612 25.7794 53.7727 21.6716C53.7842 17.558 52.1736 13.6842 49.2707 10.7699Z" fill="#25DC4B" stroke="#25DC4B" stroke-width="2"></path> <path d="M48.5622 11.4756C45.8448 8.75813 42.2251 7.25439 38.3798 7.25439C34.5345 7.25439 30.904 8.75813 28.1866 11.4863L27.4025 12.2704L26.5969 11.4649C23.8687 8.73665 20.249 7.23291 16.3929 7.23291C12.5477 7.23291 8.93869 8.72591 6.22121 11.4541C3.493 14.1823 2 17.8021 2 21.6473C2 25.4926 3.50374 29.1123 6.23195 31.8298L25.8558 51.4536C26.2639 51.8618 26.8225 52.0981 27.4132 52.0981C27.9932 52.0981 28.5518 51.8618 28.9707 51.4536L48.5408 31.862C51.269 29.1338 52.762 25.5141 52.7727 21.6688C52.7835 17.8235 51.2797 14.2038 48.5622 11.4756ZM16.2318 16.8676C13.6647 16.8676 11.5702 18.9621 11.5702 21.5292C11.5702 22.7107 10.6143 23.6666 9.43277 23.6666C8.25126 23.6666 7.29531 22.7107 7.29531 21.5292C7.29531 16.6098 11.3017 12.6034 16.2211 12.6034C17.4026 12.6034 18.3585 13.5594 18.3585 14.7409C18.3693 15.9224 17.4133 16.8676 16.2318 16.8676Z" fill="#14C54D"></path> </svg> 