<?xml version="1.0" encoding="UTF-8"?> <svg xmlns="http://www.w3.org/2000/svg" width="72" height="150" viewBox="0 0 72 150" fill="none"> <path opacity="0.1" d="M10.88 102.08L11.68 101.48L11.6605 101.454L11.6393 101.429L10.88 102.08ZM10.28 98L11.2629 98.1843L11.2671 98.1616L11.2703 98.1386L10.28 98ZM18.68 38L19.6704 38.1386L19.6712 38.1322L18.68 38ZM28.28 38L29.2704 38.1386L29.2712 38.1322L28.28 38ZM19.88 98L20.8664 98.1644L20.8685 98.1516L20.8703 98.1386L19.88 98ZM15.32 27.92L14.6638 27.1654L14.6547 27.1733L14.6457 27.1815L15.32 27.92ZM10.28 38L9.29005 37.8586L9.28966 37.8614L10.28 38ZM1.88 98L2.86639 98.1644L2.86854 98.1516L2.87034 98.1386L1.88 98ZM4.04 108.08L4.81725 107.451L4.80079 107.43L4.78329 107.411L4.04 108.08ZM23.12 108.08L22.4638 107.325L22.4615 107.327L23.12 108.08ZM28.28 98L29.2664 98.1644L29.2685 98.1516L29.2703 98.1386L28.28 98ZM36.68 38L35.69 37.8586L35.6897 37.8614L36.68 38ZM34.4 27.92L35.1593 27.2692L35.1514 27.26L35.1433 27.251L34.4 27.92ZM14.24 102.4C12.8276 102.4 12.1294 102.079 11.68 101.48L10.08 102.68C11.0706 104.001 12.5324 104.4 14.24 104.4V102.4ZM11.6393 101.429C11.208 100.926 10.9263 99.9795 11.2629 98.1843L9.29713 97.8157C8.91374 99.8605 9.112 101.554 10.1207 102.731L11.6393 101.429ZM11.2703 98.1386L19.6703 38.1386L17.6897 37.8614L9.28966 97.8614L11.2703 98.1386ZM19.6712 38.1322C19.8943 36.4595 20.4058 35.3519 21.1062 34.6629C21.7892 33.9912 22.7716 33.6 24.2 33.6V31.6C22.3884 31.6 20.8508 32.1088 19.7038 33.2371C18.5742 34.3481 17.9457 35.9405 17.6888 37.8678L19.6712 38.1322ZM24.2 33.6C25.5777 33.6 26.3622 33.992 26.7964 34.5584C27.2542 35.1556 27.5127 36.1882 27.2888 37.8678L29.2712 38.1322C29.5273 36.2118 29.3058 34.5444 28.3836 33.3416C27.4378 32.1079 25.9423 31.6 24.2 31.6V33.6ZM27.2897 37.8614L18.8897 97.8614L20.8703 98.1386L29.2703 38.1386L27.2897 37.8614ZM18.8936 97.8356C18.616 99.5013 18.0536 100.623 17.3153 101.326C16.5925 102.014 15.5981 102.4 14.24 102.4V104.4C16.0019 104.4 17.5275 103.886 18.6947 102.774C19.8464 101.677 20.544 100.099 20.8664 98.1644L18.8936 97.8356ZM25.4 23.2C21.1976 23.2 17.6048 24.608 14.6638 27.1654L15.9762 28.6746C18.5552 26.432 21.6824 25.2 25.4 25.2V23.2ZM14.6457 27.1815C11.6914 29.8789 9.91816 33.4618 9.29005 37.8586L11.2699 38.1414C11.8418 34.1382 13.4286 31.0011 15.9943 28.6585L14.6457 27.1815ZM9.28966 37.8614L0.889658 97.8614L2.87034 98.1386L11.2703 38.1386L9.28966 37.8614ZM0.893606 97.8356C0.142573 102.342 0.866517 106.049 3.29671 108.749L4.78329 107.411C2.89348 105.311 2.17743 102.298 2.86639 98.1644L0.893606 97.8356ZM3.26276 108.709C5.54162 111.524 8.86585 112.8 13.04 112.8V110.8C9.29415 110.8 6.61838 109.676 4.81725 107.451L3.26276 108.709ZM13.04 112.8C17.11 112.8 20.7072 111.52 23.7785 108.833L22.4615 107.327C19.7728 109.68 16.65 110.8 13.04 110.8V112.8ZM23.7762 108.835C26.7512 106.248 28.5179 102.656 29.2664 98.1644L27.2936 97.8356C26.6021 101.984 25.0088 105.112 22.4638 107.325L23.7762 108.835ZM29.2703 98.1386L37.6703 38.1386L35.6897 37.8614L27.2897 97.8614L29.2703 98.1386ZM37.6699 38.1414C38.2965 33.7553 37.563 30.0736 35.1593 27.2692L33.6407 28.5708C35.557 30.8064 36.2635 33.8447 35.6901 37.8586L37.6699 38.1414ZM35.1433 27.251C32.7733 24.6177 29.4916 23.2 25.4 23.2V25.2C28.9884 25.2 31.7067 26.4223 33.6567 28.589L35.1433 27.251ZM42.2047 110L41.2128 109.872L41.0679 111H42.2047V110ZM63.8047 110V111H64.6843L64.7965 110.128L63.8047 110ZM64.8847 101.6L65.8765 101.728L66.0215 100.6H64.8847V101.6ZM58.2847 101.6L57.2945 101.46L57.1335 102.6H58.2847V101.6ZM68.9647 26L69.9549 26.1399L70.1159 25H68.9647V26ZM62.3647 26V25H61.4974L61.3747 25.8586L62.3647 26ZM58.1647 34.28L58.8337 35.0233L58.8432 35.0147L58.8524 35.0059L58.1647 34.28ZM50.6047 37.4V36.4H49.7349L49.6143 37.2613L50.6047 37.4ZM49.7647 43.4L48.7743 43.2614L48.6149 44.4H49.7647V43.4ZM55.7647 42.2L55.4485 41.2513L55.381 41.2738L55.3175 41.3056L55.7647 42.2ZM57.8047 41V40H57.4539L57.18 40.2191L57.8047 41ZM58.4047 41L59.3949 41.1392L59.5551 40H58.4047V41ZM49.8847 101.6V102.6H50.7539L50.8749 101.739L49.8847 101.6ZM43.2847 101.6V100.6H42.405L42.2929 101.472L43.2847 101.6ZM42.2047 111H63.8047V109H42.2047V111ZM64.7965 110.128L65.8765 101.728L63.8929 101.472L62.8129 109.872L64.7965 110.128ZM64.8847 100.6H58.2847V102.6H64.8847V100.6ZM59.2749 101.74L69.9549 26.1399L67.9745 25.8601L57.2945 101.46L59.2749 101.74ZM68.9647 25H62.3647V27H68.9647V25ZM61.3747 25.8586C60.9257 29.002 59.5882 31.5539 57.4769 33.554L58.8524 35.0059C61.3012 32.6861 62.8437 29.7179 63.3546 26.1414L61.3747 25.8586ZM57.4957 33.5367C55.2596 35.5492 52.9723 36.4 50.6047 36.4V38.4C53.5171 38.4 56.2698 37.3308 58.8337 35.0233L57.4957 33.5367ZM49.6143 37.2613L48.7743 43.2614L50.755 43.5386L51.595 37.5386L49.6143 37.2613ZM49.7647 44.4C51.137 44.4 52.4236 44.276 53.4872 44.0101L53.0022 42.0699C52.1457 42.284 51.0324 42.4 49.7647 42.4V44.4ZM53.4872 44.0101C54.4505 43.7693 55.3849 43.5079 56.2119 43.0944L55.3175 41.3056C54.7044 41.6121 53.9588 41.8307 53.0022 42.0699L53.4872 44.0101ZM56.0809 43.1487C56.9667 42.8534 57.7956 42.2879 58.4294 41.7809L57.18 40.2191C56.6138 40.6721 56.0027 41.0666 55.4485 41.2513L56.0809 43.1487ZM57.8047 42H58.4047V40H57.8047V42ZM57.4144 40.8608L48.8944 101.461L50.8749 101.739L59.3949 41.1392L57.4144 40.8608ZM49.8847 100.6H43.2847V102.6H49.8847V100.6ZM42.2929 101.472L41.2128 109.872L43.1965 110.128L44.2765 101.728L42.2929 101.472Z" fill="white"></path> <rect x="26" y="67" width="39" height="55" fill="#101014"></rect> </svg> 