<?xml version="1.0" encoding="UTF-8"?> <svg xmlns="http://www.w3.org/2000/svg" width="19" height="19" viewBox="0 0 19 19" fill="none"> <path d="M15.7612 2.68826C14.0222 0.955735 11.7088 0.000988644 9.24663 0C6.79 0 4.4729 0.953899 2.72244 2.686C0.96887 4.42107 0.00225975 6.72686 0 9.17022V9.17305V9.17474C0.000282469 10.6536 0.388819 12.1455 1.12635 13.5073L0.025281 18.5119L5.08755 17.3604C6.36968 18.0066 7.80025 18.3472 9.2431 18.3478H9.24677C11.703 18.3478 14.0201 17.3938 15.7708 15.6615C17.5259 13.925 18.493 11.6222 18.4941 9.17729C18.4948 6.7496 17.5244 4.44508 15.7612 2.68826ZM9.24663 16.903H9.24338C7.94784 16.9024 6.66416 16.5771 5.53131 15.9621L5.29192 15.8321L1.92573 16.5978L2.65691 13.2748L2.51595 13.0317C1.81515 11.8232 1.44483 10.4891 1.44483 9.17319C1.44751 4.91398 4.94703 1.44483 9.24635 1.44483C11.3233 1.44568 13.2749 2.25086 14.7415 3.71179C16.2303 5.19532 17.0498 7.13616 17.0491 9.17686C17.0474 13.4371 13.5472 16.903 9.24663 16.903Z" fill="#148E2D"></path> <path d="M6.7296 5.12891H6.32426C6.18317 5.12891 5.95408 5.18173 5.76031 5.39259C5.5664 5.6036 5.01996 6.11359 5.01996 7.15082C5.01996 8.18805 5.77796 9.19025 5.88361 9.33106C5.98939 9.47173 7.3468 11.6682 9.49667 12.5132C11.2834 13.2154 11.6471 13.0758 12.0348 13.0406C12.4226 13.0056 13.2863 12.5307 13.4625 12.0385C13.6388 11.5463 13.6388 11.1243 13.586 11.0362C13.533 10.9483 13.3919 10.8957 13.1805 10.7903C12.9689 10.6848 11.9323 10.1662 11.7383 10.0957C11.5444 10.0255 11.4035 9.99034 11.2624 10.2015C11.1213 10.4122 10.7059 10.8998 10.5825 11.0404C10.4592 11.1812 10.3357 11.1989 10.1242 11.0934C9.91261 10.9876 9.23835 10.7611 8.43035 10.043C7.80143 9.48416 7.36502 8.77149 7.24158 8.56048C7.11828 8.34962 7.22844 8.2355 7.33451 8.13028C7.42956 8.03594 7.55794 7.90685 7.66373 7.78383C7.76937 7.66068 7.79946 7.57283 7.87007 7.43216C7.94055 7.29149 7.90524 7.16833 7.85242 7.06297C7.79946 6.95747 7.39355 5.91502 7.20542 5.49809H7.20556C7.0471 5.14698 6.8803 5.13512 6.7296 5.12891Z" fill="#148E2D"></path> </svg> 