<?xml version="1.0" encoding="UTF-8"?> <svg xmlns="http://www.w3.org/2000/svg" width="18" height="17" viewBox="0 0 18 17" fill="none"> <path d="M14.5301 9.62692C14.1792 9.26152 13.7559 9.06616 13.3073 9.06616C12.8623 9.06616 12.4354 9.25791 12.07 9.6233L10.9268 10.7629C10.8327 10.7123 10.7386 10.6652 10.6482 10.6182C10.518 10.5531 10.395 10.4916 10.29 10.4264C9.21918 9.74631 8.246 8.85995 7.31261 7.71311C6.86039 7.1415 6.55649 6.66034 6.33581 6.17194C6.63246 5.9006 6.90742 5.61842 7.17513 5.34708C7.27643 5.24578 7.37773 5.14087 7.47903 5.03957C8.23876 4.27984 8.23876 3.2958 7.47903 2.53607L6.49137 1.54841C6.37922 1.43626 6.26345 1.32049 6.15492 1.20472C5.93785 0.980419 5.70993 0.748881 5.47477 0.531814C5.12385 0.184507 4.70419 0 4.26282 0C3.82145 0 3.39455 0.184507 3.03277 0.531814C3.02915 0.535432 3.02915 0.535432 3.02554 0.53905L1.79549 1.77995C1.33241 2.24303 1.06832 2.8074 1.01043 3.46222C0.923604 4.51861 1.23473 5.50265 1.47351 6.14661C2.05959 7.72758 2.93509 9.19279 4.24111 10.7629C5.8257 12.655 7.73227 14.1491 9.91018 15.2019C10.7423 15.5963 11.8529 16.063 13.0938 16.1425C13.1698 16.1462 13.2494 16.1498 13.3217 16.1498C14.1575 16.1498 14.8593 15.8495 15.4092 15.2526C15.4128 15.2453 15.4201 15.2417 15.4237 15.2345C15.6118 15.0066 15.8289 14.8003 16.0568 14.5797C16.2124 14.4313 16.3715 14.2758 16.5271 14.113C16.8853 13.7403 17.0734 13.3062 17.0734 12.8612C17.0734 12.4126 16.8816 11.9821 16.5162 11.6203L14.5301 9.62692ZM15.8253 13.4364C15.8216 13.4364 15.8216 13.4401 15.8253 13.4364C15.6842 13.5884 15.5394 13.7259 15.3839 13.8778C15.1487 14.1021 14.91 14.3373 14.6856 14.6014C14.3203 14.9921 13.8897 15.1766 13.3254 15.1766C13.2711 15.1766 13.2132 15.1766 13.1589 15.173C12.0845 15.1042 11.086 14.6846 10.3371 14.3264C8.28941 13.3351 6.49137 11.9278 4.99723 10.1443C3.76356 8.65735 2.93871 7.2826 2.39242 5.80654C2.05597 4.90571 1.93297 4.20386 1.98723 3.54181C2.02341 3.11853 2.18621 2.7676 2.48649 2.46733L3.72015 1.23366C3.89742 1.06725 4.08555 0.976801 4.27005 0.976801C4.49797 0.976801 4.68248 1.11428 4.79825 1.23005C4.80187 1.23366 4.80548 1.23728 4.8091 1.2409C5.02979 1.44711 5.23962 1.66056 5.4603 1.88848C5.57245 2.00425 5.68822 2.12002 5.80399 2.23941L6.79165 3.22706C7.17513 3.61055 7.17513 3.96509 6.79165 4.34857C6.68673 4.45349 6.58543 4.55841 6.48052 4.6597C6.17662 4.97083 5.8872 5.26026 5.57245 5.54244C5.56522 5.54968 5.55798 5.5533 5.55437 5.56053C5.24324 5.87166 5.30112 6.17555 5.36624 6.38177C5.36986 6.39262 5.37348 6.40347 5.37709 6.41433C5.63396 7.03659 5.99574 7.62267 6.54564 8.3209L6.54926 8.32452C7.54776 9.55456 8.60054 10.5133 9.76185 11.2477C9.91018 11.3417 10.0621 11.4177 10.2068 11.4901C10.3371 11.5552 10.4601 11.6167 10.565 11.6818C10.5795 11.6891 10.5939 11.6999 10.6084 11.7071C10.7314 11.7686 10.8472 11.7976 10.9666 11.7976C11.2668 11.7976 11.455 11.6095 11.5165 11.548L12.7538 10.3107C12.8768 10.1877 13.0721 10.0393 13.3 10.0393C13.5243 10.0393 13.7088 10.1804 13.821 10.3034C13.8246 10.3071 13.8246 10.3071 13.8282 10.3107L15.8216 12.3041C16.1943 12.6731 16.1943 13.053 15.8253 13.4364Z" fill="#7F8989"></path> </svg> 