<?xml version="1.0" encoding="UTF-8"?> <svg xmlns="http://www.w3.org/2000/svg" width="28" height="28" viewBox="0 0 28 28" fill="none"> <path d="M23.8995 4.10052C21.2552 1.45622 17.7395 0 14 0C10.2605 0 6.74472 1.45622 4.10052 4.10052C1.45633 6.74477 0 10.2605 0 14C0 17.7395 1.45622 21.2553 4.10052 23.8995C6.74477 26.5437 10.2605 28 14 28C17.7395 28 21.2553 26.5438 23.8995 23.8995C26.5437 21.2552 28 17.7395 28 14C28 10.2605 26.5437 6.74472 23.8995 4.10052ZM14 26.1918C7.27743 26.1918 1.80819 20.7226 1.80819 14C1.80819 7.27743 7.27743 1.80819 14 1.80819C20.7226 1.80819 26.1918 7.27743 26.1918 14C26.1918 20.7226 20.7226 26.1918 14 26.1918Z" fill="#4F4F58"></path> <path d="M14 3.27344C8.08577 3.27344 3.2742 8.08501 3.2742 13.9992C3.2742 19.9135 8.08577 24.725 14 24.725C19.9142 24.725 24.7258 19.9135 24.7258 13.9992C24.7258 8.08501 19.9142 3.27344 14 3.27344ZM14 22.9169C9.08283 22.9169 5.08233 18.9164 5.08233 13.9992C5.08233 9.08196 9.08283 5.08157 14 5.08157C18.9172 5.08157 22.9177 9.08207 22.9177 13.9992C22.9177 18.9164 18.9172 22.9169 14 22.9169Z" fill="#4F4F58"></path> <path d="M18.9423 14.5874H14.3014V9.89823C14.3014 9.39894 13.8966 8.99414 13.3973 8.99414C12.898 8.99414 12.4932 9.39894 12.4932 9.89823V15.4915C12.4932 15.9908 12.898 16.3956 13.3973 16.3956H18.9423C19.4416 16.3956 19.8464 15.9908 19.8464 15.4915C19.8464 14.9922 19.4417 14.5874 18.9423 14.5874Z" fill="#4F4F58"></path> </svg> 