<?xml version="1.0" encoding="UTF-8"?> <svg xmlns="http://www.w3.org/2000/svg" width="38" height="38" viewBox="0 0 38 38" fill="none"> <path d="M11 16.1505L18.3548 23.5054L32.8602 9" stroke="#22B440" stroke-width="3"></path> <path d="M35.6612 28.1326C33.9863 31.1882 31.5034 33.7244 28.4839 35.4637C25.4645 37.2031 22.0249 38.0786 18.5414 37.9945C15.0578 37.9104 11.6645 36.8699 8.73256 34.9869C5.8006 33.1038 3.44295 30.4508 1.91747 27.3179C0.391987 24.185 -0.242563 20.6929 0.0832239 17.2236C0.409011 13.7543 1.68259 10.4414 3.76465 7.64729C5.84671 4.85316 8.65707 2.68541 11.8883 1.38114C15.1196 0.0768766 18.6473 -0.313668 22.0856 0.252226L21.6456 2.92537C18.6976 2.44017 15.6729 2.77503 12.9023 3.89332C10.1318 5.01162 7.72217 6.87028 5.93698 9.26601C4.15179 11.6617 3.0598 14.5023 2.78047 17.4769C2.50113 20.4515 3.04521 23.4457 4.35318 26.1319C5.66115 28.8181 7.68264 31.0928 10.1965 32.7074C12.7104 34.3219 15.6199 35.214 18.6068 35.2861C21.5936 35.3583 24.5428 34.6076 27.1317 33.1163C29.7206 31.6249 31.8495 29.4504 33.2856 26.8304L35.6612 28.1326Z" fill="#22B440"></path> </svg> 