<?xml version="1.0" encoding="UTF-8"?> <svg xmlns="http://www.w3.org/2000/svg" width="121" height="116" viewBox="0 0 121 116" fill="none"> <path d="M40.8703 66.3367H46.26V64.2407H44.6131V45.3769H42.9663C42.9663 46.2153 42.6968 46.9039 42.1878 47.4429C41.6787 47.9819 41.0799 48.2214 40.4211 48.2214V49.7186C40.7505 49.7186 41.0499 49.6886 41.2895 49.6287C41.529 49.5688 41.7087 49.509 41.8883 49.4191C42.068 49.3592 42.2476 49.2395 42.3674 49.1197H42.5171V64.2407H40.8703V66.3367Z" fill="#3E3E4B"></path> <path d="M55.2451 47.4729H58.9879V45.3769H53.1491V66.3367H55.2451V47.4729Z" fill="#3E3E4B"></path> <path d="M64.2419 64.6899C63.4334 64.6899 63.0442 64.2407 63.0442 63.3424V48.3711C63.0442 47.4729 63.4334 47.0237 64.2419 47.0237C65.0204 47.0237 65.4396 47.4729 65.4396 48.3711V63.3424C65.4396 64.2407 65.0204 64.6899 64.2419 64.6899ZM64.2419 44.9277C63.2538 44.9277 62.4453 45.2571 61.8465 45.856C61.2476 46.4847 60.9482 47.3231 60.9482 48.3711V63.3424C60.9482 64.4204 61.2476 65.2588 61.8465 65.8576C62.4453 66.4864 63.2538 66.7858 64.2419 66.7858C65.2001 66.7858 66.0085 66.4864 66.6074 65.8576C67.2062 65.2588 67.5356 64.4204 67.5356 63.3424V48.3711C67.5356 47.3231 67.2062 46.4847 66.6074 45.856C66.0085 45.2571 65.2001 44.9277 64.2419 44.9277Z" fill="#3E3E4B"></path> <path d="M78.4658 64.2407H77.4178V45.3769H71.7287L70.8304 61.8453C70.8005 62.2346 70.7406 62.5639 70.6208 62.8634C70.5011 63.1628 70.3813 63.4023 70.2615 63.6119C70.1118 63.8515 69.9621 64.0611 69.7824 64.2407H69.483V68.8818H71.579V66.3367H76.3698V68.8818H78.4658V64.2407ZM72.0281 64.091C72.1779 63.9413 72.3276 63.7616 72.4473 63.5221C72.5372 63.3424 72.627 63.1328 72.7468 62.8334C72.8366 62.5639 72.8965 62.2346 72.9264 61.8453L73.675 47.4729H75.3218V64.2407H72.0281V64.091Z" fill="#3E3E4B"></path> <path d="M60.4067 9.85039C49.9229 9.85039 39.6746 12.9585 30.9577 18.7817C22.2408 24.6049 15.4468 32.8817 11.4348 42.5653C7.42286 52.2489 6.37315 62.9045 8.41843 73.1846C10.4637 83.4647 15.5121 92.9076 22.9252 100.319C30.3384 107.731 39.7833 112.778 50.0656 114.823C60.3479 116.868 71.0058 115.818 80.6915 111.807C90.3772 107.796 98.6557 101.003 104.48 92.2884C110.305 83.5733 113.413 73.3272 113.413 62.8457C113.399 48.7948 107.81 35.3235 97.8725 25.388C87.9349 15.4525 74.4606 9.86452 60.4067 9.85039ZM60.4067 114.069C50.2713 114.069 40.3636 111.064 31.9364 105.435C23.5091 99.8051 16.9409 91.8034 13.0623 82.4415C9.18365 73.0797 8.16883 62.7782 10.1461 52.8398C12.1234 42.9013 17.0041 33.7723 24.1708 26.607C31.3376 19.4418 40.4686 14.5622 50.4092 12.5853C60.3498 10.6085 70.6535 11.6231 80.0174 15.5009C89.3812 19.3787 97.3846 25.9455 103.016 34.3709C108.646 42.7963 111.652 52.7019 111.652 62.8351C111.652 76.4232 106.253 89.4548 96.6425 99.0631C87.0322 108.671 73.9977 114.069 60.4067 114.069ZM118.207 70.787C116.381 65.6465 116.381 60.0343 118.207 54.8938L120.118 50.3467C120.972 48.1261 121.037 45.6792 120.3 43.4168C119.563 41.1544 118.07 39.2144 116.072 37.9225L111.801 35.3394C107.312 32.2635 104.011 27.7432 102.449 22.5308L101.307 17.7063C100.693 15.4062 99.3064 13.3871 97.38 11.9878C95.4536 10.5885 93.1045 9.89414 90.7268 10.0212L85.7837 10.4268C80.3304 10.5725 74.9929 8.83895 70.6664 5.51683L66.8977 2.31469C65.0496 0.817182 62.7429 0 60.364 0C57.9851 0 55.6784 0.817182 53.8302 2.31469L50.0722 5.51683C45.7416 8.83894 40.4008 10.5724 34.9442 10.4268L30.0012 10.0212C27.6243 9.89815 25.2771 10.5941 23.3516 11.9928C21.426 13.3914 20.0387 15.4082 19.4212 17.7063L18.2788 22.5308C16.7249 27.7444 13.4271 32.2662 8.93727 35.3394L4.66684 37.9225C2.68503 39.2282 1.21083 41.1738 0.490061 43.4347C-0.230709 45.6956 -0.154489 48.1352 0.706013 50.3467L2.60636 54.9258C4.43202 60.0663 4.43202 65.6785 2.60636 70.8191L0.706013 75.3661C-0.148103 77.5873 -0.213315 80.0345 0.521289 82.2981C1.25589 84.5616 2.74575 86.5043 4.74157 87.8011L9.01201 90.3734C13.5018 93.4467 16.7997 97.9684 18.3536 103.182L19.4959 108.007C20.1134 110.305 21.5008 112.321 23.4263 113.72C25.3518 115.119 27.699 115.815 30.0759 115.692L35.0189 115.286C40.4774 115.139 45.8198 116.877 50.147 120.207L53.9049 123.409C55.7531 124.906 58.0598 125.724 60.4387 125.724C62.8176 125.724 65.1243 124.906 66.9725 123.409L70.7411 120.207C75.0645 116.878 80.4034 115.14 85.8585 115.286L90.8015 115.692C93.1792 115.819 95.5283 115.124 97.4547 113.725C99.3811 112.326 100.768 110.307 101.381 108.007L102.524 103.182C104.086 97.9696 107.387 93.4493 111.876 90.3734L116.147 87.8011C118.146 86.5072 119.639 84.5653 120.376 82.3011C121.113 80.0369 121.048 77.5883 120.193 75.3661L118.207 70.787ZM60.4067 118.04C49.4867 118.034 38.8139 114.79 29.7375 108.72C20.6612 102.65 13.5889 94.0249 9.41491 83.9364C5.24091 73.8479 4.15263 62.7485 6.28766 52.0416C8.42269 41.3347 13.6852 31.5012 21.4097 23.7843C29.1342 16.0674 38.974 10.8136 49.6848 8.68736C60.3956 6.56106 71.4965 7.65769 81.584 11.8386C91.6715 16.0195 100.293 23.0969 106.357 32.176C112.422 41.2551 115.658 51.9282 115.655 62.8457C115.638 77.4863 109.811 91.5218 99.4521 101.87C89.0934 112.219 75.0504 118.034 60.4067 118.04Z" fill="#3E3E4B"></path> <path d="M60.4065 99.3176C53.1889 99.3176 46.1333 97.1776 40.1322 93.1683C34.1311 89.1591 29.4539 83.4606 26.6923 76.7936C23.9308 70.1265 23.2087 62.7905 24.6176 55.7132C26.0265 48.6359 29.503 42.1352 34.6074 37.0334C39.7118 31.9316 46.2148 28.4578 53.2941 27.0513C60.3733 25.6448 67.7107 26.3688 74.3784 29.1317C81.046 31.8947 86.7444 36.5725 90.7527 42.5735C94.7611 48.5745 96.8995 55.6291 96.8974 62.8453C96.8861 72.5167 93.0375 81.7886 86.1963 88.6264C79.3551 95.4641 70.08 99.3091 60.4065 99.3176ZM60.4065 28.4757C53.6074 28.4757 46.961 30.4914 41.3077 34.268C35.6544 38.0446 31.2482 43.4124 28.6463 49.6926C26.0444 55.9728 25.3636 62.8834 26.6901 69.5504C28.0165 76.2175 31.2906 82.3415 36.0983 87.1482C40.906 91.9549 47.0314 95.2283 53.6999 96.5544C60.3684 97.8806 67.2804 97.2 73.562 94.5986C79.8436 91.9973 85.2125 87.592 88.9899 81.94C92.7673 76.2879 94.7835 69.6429 94.7835 62.8453C94.775 53.7325 91.1505 44.9954 84.7053 38.5516C78.2603 32.1079 69.5213 28.4841 60.4065 28.4757Z" fill="#3E3E4B"></path> <path d="M105.043 65.2911C105.139 65.2911 105.235 65.2911 105.235 65.2164C105.235 65.1417 105.15 65.0883 105.043 65.099C104.936 65.1097 105.043 65.2164 105.043 65.2911Z" fill="#3E3E4B"></path> <path d="M109.559 62.0857H109.164C109.157 62.1027 109.153 62.1208 109.153 62.1391C109.153 62.1574 109.157 62.1756 109.164 62.1925C109.036 62.1925 109.047 62.1284 109.079 62.0751H108.331C108.331 62.1605 108.331 62.2459 108.513 62.2138C108.694 62.1818 108.363 62.3206 108.363 62.438C108.363 62.5554 108.363 62.3633 108.278 62.3633C108.193 62.3633 108.193 62.47 108.278 62.4807C108.363 62.4913 108.15 62.4807 108.171 62.5874C108.085 62.4003 107.981 62.2216 107.862 62.0537H107.509C107.413 62.0537 107.392 62.1284 107.317 62.0537V62.3206C107.242 62.3206 107.221 62.3206 107.168 62.3206C107.123 62.4575 107.058 62.5871 106.976 62.7048C106.645 62.7048 106.559 62.3846 106.516 62.0537C106.526 62.049 106.537 62.0465 106.548 62.0465C106.56 62.0465 106.57 62.049 106.58 62.0537H105.513L105.289 61.456C105.289 61.456 105.289 61.456 105.235 61.5521C105.182 61.6481 105.235 61.5521 105.235 61.5521C105.235 61.5521 105.161 61.5521 105.118 61.5521C105.179 61.6441 105.2 61.7565 105.178 61.8645C105.156 61.9726 105.092 62.0675 105 62.1284C105.075 62.2672 105.107 62.0537 105.193 62.1284C105.075 62.3099 105.289 62.3953 105.193 62.5554C105.097 62.7155 105.193 62.5554 105.31 62.5554C105.427 62.5554 105.31 62.6515 105.31 62.7368C105.31 62.8222 105.235 62.8116 105.225 62.9717C105.098 62.7848 104.959 62.6065 104.808 62.438C104.712 62.438 104.734 62.5661 104.616 62.5554C104.691 62.4807 104.616 62.438 104.616 62.3633C104.497 62.3515 104.378 62.3776 104.274 62.438C104.274 62.438 104.36 62.438 104.349 62.5554C104.339 62.6728 104.168 62.3526 104.008 62.3206C104.125 62.1818 104.008 61.8936 104.232 61.979C104.232 61.8296 104.136 61.7976 104.008 61.7869C103.879 61.7762 104.136 61.7869 104.082 61.5947C104.145 61.6159 104.212 61.6159 104.274 61.5947C104.274 61.5947 104.274 61.5094 104.274 61.52C104.249 61.4605 104.213 61.4062 104.168 61.3599C104.285 61.3599 104.274 61.424 104.392 61.2852C104.392 61.4026 104.488 61.5627 104.392 61.6268C104.437 61.699 104.505 61.7551 104.584 61.7869C104.648 61.7869 104.669 61.7228 104.659 61.6268C104.936 61.7549 104.904 61.4133 105.182 61.4453V61.3813C105.137 61.3946 105.09 61.3973 105.044 61.3891C104.998 61.3809 104.955 61.362 104.917 61.334C104.88 61.3059 104.85 61.2696 104.829 61.2277C104.808 61.1859 104.797 61.1398 104.798 61.0931C104.896 61.0753 104.998 61.0753 105.097 61.0931L104.669 59.919C104.669 59.919 104.669 59.919 104.605 59.919L103.943 58.0938L103.837 58.414C103.954 58.6061 103.687 58.6808 103.837 58.7235C103.784 58.7358 103.729 58.7358 103.677 58.7235L103.495 59.2252C103.634 59.2252 103.794 59.3106 103.805 59.4813C103.805 59.4813 103.73 59.4813 103.73 59.5561C103.73 59.6308 103.559 59.4707 103.463 59.428L102.652 61.6588L102.481 62.1284H101.723C101.936 62.3099 101.915 62.7368 102.203 62.8329C102.182 62.859 102.169 62.8901 102.163 62.9231C102.158 62.9561 102.162 62.99 102.174 63.0212C102.185 63.0525 102.205 63.0801 102.231 63.1014C102.257 63.1226 102.288 63.1368 102.321 63.1424C102.214 63.2065 102.139 63.2919 102.011 63.2172C101.883 63.1424 102.086 63.2172 102.129 63.2172C101.926 63.0747 101.681 63.0068 101.435 63.025C101.221 62.8863 101.435 62.6728 101.168 62.5981C101.168 62.5981 101.403 62.47 101.36 62.5981C101.467 62.5981 101.36 62.4807 101.435 62.2885C101.524 62.2765 101.606 62.2352 101.669 62.1711L98.2104 62.0857L101.616 64.7435L100.484 68.6715V68.7675V68.8956L103.581 66.7609C103.514 66.7595 103.449 66.7385 103.394 66.7005C103.339 66.6626 103.296 66.6094 103.271 66.5474C103.434 66.565 103.594 66.5971 103.751 66.6434L104.061 66.43L104.274 66.5794C104.445 66.5047 104.584 66.7288 104.808 66.8036C104.801 66.8352 104.801 66.868 104.808 66.8996L105.054 67.0704C105.118 67.0932 105.176 67.1296 105.225 67.1771L105.748 67.54C105.748 67.476 105.812 67.4333 105.812 67.54C105.832 67.5369 105.85 67.5282 105.865 67.515C105.88 67.5018 105.891 67.4846 105.897 67.4653C105.897 67.4653 105.801 67.4653 105.737 67.4653C105.673 67.4653 105.673 67.3479 105.737 67.2305C105.927 67.2732 106.12 67.2982 106.314 67.3052C106.314 67.4226 106.228 67.476 106.196 67.5721C106.164 67.6681 106.303 67.9777 106.506 68.0417C106.506 67.7962 106.805 67.8282 106.922 68.0417C106.921 68.148 106.899 68.2531 106.858 68.3513L107.125 68.5327C107.125 68.5327 107.125 68.5327 107.189 68.5327C107.253 68.5327 107.189 68.5327 107.189 68.6074L107.445 68.7889C107.445 68.7889 107.445 68.7248 107.371 68.7248C107.296 68.7248 107.552 68.6501 107.563 68.5327L107.189 67.2519C107.161 67.2596 107.132 67.2596 107.104 67.2519H107.178L107.114 67.017L106.933 66.3873C106.933 66.3873 106.794 66.3126 106.815 66.1951C106.843 66.1844 106.873 66.1844 106.901 66.1951L106.623 65.2025H106.474C106.474 65.1064 106.356 64.9677 106.474 64.9356C106.591 64.9036 106.474 64.9356 106.474 64.9356C106.474 64.9356 106.474 64.9356 106.548 64.9356V64.8396C106.548 64.8396 106.495 64.8396 106.463 64.8396C106.431 64.8396 106.527 64.6581 106.463 64.6154C106.399 64.5727 106.367 64.7435 106.228 64.7222C106.089 64.7008 106.057 64.498 106.228 64.3806C106.132 64.1031 105.844 64.1992 105.758 63.9964C105.71 64.0144 105.657 64.0144 105.609 63.9964C105.609 63.9964 105.609 64.1885 105.534 64.2632C105.459 64.3379 105.598 64.2632 105.652 64.2632C105.705 64.2632 105.577 64.2632 105.577 64.3806C105.577 64.498 105.577 64.5407 105.758 64.7328C105.833 64.6475 105.887 64.7328 105.919 64.6475C105.987 64.7549 106.062 64.8583 106.143 64.957C105.855 64.957 105.972 65.2025 105.919 65.2986C105.684 65.2132 105.47 65.3946 105.299 65.4907C105.235 65.3946 105.235 65.4907 105.15 65.416C105.064 65.3412 105.15 65.544 105.075 65.5761C105.039 65.5555 104.999 65.5446 104.958 65.5446C104.917 65.5446 104.876 65.5555 104.84 65.5761C104.84 65.4373 104.894 65.4266 104.84 65.2986H104.99C104.95 65.2903 104.912 65.2721 104.881 65.2456C104.85 65.2192 104.825 65.1853 104.81 65.1471C104.796 65.1089 104.791 65.0676 104.796 65.0269C104.801 64.9862 104.816 64.9475 104.84 64.9143C104.84 64.8396 104.669 64.9143 104.648 64.8396C104.627 64.7649 104.712 64.7115 104.648 64.5727C104.62 64.5294 104.58 64.4952 104.532 64.4744C104.485 64.4535 104.432 64.4469 104.381 64.4553C104.381 64.3593 104.317 64.3379 104.381 64.2632C104.082 64.2632 104.189 64.0604 103.997 63.9216C103.997 63.9216 104.061 63.9216 104.114 63.9216C104.168 63.9216 104.018 63.8362 103.922 63.8469C103.886 63.878 103.86 63.9188 103.847 63.9643C103.771 63.9888 103.689 63.9888 103.613 63.9643C103.613 63.7188 103.751 63.6975 103.805 63.5481C103.858 63.3986 103.933 63.6548 103.965 63.5481C104.018 63.6548 103.965 63.6975 104.114 63.6975C104.05 63.7722 104.05 63.6975 104.114 63.8469C104.178 63.9964 104.178 63.8469 104.189 63.7722C104.189 63.8896 104.317 63.943 104.381 64.039C104.531 63.9537 104.637 64.039 104.766 63.9216C104.894 63.8042 104.627 63.9216 104.766 63.7722C104.904 63.6228 104.83 63.943 104.766 63.9643C104.915 64.0604 105 63.7615 105.107 63.6975C105.214 63.8149 105.385 63.6975 105.449 63.8469C105.673 63.5907 105.353 63.2599 105.716 63.1958C105.78 63.3132 105.716 63.3453 105.716 63.5054C105.62 63.5054 105.534 63.5054 105.524 63.5801C105.513 63.6548 105.726 63.5267 105.758 63.4627C105.79 63.3986 105.833 63.5694 105.908 63.5801C105.769 63.7509 106.068 63.7509 105.908 63.8896C106.1 63.8896 106.335 63.8896 106.367 63.6548C106.399 63.42 106.228 63.6548 106.292 63.4627C106.431 63.5801 106.559 63.4627 106.783 63.4627C106.783 63.2705 106.655 63.4627 106.677 63.3132C106.698 63.1638 106.89 63.3132 106.869 63.1531C106.976 63.2812 107.093 63.0677 107.168 63.1531C107.082 62.9396 107.371 62.8009 107.403 62.5767C107.403 62.5767 107.403 62.8009 107.403 62.8863C107.403 62.9717 107.52 62.8863 107.52 62.8116C107.691 62.8756 107.52 63.0144 107.435 63.0464C107.541 63.2705 107.819 63.6548 108.129 63.4306C108.134 63.4423 108.137 63.4551 108.137 63.468C108.137 63.4809 108.134 63.4937 108.129 63.5054L108.438 63.2705C108.438 63.2705 108.353 63.2705 108.289 63.2705C108.225 63.2705 108.289 63.1424 108.203 63.1531C108.118 63.1638 108.299 63.0677 108.395 63.0784C108.492 63.0891 108.524 63.2172 108.513 63.1531C108.502 63.0891 108.513 63.1531 108.513 63.2172L109.58 62.3953C109.58 62.3953 109.58 62.3953 109.58 62.3419C109.595 62.3002 109.601 62.2557 109.598 62.2115C109.594 62.1673 109.581 62.1244 109.559 62.0857Z" fill="#3E3E4B"></path> <path d="M104.392 60.6348C104.488 60.6348 104.392 60.8803 104.243 60.8162C104.093 60.7522 104.36 60.7095 104.392 60.6348Z" fill="#3E3E4B"></path> <path d="M100.634 63.7742C100.517 63.7742 100.634 63.582 100.485 63.6247C100.549 63.454 100.485 63.6247 100.677 63.6247C100.869 63.6247 100.623 63.6994 100.634 63.7742Z" fill="#3E3E4B"></path> <path d="M103.015 66.615C103.075 66.6049 103.136 66.6049 103.196 66.615C103.132 66.6791 103.1 66.615 103.015 66.615Z" fill="#3E3E4B"></path> <path d="M106.655 66.7622C106.655 66.8796 106.655 66.9116 106.655 66.997C106.655 67.0824 106.655 66.9116 106.581 66.8476C106.474 67.0184 106.517 67.0611 106.463 67.2639C106.41 67.4667 106.581 67.2639 106.655 67.2639C106.73 67.2639 106.538 67.424 106.655 67.456C106.773 67.488 106.538 67.456 106.538 67.5734C106.503 67.5546 106.474 67.5269 106.453 67.4932C106.433 67.4594 106.421 67.4208 106.42 67.3813C106.465 67.4149 106.504 67.4544 106.538 67.4987C106.538 67.4987 106.538 67.3813 106.613 67.3066C106.687 67.2318 106.399 67.3066 106.346 67.4133C106.292 67.52 106.42 67.4987 106.346 67.6054C106.271 67.7122 106.239 67.6054 106.154 67.6054C106.356 67.6054 106.282 67.0931 106.068 67.1038C106.25 66.9116 106.335 66.6768 106.655 66.7622Z" fill="#3E3E4B"></path> <path d="M103.709 65.5786C103.709 65.5039 103.805 65.4718 103.901 65.4612C103.866 65.4302 103.826 65.4049 103.783 65.3864C103.783 65.2904 103.912 65.3864 103.933 65.3864C103.954 65.3864 103.933 65.5039 103.816 65.5359C103.698 65.5679 103.954 65.6319 104.008 65.696C103.995 65.7342 103.995 65.7752 104.008 65.8134C103.858 65.8134 103.89 65.5893 103.741 65.728C103.741 65.664 103.837 65.6106 103.709 65.5786Z" fill="#3E3E4B"></path> <path d="M104.819 63.5833C104.723 63.5833 104.542 63.4552 104.627 63.3591C104.712 63.263 104.627 63.3591 104.552 63.3591C104.477 63.3591 104.68 63.3591 104.702 63.3591C104.723 63.3591 104.702 63.5512 104.702 63.5512C104.702 63.5512 104.702 63.5512 104.702 63.4338C104.702 63.3164 104.702 63.5192 104.808 63.5085C104.809 63.5338 104.813 63.5589 104.819 63.5833Z" fill="#3E3E4B"></path> <path d="M105.588 62.9624C105.513 62.9624 105.481 62.9624 105.47 63.0478C105.46 63.1332 105.47 62.9197 105.321 62.9624C105.343 62.8821 105.379 62.8063 105.428 62.7383C105.502 62.7383 105.513 62.7383 105.588 62.7383C105.662 62.7383 105.577 62.877 105.588 62.9624Z" fill="#3E3E4B"></path> <path d="M106.271 63.5083C106.186 63.4229 106.388 63.3161 106.463 63.2734C106.485 63.4335 106.303 63.3909 106.271 63.5083Z" fill="#3E3E4B"></path> <path d="M107.307 63.8911C107.114 63.8911 107.146 63.6456 107.008 63.5816C107.028 63.5297 107.053 63.4797 107.082 63.4321C107.053 63.3942 107.012 63.3677 106.965 63.3574C106.92 63.4656 106.896 63.5817 106.896 63.699C106.896 63.8162 106.92 63.9323 106.965 64.0405C106.965 64.0405 106.848 64.0405 106.848 64.1153C106.848 64.19 106.965 64.1153 106.965 64.1153C106.988 64.1324 107.008 64.1549 107.021 64.1809C107.034 64.2069 107.04 64.2356 107.04 64.2647L107.285 64.0726C107.31 64.0657 107.336 64.0657 107.36 64.0726H107.424C107.424 64.0192 107.424 63.9658 107.499 63.9551C107.574 63.9445 107.499 63.9551 107.499 63.8804C107.499 63.8057 107.413 63.9018 107.307 63.8911Z" fill="#3E3E4B"></path> <path d="M107.04 64.2238C107.04 64.2238 107.04 64.2238 107.04 64.1491C107.04 64.0744 106.912 64.1491 106.922 64.2665C106.933 64.3839 106.848 64.1384 106.73 64.1491C106.756 64.2003 106.77 64.257 106.77 64.3145C106.77 64.3721 106.756 64.4288 106.73 64.48L107.04 64.2238Z" fill="#3E3E4B"></path> <path d="M15.3001 65.2911C15.204 65.2911 15.1079 65.2911 15.1079 65.2164C15.1079 65.1417 15.1933 65.0883 15.3001 65.099C15.4068 65.1097 15.3001 65.2164 15.3001 65.2911Z" fill="#3E3E4B"></path> <path d="M10.816 62.0884H11.2111C11.2181 62.1053 11.2217 62.1235 11.2217 62.1418C11.2217 62.1601 11.2181 62.1782 11.2111 62.1952C11.3392 62.1952 11.3285 62.1311 11.2965 62.0777H12.0438C12.0438 62.1631 12.0438 62.2485 11.8623 62.2165C11.6808 62.1845 12.0118 62.3232 12.0118 62.4407C12.0118 62.5581 12.0118 62.3659 12.0865 62.3659C12.1612 62.3659 12.1826 62.4727 12.0865 62.4834C11.9904 62.494 12.2253 62.4834 12.2039 62.5901C12.2903 62.403 12.394 62.2243 12.5135 62.0564H12.8658C12.9619 62.0564 12.9833 62.1311 13.058 62.0564V62.3232C13.1328 62.3232 13.1541 62.3232 13.2075 62.3232C13.252 62.4602 13.3168 62.5897 13.3997 62.7075C13.7306 62.7075 13.816 62.3873 13.8587 62.0564C13.8487 62.0517 13.8378 62.0492 13.8267 62.0492C13.8156 62.0492 13.8047 62.0517 13.7947 62.0564H14.8623L15.0865 61.4587C15.0865 61.4587 15.0865 61.4587 15.1399 61.5547C15.1932 61.6508 15.1399 61.5547 15.1399 61.5547C15.1399 61.5547 15.2146 61.5547 15.2573 61.5547C15.1965 61.6468 15.1747 61.7591 15.1967 61.8672C15.2188 61.9753 15.2828 62.0702 15.3747 62.1311C15.3 62.2699 15.268 62.0564 15.1826 62.1311C15.3 62.3126 15.0865 62.398 15.1826 62.5581C15.2786 62.7182 15.1292 62.5581 15.0651 62.5581C15.0011 62.5581 15.0651 62.6541 15.0651 62.7395C15.0651 62.8249 15.1399 62.8142 15.1505 62.9743C15.2739 62.785 15.4132 62.6064 15.5669 62.4407C15.663 62.4407 15.6416 62.5687 15.7591 62.5581C15.6843 62.4834 15.7591 62.4407 15.7591 62.3659C15.878 62.3542 15.9976 62.3803 16.1007 62.4407C16.1007 62.4407 16.0153 62.4407 16.026 62.5581C16.0366 62.6755 16.2075 62.3553 16.3676 62.3232C16.2502 62.1845 16.3676 61.8963 16.1434 61.9817C16.1434 61.8322 16.2395 61.8002 16.3676 61.7896C16.4957 61.7789 16.2395 61.7896 16.2929 61.5974C16.2306 61.6186 16.163 61.6186 16.1007 61.5974C16.1007 61.5974 16.1007 61.512 16.1007 61.5227C16.1261 61.4632 16.1623 61.4089 16.2075 61.3626C16.09 61.3626 16.1007 61.4266 15.9833 61.2879C15.9833 61.4053 15.8872 61.5654 15.9833 61.6294C15.9377 61.7017 15.8704 61.7578 15.7911 61.7896C15.727 61.7896 15.7057 61.7255 15.7164 61.6294C15.4388 61.7575 15.4708 61.416 15.1932 61.448V61.3839C15.238 61.3973 15.2853 61.4 15.3312 61.3917C15.3772 61.3835 15.4206 61.3647 15.458 61.3366C15.4954 61.3086 15.5257 61.2722 15.5464 61.2304C15.5672 61.1886 15.5779 61.1425 15.5776 61.0958C15.4903 61.0543 15.3963 61.029 15.3 61.021L15.727 59.8469C15.727 59.8469 15.7804 59.8469 15.7911 59.8469L16.3676 57.9043L16.4744 58.2245C16.3569 58.4166 16.6238 58.4914 16.4744 58.534C16.527 58.5463 16.5818 58.5463 16.6345 58.534L16.816 59.0357C16.6772 59.0357 16.5171 59.1211 16.5064 59.2919C16.5064 59.2919 16.5811 59.2919 16.5811 59.3666C16.5811 59.4413 16.7519 59.2812 16.848 59.2385L17.6594 61.4693C17.6594 61.4693 17.6594 61.4693 17.7128 61.4693L17.8836 61.939H18.6416C18.4281 62.1204 18.4494 62.5474 18.1612 62.6435C18.1821 62.6695 18.1959 62.7006 18.2011 62.7337C18.2063 62.7667 18.2028 62.8005 18.1909 62.8318C18.1791 62.863 18.1593 62.8907 18.1334 62.9119C18.1076 62.9332 18.0767 62.9473 18.0437 62.953C18.1505 63.017 18.2146 63.1024 18.3534 63.0277C18.4921 62.953 18.2786 63.0277 18.2359 63.0277C18.438 62.8853 18.6833 62.8173 18.9299 62.8356C19.1434 62.6968 18.9299 62.4834 19.1968 62.4086C19.1968 62.4086 18.9619 62.2806 19.0046 62.4086C18.8978 62.4086 18.9512 62.2912 18.9299 62.0991C18.8407 62.0871 18.7581 62.0458 18.695 61.9817L22.1967 62.0991L18.7911 64.7569L19.8907 68.7062V68.8022V68.9303L16.7946 66.7956C16.8615 66.7942 16.9264 66.7732 16.9815 66.7353C17.0365 66.6973 17.0792 66.644 17.1043 66.5821C16.9416 66.5997 16.7808 66.6318 16.6238 66.6782L16.3142 66.4647L16.1007 66.6141C15.9299 66.5394 15.7911 66.7635 15.5669 66.8383C15.5924 66.8653 15.6107 66.8984 15.6203 66.9343L15.3641 67.1051C15.3045 67.1305 15.2502 67.1667 15.2039 67.2118L14.6808 67.5747C14.6808 67.5107 14.6167 67.468 14.6061 67.5747C14.5882 67.5698 14.5719 67.5604 14.5588 67.5473C14.5457 67.5342 14.5362 67.5179 14.5313 67.5C14.5313 67.5 14.6274 67.5 14.6915 67.5C14.7555 67.5 14.7555 67.3826 14.6915 67.2652C14.502 67.3079 14.309 67.3329 14.1149 67.3399C14.1149 67.4573 14.2004 67.5107 14.2324 67.6068C14.2644 67.7028 14.1256 68.0124 13.9228 68.0764C13.9228 67.8309 13.6239 67.8629 13.5064 68.0764C13.5078 68.1827 13.5295 68.2878 13.5705 68.386L13.2929 68.5674C13.2929 68.5674 13.2929 68.5674 13.2395 68.5674C13.1861 68.5674 13.2395 68.5674 13.2395 68.6421L12.9833 68.8236C12.9833 68.8236 12.9833 68.7595 13.058 68.7595C13.1328 68.7595 12.8765 68.6848 12.8658 68.5674L13.2395 67.2866H13.3249H13.2502L13.3142 67.0517L13.4957 66.422C13.4957 66.422 13.6345 66.3473 13.6132 66.2298C13.5857 66.2191 13.5552 66.2191 13.5278 66.2298L13.8053 65.2372H13.9548C13.9548 65.1411 14.0722 65.0024 13.9548 64.9703C13.8374 64.9383 13.9548 64.9703 13.9548 64.9703C13.9548 64.9703 13.9014 64.9703 13.8801 64.9703V64.8743H13.9335C13.9335 64.8743 13.9868 64.8743 14.0082 64.8743C14.0295 64.8743 13.9548 64.6928 14.0082 64.6501C14.0616 64.6074 14.1043 64.7782 14.2431 64.7569C14.3819 64.7355 14.4139 64.5327 14.2431 64.4153C14.3391 64.1378 14.6274 64.2338 14.7128 64.031C14.7128 64.031 14.7982 64.031 14.8623 64.031C14.9263 64.031 14.8623 64.2232 14.937 64.2979C15.0117 64.3726 14.873 64.2979 14.8196 64.2979C14.7662 64.2979 14.8943 64.2979 14.8943 64.4153C14.8943 64.5327 14.8943 64.5754 14.7128 64.7675C14.6381 64.6822 14.5847 64.7675 14.5527 64.6821C14.484 64.7896 14.4092 64.893 14.3285 64.9917C14.6167 64.9917 14.4993 65.2372 14.5527 65.3333C14.7875 65.2479 15.0011 65.4293 15.1719 65.5254C15.2359 65.4293 15.2359 65.5254 15.3213 65.4507C15.4068 65.3759 15.3213 65.5788 15.3961 65.6108C15.4318 65.5902 15.4723 65.5793 15.5135 65.5793C15.5547 65.5793 15.5952 65.5902 15.631 65.6108C15.631 65.472 15.5776 65.4613 15.631 65.3333H15.4815C15.5217 65.325 15.5591 65.3068 15.5904 65.2803C15.6217 65.2539 15.6459 65.22 15.6608 65.1818C15.6757 65.1436 15.6807 65.1023 15.6755 65.0616C15.6703 65.0209 15.655 64.9822 15.631 64.949C15.631 64.8743 15.8018 64.949 15.8231 64.8743C15.8445 64.7996 15.7591 64.7462 15.8231 64.6074C15.8504 64.5631 15.8906 64.528 15.9382 64.5071C15.9859 64.4861 16.0389 64.4801 16.09 64.49C16.09 64.394 16.1541 64.3726 16.09 64.2979C16.389 64.2979 16.2822 64.0951 16.4744 63.9563C16.421 63.9563 16.4103 63.9563 16.3569 63.9563C16.3035 63.9563 16.453 63.8709 16.5491 63.8816C16.5848 63.9127 16.6108 63.9535 16.6238 63.999C16.7002 64.0235 16.7823 64.0235 16.8587 63.999C16.8587 63.7535 16.7199 63.7322 16.6665 63.5828C16.6132 63.4333 16.5384 63.6895 16.5064 63.5828C16.453 63.6895 16.5598 63.7322 16.3569 63.7322C16.421 63.8069 16.421 63.7322 16.3569 63.8816C16.2929 64.031 16.2929 63.8816 16.2822 63.8069C16.2822 63.9243 16.1541 63.9777 16.09 64.0737C15.9406 63.9884 15.8338 64.0737 15.7057 63.9563C15.5776 63.8389 15.8445 63.9563 15.7057 63.8069C15.5669 63.6575 15.631 63.9777 15.7057 63.999C15.5562 64.0951 15.4708 63.7962 15.3641 63.7322C15.2573 63.8496 15.0865 63.7322 15.0224 63.8816C14.7982 63.6254 15.1185 63.2946 14.7555 63.2305C14.6915 63.3479 14.7555 63.3799 14.7555 63.5401C14.8516 63.5401 14.937 63.5401 14.9477 63.6148C14.9584 63.6895 14.7448 63.5614 14.7128 63.4974C14.6808 63.4333 14.6381 63.6041 14.5633 63.6148C14.7021 63.7856 14.4032 63.7856 14.5633 63.9243C14.3712 63.9243 14.1363 63.9243 14.1043 63.6895C14.0722 63.4547 14.2431 63.6895 14.179 63.4974C14.0402 63.6148 13.9121 63.4974 13.6879 63.4974C13.6879 63.3052 13.816 63.4974 13.7947 63.3479C13.7733 63.1985 13.5811 63.3479 13.6025 63.1878C13.4957 63.3159 13.3783 63.1024 13.3036 63.1878C13.389 62.9743 13.1007 62.8356 13.0687 62.6114C13.0687 62.6114 13.0687 62.8356 13.0687 62.921C13.0687 63.0064 12.9513 62.921 12.9513 62.8463C12.7804 62.9103 12.9513 63.0491 13.0367 63.0811C12.9299 63.3052 12.6523 63.6895 12.3427 63.4653C12.3371 63.477 12.3341 63.4897 12.3341 63.5027C12.3341 63.5156 12.3371 63.5284 12.3427 63.5401L12.0972 63.2732C12.0972 63.2732 12.1826 63.2732 12.2466 63.2732C12.3107 63.2732 12.2466 63.1451 12.332 63.1558C12.4175 63.1665 12.236 63.0704 12.1292 63.0811C12.0224 63.0918 12.0118 63.2198 12.0224 63.1558C12.0331 63.0918 12.0224 63.1558 12.0224 63.2198L10.9548 62.398V62.3446C10.9124 62.3166 10.8776 62.2785 10.8534 62.2339C10.8292 62.1892 10.8164 62.1392 10.816 62.0884Z" fill="#3E3E4B"></path> <path d="M15.9834 60.6348C15.8873 60.6348 15.9834 60.8803 16.1329 60.8162C16.2823 60.7522 16.0154 60.7095 15.9834 60.6348Z" fill="#3E3E4B"></path> <path d="M19.7413 63.7742C19.8587 63.7742 19.7413 63.582 19.8908 63.6247C19.8267 63.454 19.8908 63.6247 19.6986 63.6247C19.5064 63.6247 19.752 63.6994 19.7413 63.7742Z" fill="#3E3E4B"></path> <path d="M17.3606 66.615C17.3005 66.6049 17.2391 66.6049 17.1791 66.615C17.2431 66.6791 17.2752 66.615 17.3606 66.615Z" fill="#3E3E4B"></path> <path d="M13.7201 66.7622C13.7735 66.8796 13.7201 66.9116 13.7201 66.997C13.7201 67.0824 13.7201 66.9116 13.7949 66.8476C13.9016 67.0184 13.8589 67.0611 13.9123 67.2639C13.9657 67.4667 13.7949 67.2639 13.7201 67.2639C13.6454 67.2639 13.8376 67.424 13.7201 67.456C13.6027 67.488 13.8376 67.456 13.8376 67.5734C13.8376 67.6908 13.9337 67.4667 13.955 67.3813C13.9107 67.4149 13.8712 67.4544 13.8376 67.4987C13.8376 67.4987 13.8376 67.3813 13.7628 67.3066C13.6881 67.2318 13.9764 67.3066 14.0297 67.4133C14.0831 67.52 13.955 67.4987 14.0297 67.6054C14.1045 67.7122 14.1365 67.6054 14.2219 67.6054C14.0191 67.6054 14.0938 67.0931 14.3073 67.1038C14.1258 66.9116 14.0404 66.6768 13.7201 66.7622Z" fill="#3E3E4B"></path> <path d="M16.6666 65.5786C16.6666 65.5039 16.5705 65.4718 16.4744 65.4612C16.5093 65.4302 16.549 65.4049 16.5919 65.3864C16.5919 65.2904 16.4638 65.3864 16.4424 65.3864C16.4211 65.3864 16.4958 65.5039 16.5598 65.5359C16.6239 65.5679 16.4211 65.6319 16.3677 65.696C16.3799 65.7342 16.3799 65.7752 16.3677 65.8134C16.5171 65.8134 16.4851 65.5893 16.6346 65.728C16.6346 65.664 16.5385 65.6106 16.6666 65.5786Z" fill="#3E3E4B"></path> <path d="M15.5564 63.5833C15.6525 63.5833 15.834 63.4552 15.7486 63.3591C15.6632 63.263 15.7486 63.3591 15.8233 63.3591C15.898 63.3591 15.6952 63.3591 15.6738 63.3591C15.6525 63.3591 15.6738 63.5512 15.6738 63.5512C15.6738 63.5512 15.6738 63.5512 15.6738 63.4338C15.6738 63.3164 15.6738 63.5192 15.5671 63.5085C15.5666 63.5338 15.563 63.5589 15.5564 63.5833Z" fill="#3E3E4B"></path> <path d="M14.7877 62.9624C14.8144 62.9592 14.8414 62.9663 14.8632 62.9821C14.8849 62.9979 14.8999 63.0214 14.9051 63.0478C14.9692 63.0478 14.9051 62.9197 15.0546 62.9624C15.0321 62.8821 14.996 62.8063 14.9478 62.7383C14.8731 62.7383 14.8624 62.7383 14.7877 62.7383C14.7129 62.7383 14.7984 62.877 14.7877 62.9624Z" fill="#3E3E4B"></path> <path d="M14.0938 63.5083C14.1898 63.4229 13.987 63.3161 13.9123 63.2734C13.8909 63.4335 14.0724 63.3909 14.0938 63.5083Z" fill="#3E3E4B"></path> <path d="M13.0688 63.8911C13.2609 63.8911 13.2289 63.6456 13.3677 63.5816C13.3677 63.5282 13.3143 63.4855 13.293 63.4321C13.3221 63.3942 13.3637 63.3677 13.4104 63.3574C13.4556 63.4656 13.4789 63.5817 13.4789 63.699C13.4789 63.8162 13.4556 63.9323 13.4104 64.0405C13.4104 64.0405 13.5278 64.0405 13.5278 64.1153C13.5278 64.19 13.4104 64.1153 13.4104 64.1153C13.3869 64.1324 13.3678 64.1549 13.3548 64.1809C13.3418 64.2069 13.3352 64.2356 13.3357 64.2647L13.0901 64.0726C13.0657 64.0657 13.0398 64.0657 13.0154 64.0726H12.9513C12.9513 64.0192 12.9513 63.9658 12.8766 63.9551C12.8019 63.9445 12.8766 63.9551 12.8766 63.8804C12.8766 63.8057 12.962 63.9018 13.0688 63.8911Z" fill="#3E3E4B"></path> <path d="M13.3357 64.2238C13.3357 64.2238 13.3357 64.2238 13.3357 64.1491C13.3357 64.0744 13.4638 64.1491 13.4531 64.2665C13.4425 64.3839 13.5279 64.1384 13.6453 64.1491C13.6191 64.2003 13.6054 64.257 13.6054 64.3145C13.6054 64.3721 13.6191 64.4288 13.6453 64.48L13.3357 64.2238Z" fill="#3E3E4B"></path> <path d="M80.4812 75.334H38.976L40.6094 79.358L38.976 83.5955H80.4812L78.8478 79.358L80.4812 75.334Z" fill="#3E3E4B"></path> <path d="M103.1 53.2923C103.802 53.2923 104.371 52.7236 104.371 52.0221C104.371 51.3206 103.802 50.752 103.1 50.752C102.399 50.752 101.83 51.3206 101.83 52.0221C101.83 52.7236 102.399 53.2923 103.1 53.2923Z" fill="#3E3E4B"></path> <path d="M102.62 75.3333C103.321 75.3333 103.89 74.7647 103.89 74.0632C103.89 73.3617 103.321 72.793 102.62 72.793C101.918 72.793 101.349 73.3617 101.349 74.0632C101.349 74.7647 101.918 75.3333 102.62 75.3333Z" fill="#3E3E4B"></path> <path d="M17.809 53.8685C18.5107 53.8685 19.0795 53.2998 19.0795 52.5983C19.0795 51.8968 18.5107 51.3281 17.809 51.3281C17.1074 51.3281 16.5386 51.8968 16.5386 52.5983C16.5386 53.2998 17.1074 53.8685 17.809 53.8685Z" fill="#3E3E4B"></path> <path d="M18.14 74.7982C18.8416 74.7982 19.4104 74.2295 19.4104 73.528C19.4104 72.8265 18.8416 72.2578 18.14 72.2578C17.4383 72.2578 16.8695 72.8265 16.8695 73.528C16.8695 74.2295 17.4383 74.7982 18.14 74.7982Z" fill="#3E3E4B"></path> </svg> 