<?xml version="1.0" encoding="UTF-8"?> <svg xmlns="http://www.w3.org/2000/svg" width="24" height="30" viewBox="0 0 24 30" fill="none"> <path d="M21.8468 5.15779C19.5821 1.88018 15.993 0 12.0003 0C8.00771 0 4.41856 1.88018 2.15389 5.15779C-0.099646 8.41884 -0.619997 12.5474 0.759185 16.195C1.12808 17.191 1.71448 18.1588 2.49794 19.0657L11.2107 29.2997C11.4077 29.5313 11.6965 29.6648 12.0003 29.6648C12.3042 29.6648 12.593 29.5314 12.79 29.2997L21.5003 19.0684C22.2873 18.1564 22.8729 17.1897 23.2387 16.2016C24.6207 12.5474 24.1003 8.41884 21.8468 5.15779ZM21.2964 15.4751C21.0143 16.2375 20.5537 16.9912 19.9283 17.7162C19.9265 17.7179 19.9248 17.7197 19.9234 17.7218L12.0003 27.0278L4.07243 17.7159C3.44733 16.9916 2.98677 16.2379 2.70188 15.4682C1.56129 12.4516 1.99416 9.03809 3.86014 6.33749C5.73198 3.62826 8.69916 2.07445 12.0003 2.07445C15.3015 2.07445 18.2683 3.6282 20.1402 6.33749C22.0065 9.03809 22.4398 12.4516 21.2964 15.4751Z" fill="#4F4F58"></path> <path d="M12.0003 6.1543C8.7977 6.1543 6.19183 8.75982 6.19183 11.9628C6.19183 15.1658 8.79735 17.7713 12.0003 17.7713C15.2033 17.7713 17.8088 15.1658 17.8088 11.9628C17.8088 8.76016 15.203 6.1543 12.0003 6.1543ZM12.0003 15.6968C9.94142 15.6968 8.26628 14.0217 8.26628 11.9627C8.26628 9.90382 9.94142 8.22869 12.0003 8.22869C14.0593 8.22869 15.7344 9.90382 15.7344 11.9627C15.7344 14.0217 14.0593 15.6968 12.0003 15.6968Z" fill="#4F4F58"></path> </svg> 