<?xml version="1.0" encoding="UTF-8"?> <svg xmlns="http://www.w3.org/2000/svg" width="20" height="20" viewBox="0 0 20 20" fill="none"> <path d="M10.6667 5.33398C10.2987 5.33398 10 5.63265 10 6.00065C10 6.36865 10.2987 6.66732 10.6667 6.66732C12.1373 6.66732 13.3333 7.86332 13.3333 9.33398C13.3333 9.70198 13.632 10.0007 14 10.0007C14.368 10.0007 14.6667 9.70198 14.6667 9.33398C14.6667 7.12865 12.872 5.33398 10.6667 5.33398Z" fill="#148E2D"></path> <path d="M10.6667 2.66602C10.2987 2.66602 10 2.96468 10 3.33268C10 3.70068 10.2987 3.99935 10.6667 3.99935C13.608 3.99935 16 6.39135 16 9.33268C16 9.70068 16.2987 9.99935 16.6667 9.99935C17.0347 9.99935 17.3333 9.70068 17.3333 9.33268C17.3333 5.65668 14.3427 2.66602 10.6667 2.66602Z" fill="#148E2D"></path> <path d="M10.6667 0C10.2987 0 10 0.298667 10 0.666667C10 1.03467 10.2987 1.33333 10.6667 1.33333C15.0787 1.33333 18.6667 4.92133 18.6667 9.33333C18.6667 9.70133 18.9653 10 19.3333 10C19.7013 10 20 9.70133 20 9.33333C20 4.18667 15.812 0 10.6667 0Z" fill="#148E2D"></path> <path d="M18 14.6673C16.064 14.6673 14.22 14.246 12.52 13.4153C12.36 13.3353 12.176 13.326 12.0093 13.3847C11.8413 13.4433 11.704 13.566 11.6267 13.7247L10.5787 15.894C7.86667 14.3807 5.62133 12.1367 4.10933 9.42465L6.27733 8.37398C6.43733 8.29665 6.55867 8.15932 6.61733 7.99132C6.67467 7.82465 6.664 7.64065 6.58533 7.48065C5.75467 5.78065 5.33333 3.93665 5.33333 2.00065C5.33333 1.63265 5.03467 1.33398 4.66667 1.33398H0.666667C0.298667 1.33398 0 1.63265 0 2.00065C0 11.926 8.07467 20.0007 18 20.0007C18.368 20.0007 18.6667 19.702 18.6667 19.334V15.334C18.6667 14.966 18.368 14.6673 18 14.6673Z" fill="#148E2D"></path> </svg> 