<?xml version="1.0" encoding="UTF-8"?> <svg xmlns="http://www.w3.org/2000/svg" width="284" height="50" viewBox="0 0 284 50" fill="none"> <circle cx="25" cy="25" r="24.5" stroke="#19AB38"></circle> <path d="M32.4125 15H17.5875C16.1587 15 15 16.1583 15 17.5875V32.4125C15 33.8417 16.1587 35 17.5875 35H32.4125C33.8419 35 35 33.8419 35 32.4125V17.5875C35 16.1581 33.8419 15 32.4125 15ZM33.3333 32.4125C33.3333 32.9214 32.9214 33.3333 32.4125 33.3333H17.5875C17.0791 33.3333 16.6667 32.9211 16.6667 32.4125V17.5875C16.6667 17.0789 17.0791 16.6667 17.5875 16.6667H32.4125C32.9214 16.6667 33.3333 17.0786 33.3333 17.5875V32.4125Z" fill="#19AB38"></path> <path d="M23.3334 21.6667C22.8732 21.6667 22.5001 22.0398 22.5001 22.5001V24.1667H20.8334V22.5001C20.8334 22.0398 20.4603 21.6667 20.0001 21.6667C19.5398 21.6667 19.1667 22.0398 19.1667 22.5001V27.5001C19.1667 27.9603 19.5398 28.3334 20.0001 28.3334C20.4603 28.3334 20.8334 27.9603 20.8334 27.5001V25.8334H22.5001V27.5001C22.5001 27.9603 22.8732 28.3334 23.3334 28.3334C23.7936 28.3334 24.1667 27.9603 24.1667 27.5001V22.5001C24.1667 22.0398 23.7937 21.6667 23.3334 21.6667Z" fill="#19AB38"></path> <path d="M27.5001 21.6667H26.6668C26.2065 21.6667 25.8334 22.0398 25.8334 22.5001V27.5001C25.8334 27.9603 26.2065 28.3334 26.6668 28.3334H27.5001C29.3411 28.3334 30.8334 26.8411 30.8334 25.0001C30.8334 23.159 29.3412 21.6667 27.5001 21.6667ZM27.5001 26.6667V23.3334C28.4207 23.3334 29.1668 24.0795 29.1668 25.0001C29.1668 25.9207 28.4207 26.6667 27.5001 26.6667Z" fill="#19AB38"></path> <circle cx="102" cy="25" r="24.5" stroke="#19AB38"></circle> <path d="M114.848 20.6489C114.411 19.4791 113.065 18.4898 110.845 17.7085C109.818 17.3467 108.847 17.1142 108.3 16.9968C107.794 15.8955 107.009 14.9511 106.007 14.2466C104.848 13.431 103.484 13 102.062 13C100.64 13 99.2757 13.431 98.1165 14.2466C97.1151 14.9511 96.3299 15.8955 95.8241 16.9969C95.277 17.1142 94.306 17.3467 93.2783 17.7086C91.0589 18.4899 89.7123 19.4792 89.276 20.6489C89.1098 21.0943 89.0274 21.7917 89.5784 22.5852C90.5607 24.0001 93.0909 24.9223 94.5117 25.346C96.8754 26.051 99.5568 26.4393 102.062 26.4393C104.567 26.4393 107.248 26.051 109.612 25.346C111.033 24.9223 113.563 24.0002 114.545 22.5852C115.096 21.7917 115.014 21.0943 114.848 20.6489ZM102.062 14.6839C104.055 14.6839 105.88 15.849 106.734 17.6246C106.29 18.0867 105.024 19.0228 102.062 19.0228C99.9776 19.0228 98.7516 18.5576 98.0902 18.1672C97.7549 17.9694 97.5313 17.7742 97.3893 17.6245C98.2436 15.8489 100.069 14.6839 102.062 14.6839ZM113.162 21.625C112.578 22.4666 110.697 23.2655 109.131 23.7325C106.951 24.3825 104.374 24.7555 102.062 24.7555C97.0343 24.7555 91.9664 23.0727 90.9614 21.6251C90.7972 21.3885 90.8366 21.2827 90.8535 21.2376C91.0954 20.5892 92.1759 19.8844 93.8178 19.3038C94.6946 18.9938 95.5444 18.7836 96.0631 18.6688C96.2804 18.9171 96.6002 19.2157 97.0576 19.5087C98.2985 20.3036 99.9821 20.7067 102.062 20.7067C104.141 20.7067 105.825 20.3036 107.066 19.5087C107.523 19.2156 107.843 18.917 108.06 18.6687C108.579 18.7836 109.429 18.9938 110.306 19.3038C111.948 19.8843 113.028 20.5892 113.27 21.2375C113.287 21.2826 113.326 21.3883 113.162 21.625Z" fill="#19AB38"></path> <path d="M95.6645 22.3167C96.1175 22.3167 96.4846 21.9495 96.4846 21.4966C96.4846 21.0437 96.1175 20.6765 95.6645 20.6765C95.2116 20.6765 94.8444 21.0437 94.8444 21.4966C94.8444 21.9495 95.2116 22.3167 95.6645 22.3167Z" fill="#19AB38"></path> <path d="M108.459 22.3167C108.912 22.3167 109.279 21.9495 109.279 21.4966C109.279 21.0437 108.912 20.6765 108.459 20.6765C108.006 20.6765 107.639 21.0437 107.639 21.4966C107.639 21.9495 108.006 22.3167 108.459 22.3167Z" fill="#19AB38"></path> <path d="M102.062 23.6292C102.515 23.6292 102.882 23.262 102.882 22.8091C102.882 22.3562 102.515 21.989 102.062 21.989C101.609 21.989 101.242 22.3562 101.242 22.8091C101.242 23.262 101.609 23.6292 102.062 23.6292Z" fill="#19AB38"></path> <path d="M102.904 28.6907H101.22V34.1395H102.904V28.6907Z" fill="#19AB38"></path> <path d="M107.123 28.6907H105.439V37.0002H107.123V28.6907Z" fill="#19AB38"></path> <path d="M98.6846 28.6907H97.0009V37.0002H98.6846V28.6907Z" fill="#19AB38"></path> <circle cx="180" cy="25" r="24.5" stroke="#19AB38"></circle> <path d="M188.473 16.9171C188.167 16.5122 187.587 16.4268 187.177 16.7282C186.768 17.0296 186.682 17.601 186.988 18.0058C189.903 21.8703 189.903 28.1552 186.988 32.0197C186.682 32.4246 186.759 33.0049 187.177 33.2974C187.69 33.6528 188.293 33.3514 188.473 33.1084C191.842 28.6501 191.842 21.3845 188.473 16.9171Z" fill="#19AB38"></path> <path d="M186.219 19.9045C185.913 19.4996 185.333 19.4186 184.923 19.7155C184.514 20.0169 184.428 20.5883 184.734 20.9932C186.381 23.1706 186.381 26.8551 184.734 29.0326C184.428 29.4375 184.509 30.0133 184.923 30.3102C185.45 30.6836 186.039 30.3642 186.219 30.1213C188.383 27.26 188.383 22.7702 186.219 19.9045Z" fill="#19AB38"></path> <path d="M181.594 33.1804L175.107 28.1237V21.9063L181.594 16.8541V33.1804ZM173.253 27.6558H170.81V22.3607H173.253V27.6558ZM182.012 14.1503L173.91 20.5342H169.884C169.371 20.5342 168.957 20.9436 168.957 21.4474V28.5646C168.957 29.0685 169.371 29.4779 169.884 29.4779H173.987L182.012 35.8077C182.588 36.2621 183.448 35.8572 183.448 35.1284V14.8297C183.448 14.1008 182.593 13.6915 182.012 14.1503Z" fill="#19AB38"></path> <circle cx="259" cy="25" r="24.5" stroke="#19AB38"></circle> <path d="M258.998 12.9C252.327 12.9 246.9 18.3271 246.9 24.998C246.9 31.6689 252.327 37.096 258.998 37.096C265.669 37.096 271.096 31.6689 271.096 24.998C271.096 18.3271 265.669 12.9 258.998 12.9ZM266.188 17.2162L266.256 17.1428L266.188 17.2162C267.169 18.1229 267.979 19.2116 268.562 20.4284C269.227 21.8128 269.599 23.3626 269.599 24.998C269.599 30.8433 264.843 35.5989 258.998 35.5989C256.086 35.5989 253.445 34.4188 251.527 32.5117C250.761 31.7501 250.111 30.8725 249.605 29.9079C248.834 28.4392 248.397 26.7688 248.397 24.998C248.397 19.1527 253.153 14.3971 258.998 14.3971C261.77 14.3971 264.297 15.4673 266.188 17.2162Z" fill="#19AB38" stroke="#19AB38" stroke-width="0.2"></path> <path d="M254.999 23.7207C255.771 23.7207 256.397 23.095 256.397 22.3232C256.397 21.5513 255.771 20.9256 254.999 20.9256C254.227 20.9256 253.602 21.5513 253.602 22.3232C253.602 23.095 254.227 23.7207 254.999 23.7207Z" fill="#19AB38" stroke="#19AB38" stroke-width="0.2"></path> <path d="M263.025 23.7207C263.797 23.7207 264.422 23.095 264.422 22.3232C264.422 21.5513 263.797 20.9256 263.025 20.9256C262.253 20.9256 261.627 21.5513 261.627 22.3232C261.627 23.095 262.253 23.7207 263.025 23.7207Z" fill="#19AB38" stroke="#19AB38" stroke-width="0.2"></path> <path d="M265.586 28.7487C264.187 26.2683 261.445 24.7606 258.601 24.9085C255.776 25.0547 253.215 26.8245 252.075 29.4182L252.035 29.5097L252.127 29.5499L253.314 30.0719L253.406 30.1121L253.446 30.0205C254.36 27.9408 256.414 26.5208 258.679 26.4036L258.679 26.4036C260.957 26.2851 263.16 27.4948 264.282 29.4842C264.379 29.6577 264.47 29.8381 264.55 30.0204L264.59 30.1119L264.682 30.0717L265.869 29.5499L265.961 29.5097L265.92 29.4182C265.82 29.1905 265.708 28.9652 265.586 28.7487ZM265.586 28.7487L265.498 28.7978M265.586 28.7487C265.586 28.7487 265.586 28.7487 265.586 28.7487L265.498 28.7978M265.498 28.7978C265.603 28.9825 265.7 29.1736 265.788 29.3671L265.789 29.3668L265.829 29.4584L265.737 29.4986L264.641 29.9801C264.56 29.7948 264.468 29.6114 264.369 29.435C263.228 27.4126 260.99 26.1833 258.673 26.3038C256.371 26.4229 254.284 27.8658 253.355 29.9798C253.354 29.98 253.354 29.9801 253.354 29.9803L253.263 29.9401L252.258 29.4986L252.167 29.4584C252.167 29.4581 252.167 29.4579 252.167 29.4576L252.207 29.3668L252.208 29.3671C253.352 26.8578 255.852 25.1509 258.606 25.0084C261.413 24.8624 264.119 26.3505 265.498 28.7978Z" fill="#19AB38" stroke="#19AB38" stroke-width="0.2"></path> <path d="M257.7 19.4548L257.759 19.3737L257.678 19.3151L255.575 17.7947L255.494 17.7361L255.435 17.8171L254.675 18.8687L254.616 18.9498L254.697 19.0084L256.8 20.5288L256.882 20.5874L256.94 20.5064L257.7 19.4548Z" fill="#19AB38" stroke="#19AB38" stroke-width="0.2"></path> <path d="M263.298 19.0084L263.379 18.9498L263.321 18.8687L262.56 17.8171L262.502 17.7361L262.421 17.7947L260.318 19.3151L260.237 19.3737L260.295 19.4548L261.055 20.5064L261.114 20.5874L261.195 20.5288L263.298 19.0084Z" fill="#19AB38" stroke="#19AB38" stroke-width="0.2"></path> <path d="M215 23H223.5" stroke="#19AB38"></path> <path d="M215 27H223.5" stroke="#19AB38"></path> <path d="M63.2426 29.4853V25.2427M63.2426 21V25.2427M63.2426 25.2427H67.4853L59 25.2427" stroke="#19AB38"></path> <path d="M145.485 25.2427H137" stroke="#19AB38"></path> </svg> 