<?xml version="1.0" encoding="UTF-8"?> <svg xmlns="http://www.w3.org/2000/svg" width="66" height="57" viewBox="0 0 66 57" fill="none"> <path d="M14.1935 31.9355L26.9677 44.7097L52.1613 19.5161" stroke="#14C54D" stroke-width="5.5"></path> <path d="M36.5209 65.8116C31.5661 66.3433 26.5552 65.746 21.8643 64.0644C17.1733 62.3828 12.9241 59.6607 9.43549 56.1022C5.94687 52.5438 3.30945 48.2415 1.72112 43.5182C0.132799 38.7948 -0.365179 33.7731 0.264556 28.8298C0.894292 23.8865 2.63539 19.15 5.35719 14.9757C8.079 10.8014 11.7108 7.29778 15.9802 4.72765C20.2495 2.15753 25.0455 0.587679 30.0082 0.135897C34.971 -0.315884 39.9716 0.362136 44.6348 2.11908L42.9759 6.52223C38.9775 5.0158 34.6899 4.43445 30.4348 4.82182C26.1797 5.20918 22.0675 6.55519 18.4069 8.75886C14.7463 10.9625 11.6324 13.9666 9.29863 17.5457C6.96492 21.1248 5.47207 25.1859 4.93213 29.4244C4.39219 33.6629 4.81916 37.9686 6.18101 42.0184C7.54287 46.0683 9.80423 49.7572 12.7954 52.8082C15.7866 55.8593 19.43 58.1933 23.4521 59.6351C27.4742 61.0769 31.7706 61.5891 36.0189 61.1332L36.5209 65.8116Z" fill="#14C54D"></path> </svg> 