<?xml version="1.0" encoding="UTF-8"?> <svg xmlns="http://www.w3.org/2000/svg" width="12" height="18" viewBox="0 0 12 18" fill="none"> <g opacity="0.8"> <path d="M6 0.844444C2.6916 0.844444 0 3.53604 0 6.84444C0 7.96224 0.309633 9.05311 0.895634 9.99951L5.65847 17.6747C5.7497 17.8218 5.91043 17.9111 6.0833 17.9111C6.08463 17.9111 6.08593 17.9111 6.08727 17.9111C6.26163 17.9097 6.4227 17.8176 6.51227 17.668L11.1537 9.91844C11.7074 8.99204 12 7.92908 12 6.84444C12 3.53604 9.3084 0.844444 6 0.844444ZM10.2955 9.40504L6.07573 16.4506L1.74557 9.47264C1.2578 8.68491 0.993333 7.77611 0.993333 6.84444C0.993333 4.08744 3.243 1.83778 6 1.83778C8.757 1.83778 11.0033 4.08744 11.0033 6.84444C11.0033 7.74848 10.7563 8.63404 10.2955 9.40504Z" fill="#7F8989"></path> <path d="M6 3.84444C4.3458 3.84444 3 5.19024 3 6.84444C3 8.48808 4.3239 9.84444 6 9.84444C7.69677 9.84444 9 8.47001 9 6.84444C9 5.19024 7.6542 3.84444 6 3.84444ZM6 8.85111C4.89143 8.85111 3.99333 7.95001 3.99333 6.84444C3.99333 5.74164 4.8972 4.83778 6 4.83778C7.1028 4.83778 8.00333 5.74164 8.00333 6.84444C8.00333 7.93388 7.12613 8.85111 6 8.85111Z" fill="#7F8989"></path> </g> </svg> 