<?xml version="1.0" encoding="UTF-8"?> <svg xmlns="http://www.w3.org/2000/svg" width="67" height="57" viewBox="0 0 67 57" fill="none"> <path d="M33.4415 11.9597C34.4962 11.9597 35.3513 11.1037 35.3513 10.0478V2.27274C35.3513 1.21686 34.4962 0.36084 33.4415 0.36084C32.3868 0.36084 31.5317 1.21686 31.5317 2.27274V10.0478C31.5317 11.1037 32.3868 11.9597 33.4415 11.9597Z" fill="#14C54D"></path> <path d="M22.9067 12.5259C23.2114 13.2622 23.9225 13.7067 24.6719 13.7067C24.9155 13.7067 25.163 13.6598 25.402 13.5606C26.3764 13.1565 26.8392 12.0381 26.4356 11.0625L24.9739 7.52982C24.5703 6.55424 23.453 6.09117 22.4785 6.49509C21.5041 6.89914 21.0413 8.01761 21.4449 8.99319L22.9067 12.5259Z" fill="#14C54D"></path> <path d="M41.481 13.5605C41.72 13.6596 41.9675 13.7066 42.211 13.7066C42.9605 13.7066 43.6717 13.2622 43.9762 12.5258L45.4379 8.99313C45.8415 8.01755 45.3787 6.89922 44.4043 6.49504C43.4301 6.09125 42.3125 6.55418 41.9089 7.52976L40.4472 11.0624C40.0436 12.038 40.5064 13.1565 41.481 13.5605Z" fill="#14C54D"></path> <path d="M2.75688 34.9024H10.5235C11.5783 34.9024 12.4333 34.0464 12.4333 32.9905C12.4333 31.9346 11.5783 31.0786 10.5235 31.0786H2.75688C1.70214 31.0786 0.847046 31.9346 0.847046 32.9905C0.847046 34.0464 1.70214 34.9024 2.75688 34.9024Z" fill="#14C54D"></path> <path d="M54.4496 32.9905C54.4496 34.0464 55.3047 34.9024 56.3594 34.9024H64.1261C65.1808 34.9024 66.0359 34.0464 66.0359 32.9905C66.0359 31.9346 65.1808 31.0786 64.1261 31.0786H56.3594C55.3047 31.0786 54.4496 31.9346 54.4496 32.9905Z" fill="#14C54D"></path> <path d="M15.8855 18.1197C16.2585 18.493 16.7473 18.6797 17.2359 18.6797C17.7246 18.6797 18.2135 18.4931 18.5863 18.1197C19.3321 17.373 19.3321 16.1625 18.5863 15.4159L13.1845 10.0082C12.4388 9.26158 11.2295 9.26158 10.4836 10.0082C9.73779 10.7549 9.73779 11.9654 10.4836 12.7121L15.8855 18.1197Z" fill="#14C54D"></path> <path d="M49.6469 18.6797C50.1356 18.6797 50.6245 18.493 50.9973 18.1197L56.3992 12.7121C57.145 11.9655 57.145 10.7549 56.3992 10.0082C55.6536 9.26158 54.4443 9.26158 53.6983 10.0082L48.2964 15.4159C47.5505 16.1624 47.5505 17.373 48.2964 18.1197C48.6694 18.493 49.1581 18.6797 49.6469 18.6797Z" fill="#14C54D"></path> <path d="M52.8505 24.9422C53.1551 25.6785 53.8662 26.123 54.6156 26.123C54.8592 26.123 55.1067 26.0761 55.3457 25.9769L58.8746 24.5137C59.849 24.1096 60.3118 22.9912 59.9082 22.0157C59.5044 21.0401 58.3872 20.5769 57.4128 20.981L53.8839 22.4442C52.9097 22.8483 52.447 23.9667 52.8505 24.9422Z" fill="#14C54D"></path> <path d="M8.0083 24.5137L11.5373 25.977C11.7764 26.076 12.0238 26.1231 12.2673 26.1231C13.0168 26.1231 13.728 25.6786 14.0325 24.9423C14.4362 23.9667 13.9733 22.8484 12.9989 22.4442L9.46996 20.9809C8.49531 20.577 7.37819 21.0401 6.97457 22.0157C6.57109 22.9912 7.03391 24.1097 8.0083 24.5137Z" fill="#14C54D"></path> <path d="M64.1261 38.7265H49.6471C50.2932 36.8935 50.6299 34.9529 50.6299 32.9908C50.6299 23.5028 42.9192 15.7837 33.4415 15.7837C23.9638 15.7837 16.253 23.5028 16.253 32.9908C16.253 34.9529 16.5898 36.8935 17.2358 38.7265H2.75688C1.70214 38.7265 0.847046 39.5825 0.847046 40.6384C0.847046 41.6943 1.70214 42.5503 2.75688 42.5503H46.6646C46.6678 42.5503 46.6711 42.5506 46.6743 42.5506C46.6775 42.5506 46.6807 42.5503 46.6839 42.5503H64.1261C65.1808 42.5503 66.0359 41.6943 66.0359 40.6384C66.0359 39.5825 65.1808 38.7265 64.1261 38.7265Z" fill="#14C54D"></path> <path d="M56.4867 46.3735H10.3962C9.34142 46.3735 8.48633 47.2296 8.48633 48.2854C8.48633 49.3413 9.34142 50.1973 10.3962 50.1973H56.4867C57.5415 50.1973 58.3965 49.3413 58.3965 48.2854C58.3965 47.2296 57.5415 46.3735 56.4867 46.3735Z" fill="#14C54D"></path> <path d="M48.8474 54.0215H18.0355C16.9808 54.0215 16.1257 54.8775 16.1257 55.9334C16.1257 56.9893 16.9808 57.8453 18.0355 57.8453H48.8474C49.9022 57.8453 50.7573 56.9893 50.7573 55.9334C50.7573 54.8775 49.9022 54.0215 48.8474 54.0215Z" fill="#14C54D"></path> </svg> 