<?xml version="1.0" encoding="UTF-8"?> <svg xmlns="http://www.w3.org/2000/svg" width="28" height="28" viewBox="0 0 28 28" fill="none"> <path d="M4.17346 4.17346C9.60502 -1.25825 18.3956 -1.25739 23.8264 4.17346C29.258 9.60507 29.2572 18.3957 23.8264 23.8264C18.3948 29.2581 9.60421 29.2572 4.17346 23.8264C-1.25825 18.3948 -1.25739 9.60421 4.17346 4.17346L4.10275 4.10275L4.17346 4.17346ZM2.20243 13.9999C2.20243 20.5051 7.49467 25.7973 13.9999 25.7973C20.5051 25.7973 25.7973 20.5051 25.7973 13.9999C25.7973 7.49472 20.5051 2.20248 13.9999 2.20248C7.49467 2.20248 2.20243 7.49472 2.20243 13.9999Z" fill="#25DC4B" stroke="#15161A" stroke-width="0.2"></path> <path d="M12.8059 7.30631L12.8059 7.3063C13.4996 6.81062 14.4656 7.30844 14.4656 8.16038V19.8396C14.4656 20.6923 13.4992 21.189 12.8059 20.6938L9.01803 17.9881L8.99195 17.9695H8.95991H6.99244C6.41272 17.9695 5.94277 17.4995 5.94277 16.9198V11.0803C5.94277 10.5005 6.41272 10.0306 6.99244 10.0306H8.95991H8.99195L9.01803 10.012L12.8059 7.30631ZM12.2082 17.6869L12.3663 17.7999V17.6056V10.3945V10.2002L12.2082 10.3131L9.9384 11.9344L9.93838 11.9344C9.76081 12.0613 9.61225 12.11 9.3607 12.1277C9.19326 12.1394 8.98727 12.1371 8.70381 12.1339C8.54365 12.132 8.35876 12.1299 8.14211 12.1299H8.04211V12.2299V15.7701V15.8701H8.14211C8.36098 15.8701 8.54723 15.8682 8.70804 15.8664C8.99788 15.8633 9.20504 15.8611 9.37155 15.873C9.61932 15.8908 9.76145 15.9392 9.93838 16.0657L9.9384 16.0657L12.2082 17.6869Z" fill="#25DC4B" stroke="#15161A" stroke-width="0.2"></path> <path d="M16.454 12.2483C16.454 11.6686 16.924 11.1986 17.5037 11.1986C18.0834 11.1986 18.5533 11.6686 18.5533 12.2483V15.752C18.5533 16.3318 18.0834 16.8017 17.5037 16.8017C16.924 16.8017 16.454 16.3318 16.454 15.752V12.2483Z" fill="#25DC4B" stroke="#15161A" stroke-width="0.2"></path> </svg> 