<?xml version="1.0" encoding="UTF-8"?> <svg xmlns="http://www.w3.org/2000/svg" width="508" height="109" viewBox="0 0 508 109" fill="none"> <path d="M18.652 58.38V57.5215H17.9051L17.8018 58.2612L18.652 58.38ZM30.492 58.38L31.3422 58.4988L31.4788 57.5215H30.492V58.38ZM23.98 105L23.1298 104.881L22.9932 105.859H23.98V105ZM34.34 105V105.859H35.0867L35.1902 105.119L34.34 105ZM48.844 1.39999L49.6942 1.51902L49.8311 0.541491H48.844V1.39999ZM38.484 1.39999V0.541491H37.7371L37.6338 1.28123L38.484 1.39999ZM31.972 48.02V48.8785H32.7189L32.8223 48.1388L31.972 48.02ZM20.132 48.02L19.2818 47.9012L19.1452 48.8785H20.132V48.02ZM26.644 1.39999L27.4942 1.51876L27.6308 0.541491H26.644V1.39999ZM16.284 1.39999V0.541491H15.5373L15.4338 1.28096L16.284 1.39999ZM1.78 105L0.929789 104.881L0.792934 105.859H1.78V105ZM12.14 105V105.859H12.8869L12.9902 105.119L12.14 105ZM18.652 59.2385H30.492V57.5215H18.652V59.2385ZM29.6418 58.2612L23.1298 104.881L24.8302 105.119L31.3422 58.4988L29.6418 58.2612ZM23.98 105.859H34.34V104.141H23.98V105.859ZM35.1902 105.119L49.6942 1.51902L47.9938 1.28096L33.4898 104.881L35.1902 105.119ZM48.844 0.541491H38.484V2.2585H48.844V0.541491ZM37.6338 1.28123L31.1218 47.9012L32.8223 48.1388L39.3343 1.51876L37.6338 1.28123ZM31.972 47.1615H20.132V48.8785H31.972V47.1615ZM20.9822 48.1388L27.4942 1.51876L25.7938 1.28123L19.2818 47.9012L20.9822 48.1388ZM26.644 0.541491H16.284V2.2585H26.644V0.541491ZM15.4338 1.28096L0.929789 104.881L2.63021 105.119L17.1342 1.51902L15.4338 1.28096ZM1.78 105.859H12.14V104.141H1.78V105.859ZM12.9902 105.119L19.5022 58.4988L17.8018 58.2612L11.2898 104.881L12.9902 105.119ZM125.81 1.39999V0.541491H125.063L124.96 1.28096L125.81 1.39999ZM113.378 90.2L114.225 90.3411L114.226 90.3301L114.228 90.319L113.378 90.2ZM102.278 95.232L102.965 94.7169L102.948 94.6945L102.93 94.6733L102.278 95.232ZM101.538 90.2L102.382 90.3582L102.385 90.3387L102.388 90.319L101.538 90.2ZM113.97 1.39999L114.82 1.51902L114.957 0.541491H113.97V1.39999ZM103.61 1.39999V0.541491H102.863L102.76 1.28096L103.61 1.39999ZM91.1778 90.2L92.0246 90.3411L92.0264 90.3301L92.028 90.319L91.1778 90.2ZM93.8418 102.632L94.509 102.092L94.4949 102.074L94.4799 102.058L93.8418 102.632ZM117.374 102.632L116.81 101.984L116.808 101.986L117.374 102.632ZM123.738 90.2L124.585 90.3411L124.586 90.3301L124.588 90.319L123.738 90.2ZM136.17 1.39999L137.02 1.51902L137.157 0.541491H136.17V1.39999ZM124.96 1.28096L112.528 90.081L114.228 90.319L126.66 1.51902L124.96 1.28096ZM112.531 90.0589C112.18 92.1635 111.461 93.6323 110.473 94.5733C109.498 95.5017 108.172 96.0015 106.422 96.0015V97.7185C108.519 97.7185 110.301 97.1083 111.657 95.8167C113 94.5377 113.835 92.6765 114.225 90.3411L112.531 90.0589ZM106.422 96.0015C104.625 96.0015 103.62 95.5912 102.965 94.7169L101.591 95.7471C102.711 97.2408 104.371 97.7185 106.422 97.7185V96.0015ZM102.93 94.6733C102.289 93.9265 101.958 92.6191 102.382 90.3582L100.694 90.0418C100.23 92.5169 100.49 94.4655 101.626 95.7907L102.93 94.6733ZM102.388 90.319L114.82 1.51902L113.12 1.28096L100.688 90.081L102.388 90.319ZM113.97 0.541491H103.61V2.2585H113.97V0.541491ZM102.76 1.28096L90.3276 90.081L92.028 90.319L104.46 1.51902L102.76 1.28096ZM90.331 90.0589C89.4163 95.5467 90.3077 99.9886 93.2037 103.206L94.4799 102.058C92.0479 99.3554 91.1632 95.5093 92.0246 90.3411L90.331 90.0589ZM93.1745 103.172C95.8956 106.533 99.8739 108.079 104.942 108.079V106.361C100.242 106.361 96.82 104.947 94.509 102.092L93.1745 103.172ZM104.942 108.079C109.875 108.079 114.223 106.53 117.939 103.278L116.808 101.986C113.421 104.95 109.48 106.361 104.942 106.361V108.079ZM117.937 103.28C121.526 100.159 123.672 95.8161 124.585 90.3411L122.891 90.0589C122.027 95.2399 120.03 99.1847 116.81 101.984L117.937 103.28ZM124.588 90.319L137.02 1.51902L135.32 1.28096L122.888 90.081L124.588 90.319ZM136.17 0.541491H125.81V2.2585H136.17V0.541491ZM198.336 85.76L197.477 85.7834L197.5 86.6185H198.336V85.76ZM207.956 85.76V86.6185H208.591L208.776 86.0112L207.956 85.76ZM222.904 36.92V36.0615H222.269L222.083 36.6688L222.904 36.92ZM223.644 36.92L224.497 37.0109L224.598 36.0615H223.644V36.92ZM216.392 105L215.538 104.909L215.437 105.859H216.392V105ZM226.752 105V105.859H227.531L227.606 105.083L226.752 105ZM236.816 1.39999L237.67 1.483L237.762 0.541491H236.816V1.39999ZM223.496 1.39999V0.541491H222.849L222.67 1.16328L223.496 1.39999ZM207.364 57.64V58.4985H208.01L208.189 57.8767L207.364 57.64ZM206.624 57.64L205.765 57.6423L205.767 58.4985H206.624V57.64ZM206.476 1.39999L207.334 1.39773L207.332 0.541491H206.476V1.39999ZM193.156 1.39999V0.541491H192.44L192.311 1.24557L193.156 1.39999ZM174.212 105L173.367 104.846L173.182 105.859H174.212V105ZM184.572 105V105.859H185.295L185.418 105.145L184.572 105ZM196.264 36.92V36.0615H195.54L195.417 36.7747L196.264 36.92ZM197.004 36.92L197.862 36.8966L197.839 36.0615H197.004V36.92ZM198.336 86.6185H207.956V84.9015H198.336V86.6185ZM208.776 86.0112L223.724 37.1712L222.083 36.6688L207.135 85.5088L208.776 86.0112ZM222.904 37.7785H223.644V36.0615H222.904V37.7785ZM222.79 36.8291L215.538 104.909L217.245 105.091L224.497 37.0109L222.79 36.8291ZM216.392 105.859H226.752V104.141H216.392V105.859ZM227.606 105.083L237.67 1.483L235.961 1.31699L225.897 104.917L227.606 105.083ZM236.816 0.541491H223.496V2.2585H236.816V0.541491ZM222.67 1.16328L206.538 57.4033L208.189 57.8767L224.321 1.6367L222.67 1.16328ZM207.364 56.7815H206.624V58.4985H207.364V56.7815ZM207.482 57.6377L207.334 1.39773L205.617 1.40225L205.765 57.6423L207.482 57.6377ZM206.476 0.541491H193.156V2.2585H206.476V0.541491ZM192.311 1.24557L173.367 104.846L175.056 105.154L194 1.55442L192.311 1.24557ZM174.212 105.859H184.572V104.141H174.212V105.859ZM185.418 105.145L197.11 37.0653L195.417 36.7747L183.725 104.855L185.418 105.145ZM196.264 37.7785H197.004V36.0615H196.264V37.7785ZM196.145 36.9434L197.477 85.7834L199.194 85.7366L197.862 36.8966L196.145 36.9434ZM301.126 85.76L300.268 85.7834L300.291 86.6185H301.126V85.76ZM310.746 85.76V86.6185H311.381L311.567 86.0112L310.746 85.76ZM325.694 36.92V36.0615H325.059L324.873 36.6688L325.694 36.92ZM326.434 36.92L327.288 37.0109L327.389 36.0615H326.434V36.92ZM319.182 105L318.329 104.909L318.227 105.859H319.182V105ZM329.542 105V105.859H330.321L330.397 105.083L329.542 105ZM339.606 1.39999L340.461 1.483L340.552 0.541491H339.606V1.39999ZM326.286 1.39999V0.541491H325.639L325.461 1.16328L326.286 1.39999ZM310.154 57.64V58.4985H310.801L310.979 57.8767L310.154 57.64ZM309.414 57.64L308.556 57.6423L308.558 58.4985H309.414V57.64ZM309.266 1.39999L310.125 1.39773L310.122 0.541491H309.266V1.39999ZM295.946 1.39999V0.541491H295.23L295.102 1.24557L295.946 1.39999ZM277.002 105L276.158 104.846L275.972 105.859H277.002V105ZM287.362 105V105.859H288.086L288.208 105.145L287.362 105ZM299.054 36.92V36.0615H298.331L298.208 36.7747L299.054 36.92ZM299.794 36.92L300.652 36.8966L300.63 36.0615H299.794V36.92ZM301.126 86.6185H310.746V84.9015H301.126V86.6185ZM311.567 86.0112L326.515 37.1712L324.873 36.6688L309.925 85.5088L311.567 86.0112ZM325.694 37.7785H326.434V36.0615H325.694V37.7785ZM325.581 36.8291L318.329 104.909L320.036 105.091L327.288 37.0109L325.581 36.8291ZM319.182 105.859H329.542V104.141H319.182V105.859ZM330.397 105.083L340.461 1.483L338.752 1.31699L328.688 104.917L330.397 105.083ZM339.606 0.541491H326.286V2.2585H339.606V0.541491ZM325.461 1.16328L309.329 57.4033L310.979 57.8767L327.111 1.6367L325.461 1.16328ZM310.154 56.7815H309.414V58.4985H310.154V56.7815ZM310.273 57.6377L310.125 1.39773L308.408 1.40225L308.556 57.6423L310.273 57.6377ZM309.266 0.541491H295.946V2.2585H309.266V0.541491ZM295.102 1.24557L276.158 104.846L277.847 105.154L296.791 1.55442L295.102 1.24557ZM277.002 105.859H287.362V104.141H277.002V105.859ZM288.208 105.145L299.9 37.0653L298.208 36.7747L286.516 104.855L288.208 105.145ZM299.054 37.7785H299.794V36.0615H299.054V37.7785ZM298.936 36.9434L300.268 85.7834L301.984 85.7366L300.652 36.8966L298.936 36.9434ZM405.397 11.76V10.9015H404.649L404.546 11.642L405.397 11.76ZM423.157 11.76V12.6185H423.901L424.007 11.8814L423.157 11.76ZM424.637 1.39999L425.487 1.5214L425.627 0.541491H424.637V1.39999ZM396.517 1.39999V0.541491H395.77L395.667 1.28096L396.517 1.39999ZM382.013 105L381.163 104.881L381.026 105.859H382.013V105ZM410.133 105V105.859H410.888L410.984 105.109L410.133 105ZM411.465 94.64L412.316 94.7495L412.441 93.7815H411.465V94.64ZM393.705 94.64L392.855 94.5186L392.715 95.4985H393.705V94.64ZM398.885 58.38V57.5215H398.14L398.035 58.2586L398.885 58.38ZM412.205 58.38V59.2385H412.949L413.055 58.5014L412.205 58.38ZM413.685 48.02L414.535 48.1414L414.675 47.1615H413.685V48.02ZM400.365 48.02L399.514 47.902L399.379 48.8785H400.365V48.02ZM405.397 12.6185H423.157V10.9015H405.397V12.6185ZM424.007 11.8814L425.487 1.5214L423.787 1.27858L422.307 11.6386L424.007 11.8814ZM424.637 0.541491H396.517V2.2585H424.637V0.541491ZM395.667 1.28096L381.163 104.881L382.863 105.119L397.367 1.51902L395.667 1.28096ZM382.013 105.859H410.133V104.141H382.013V105.859ZM410.984 105.109L412.316 94.7495L410.613 94.5305L409.281 104.891L410.984 105.109ZM411.465 93.7815H393.705V95.4985H411.465V93.7815ZM394.555 94.7614L399.735 58.5014L398.035 58.2586L392.855 94.5186L394.555 94.7614ZM398.885 59.2385H412.205V57.5215H398.885V59.2385ZM413.055 58.5014L414.535 48.1414L412.835 47.8986L411.355 58.2586L413.055 58.5014ZM413.685 47.1615H400.365V48.8785H413.685V47.1615ZM401.215 48.138L406.247 11.878L404.546 11.642L399.514 47.902L401.215 48.138ZM505.941 18.42L505.091 18.2986V18.2986L505.941 18.42ZM503.129 5.988L503.781 5.42929L503.774 5.42141L503.767 5.41369L503.129 5.988ZM475.749 1.39999V0.541491H475.002L474.899 1.28096L475.749 1.39999ZM461.245 105L460.395 104.881L460.258 105.859H461.245V105ZM471.605 105V105.859H472.353L472.455 105.118L471.605 105ZM476.933 66.52V65.6615H476.185L476.082 66.4023L476.933 66.52ZM482.853 66.52L483.711 66.4903L483.682 65.6615H482.853V66.52ZM484.185 105L483.327 105.03L483.356 105.859H484.185V105ZM495.285 105V105.859H496.194L496.142 104.951L495.285 105ZM492.917 63.56L492.5 62.8095L492.029 63.0712L492.06 63.609L492.917 63.56ZM496.617 60.452L497.258 61.0224L497.282 60.9957L497.304 60.9671L496.617 60.452ZM499.429 56.012L498.661 55.6281L499.429 56.012ZM501.501 49.5L502.348 49.6411L502.349 49.6313L502.351 49.6214L501.501 49.5ZM491.141 49.5L490.291 49.3786L490.29 49.3865L491.141 49.5ZM478.413 56.16L477.563 56.041L477.426 57.0185H478.413V56.16ZM484.629 11.76V10.9015H483.882L483.779 11.641L484.629 11.76ZM495.581 18.42L496.431 18.5414L496.432 18.5335L495.581 18.42ZM506.791 18.5414C507.554 13.2016 506.654 8.78143 503.781 5.42929L502.477 6.5467C504.932 9.41057 505.808 13.2784 505.091 18.2986L506.791 18.5414ZM503.767 5.41369C500.923 2.25337 496.981 0.541491 492.029 0.541491V2.2585C496.549 2.2585 500.007 3.80262 502.491 6.5623L503.767 5.41369ZM492.029 0.541491H475.749V2.2585H492.029V0.541491ZM474.899 1.28096L460.395 104.881L462.095 105.119L476.599 1.51902L474.899 1.28096ZM461.245 105.859H471.605V104.141H461.245V105.859ZM472.455 105.118L477.783 66.6377L476.082 66.4023L470.754 104.882L472.455 105.118ZM476.933 67.3785H482.853V65.6615H476.933V67.3785ZM481.995 66.5497L483.327 105.03L485.043 104.97L483.711 66.4903L481.995 66.5497ZM484.185 105.859H495.285V104.141H484.185V105.859ZM496.142 104.951L493.774 63.511L492.06 63.609L494.428 105.049L496.142 104.951ZM493.334 64.3105C494.776 63.509 496.034 62.4003 497.258 61.0224L495.975 59.8816C494.832 61.1677 493.721 62.131 492.5 62.8095L493.334 64.3105ZM497.304 60.9671C498.205 59.7655 499.275 58.2385 500.197 56.3959L498.661 55.6281C497.806 57.3375 496.805 58.7705 495.93 59.9369L497.304 60.9671ZM500.197 56.3959C501.122 54.5456 501.889 52.392 502.348 49.6411L500.654 49.3589C500.224 51.936 499.512 53.9263 498.661 55.6281L500.197 56.3959ZM502.351 49.6214L506.791 18.5414L505.091 18.2986L500.651 49.3786L502.351 49.6214ZM490.29 49.3865C490.01 51.4842 489.326 52.9442 488.361 53.8781C487.407 54.8008 486.085 55.3015 484.333 55.3015V57.0185C486.428 57.0185 488.214 56.4092 489.555 55.1119C490.884 53.8258 491.68 51.9558 491.992 49.6135L490.29 49.3865ZM484.333 55.3015H478.413V57.0185H484.333V55.3015ZM479.263 56.279L485.479 11.879L483.779 11.641L477.563 56.041L479.263 56.279ZM484.629 12.6185H490.549V10.9015H484.629V12.6185ZM490.549 12.6185C492.316 12.6185 493.417 13.1237 494.049 13.9473C494.7 14.7974 495.012 16.1899 494.73 18.3065L496.432 18.5335C496.742 16.2101 496.461 14.2726 495.411 12.9027C494.341 11.5062 492.629 10.9015 490.549 10.9015V12.6185ZM494.731 18.2986L490.291 49.3786L491.991 49.6214L496.431 18.5414L494.731 18.2986Z" fill="#2A2A34"></path> </svg> 