<?xml version="1.0" encoding="UTF-8"?> <svg xmlns="http://www.w3.org/2000/svg" width="20" height="20" viewBox="0 0 20 20" fill="none"> <path d="M14.7394 0.9375H6.1983C3.29776 0.9375 0.937988 3.29739 0.937988 6.19792V14.7391C0.937988 17.6397 3.29776 19.9995 6.1983 19.9995H14.7394C17.6402 19.9995 20 17.6396 20 14.7391V6.19792C20.0001 3.29739 17.6402 0.9375 14.7394 0.9375ZM18.3088 14.7391C18.3088 16.7072 16.7076 18.3082 14.7396 18.3082H6.1983C4.23033 18.3083 2.62926 16.7072 2.62926 14.7391V6.19792C2.62926 4.22996 4.23033 2.62877 6.1983 2.62877H14.7394C16.7075 2.62877 18.3087 4.22996 18.3087 6.19792V14.7391H18.3088Z" fill="#148E2D"></path> <path d="M10.469 5.55859C7.76058 5.55859 5.55719 7.76198 5.55719 10.4704C5.55719 13.1787 7.76058 15.382 10.469 15.382C13.1774 15.382 15.3808 13.1787 15.3808 10.4704C15.3808 7.76198 13.1774 5.55859 10.469 5.55859ZM10.469 13.6906C8.69326 13.6906 7.24846 12.246 7.24846 10.4703C7.24846 8.69444 8.69315 7.24975 10.469 7.24975C12.2448 7.24975 13.6895 8.69444 13.6895 10.4703C13.6895 12.246 12.2447 13.6906 10.469 13.6906Z" fill="#148E2D"></path> <path d="M15.5868 4.12305C15.261 4.12305 14.9409 4.25497 14.7107 4.48611C14.4795 4.71612 14.3466 5.03633 14.3466 5.36331C14.3466 5.68928 14.4796 6.00938 14.7107 6.24052C14.9408 6.47053 15.261 6.60358 15.5868 6.60358C15.9138 6.60358 16.2329 6.47053 16.464 6.24052C16.6952 6.00938 16.8271 5.68917 16.8271 5.36331C16.8271 5.03633 16.6952 4.71612 16.464 4.48611C16.234 4.25497 15.9138 4.12305 15.5868 4.12305Z" fill="#148E2D"></path> </svg> 