<svg width="300" height="55" viewBox="0 0 300 55" fill="none" xmlns="http://www.w3.org/2000/svg">
<rect x="1" y="1" width="298" height="53" stroke="#1A9F36" stroke-width="2"/>
<path d="M26.4446 20.2334H29.7332L31.6228 28.6123H31.6521L33.5418 20.2334H36.845V31H34.7723V21.9985H34.743L32.6995 31H30.5096L28.5467 21.9985H28.5174V31H26.4446V20.2334ZM45.7838 29.4253C45.7838 29.6646 45.796 29.8623 45.8204 30.0186C45.8497 30.1699 45.8863 30.292 45.9303 30.3848C45.9742 30.4727 46.023 30.5386 46.0768 30.5825C46.1353 30.6216 46.1964 30.6509 46.2599 30.6704V31H43.9674C43.9283 30.9072 43.8844 30.7852 43.8355 30.6338C43.7916 30.4775 43.7696 30.2896 43.7696 30.0698C43.6085 30.2358 43.4498 30.3896 43.2936 30.5312C43.1422 30.6729 42.9713 30.7974 42.7809 30.9048C42.5904 31.0073 42.3707 31.0879 42.1217 31.1465C41.8727 31.21 41.5724 31.2417 41.2208 31.2417C40.8644 31.2417 40.5348 31.188 40.232 31.0806C39.9342 30.978 39.6754 30.8242 39.4557 30.6191C39.2359 30.4141 39.065 30.1577 38.943 29.8501C38.8209 29.5425 38.7599 29.186 38.7599 28.7808C38.7599 28.4536 38.8111 28.1509 38.9137 27.8726C39.0162 27.5894 39.1603 27.3428 39.3458 27.1328C39.5362 26.918 39.7657 26.7422 40.0343 26.6055C40.3077 26.4639 40.6129 26.3687 40.9498 26.3198L42.9786 26.0195C43.0519 26.0098 43.13 25.9951 43.213 25.9756C43.3009 25.9561 43.3814 25.9243 43.4547 25.8804C43.5279 25.8315 43.589 25.7681 43.6378 25.6899C43.6866 25.6069 43.711 25.4971 43.711 25.3604C43.711 25.2285 43.6891 25.1089 43.6451 25.0015C43.6061 24.8892 43.5377 24.7939 43.44 24.7158C43.3424 24.6328 43.2105 24.5693 43.0445 24.5254C42.8834 24.4814 42.6808 24.4595 42.4366 24.4595C42.1583 24.4595 41.9337 24.4888 41.7628 24.5474C41.5968 24.6011 41.4649 24.6792 41.3673 24.7817C41.2696 24.8794 41.1988 24.9966 41.1549 25.1333C41.1109 25.2651 41.0792 25.4067 41.0597 25.5581H38.9869C38.9869 25.4604 39.0016 25.3262 39.0309 25.1553C39.065 24.9795 39.1236 24.7891 39.2066 24.584C39.2945 24.3789 39.4142 24.1714 39.5655 23.9614C39.7218 23.7515 39.9244 23.561 40.1734 23.3901C40.4273 23.2144 40.735 23.0703 41.0963 22.958C41.4576 22.8457 41.8897 22.7871 42.3927 22.7822C43.1056 22.7822 43.6817 22.8555 44.1212 23.002C44.5655 23.1436 44.9098 23.3315 45.1539 23.5659C45.4029 23.7954 45.5689 24.0542 45.6519 24.3423C45.7398 24.6255 45.7838 24.9087 45.7838 25.1919V29.4253ZM43.711 27.1035C43.5841 27.1719 43.4571 27.2354 43.3302 27.2939C43.2032 27.3477 43.0348 27.394 42.8248 27.4331L42.2755 27.5356C42.0362 27.5796 41.8263 27.6309 41.6456 27.6895C41.4649 27.748 41.3136 27.8262 41.1915 27.9238C41.0743 28.0166 40.984 28.1313 40.9205 28.2681C40.8619 28.4048 40.8326 28.5757 40.8326 28.7808C40.8326 28.9517 40.8595 29.1006 40.9132 29.2275C40.9669 29.3496 41.0401 29.4521 41.1329 29.5352C41.2306 29.6133 41.3429 29.6719 41.4698 29.7109C41.5968 29.75 41.7335 29.7695 41.88 29.7695C41.9581 29.7695 42.0582 29.7622 42.1803 29.7476C42.3023 29.728 42.4317 29.6938 42.5685 29.645C42.7052 29.5962 42.8419 29.5303 42.9786 29.4473C43.1153 29.3594 43.2374 29.2471 43.3448 29.1104C43.4522 28.9736 43.5401 28.8076 43.6085 28.6123C43.6769 28.4121 43.711 28.1777 43.711 27.9092V27.1035ZM48.0722 23.0166H50.0497V24.1592H50.079C50.2206 23.9199 50.3695 23.7148 50.5258 23.5439C50.682 23.3682 50.8554 23.2241 51.0458 23.1118C51.2362 22.9995 51.4462 22.9165 51.6757 22.8628C51.9101 22.8091 52.1737 22.7822 52.4667 22.7822C52.7108 22.7822 52.9623 22.8115 53.2211 22.8701C53.4799 22.9287 53.7313 23.0239 53.9755 23.1558C54.2245 23.2827 54.4589 23.4512 54.6786 23.6611C54.8983 23.8662 55.0912 24.1201 55.2572 24.4229C55.4232 24.7256 55.5551 25.0796 55.6527 25.4849C55.7504 25.8853 55.7992 26.3442 55.7992 26.8618C55.7992 27.5063 55.7284 28.0972 55.5868 28.6343C55.4501 29.1714 55.2401 29.6328 54.9569 30.0186C54.6786 30.4043 54.3246 30.7046 53.8949 30.9194C53.4701 31.1343 52.9696 31.2417 52.3935 31.2417C52.1933 31.2417 51.9906 31.2222 51.7855 31.1831C51.5805 31.144 51.3803 31.0781 51.185 30.9854C50.9896 30.8926 50.8041 30.7681 50.6283 30.6118C50.4574 30.4507 50.3061 30.2505 50.1742 30.0112H50.1449V34.0908H48.0722V23.0166ZM51.8515 24.6426C51.5194 24.6426 51.2387 24.7134 51.0092 24.855C50.7846 24.9966 50.6015 25.1797 50.4599 25.4043C50.3231 25.6289 50.223 25.8828 50.1596 26.166C50.0961 26.4492 50.0644 26.73 50.0644 27.0083C50.0644 27.1597 50.0717 27.3257 50.0863 27.5063C50.1059 27.6821 50.14 27.8628 50.1889 28.0483C50.2377 28.229 50.3036 28.4048 50.3866 28.5757C50.4745 28.7466 50.5844 28.8979 50.7162 29.0298C50.848 29.1616 51.0067 29.269 51.1923 29.3521C51.3778 29.4302 51.5976 29.4692 51.8515 29.4692C52.1054 29.4692 52.3251 29.4302 52.5106 29.3521C52.6962 29.269 52.8549 29.1616 52.9867 29.0298C53.1186 28.8979 53.226 28.7466 53.309 28.5757C53.3969 28.4048 53.4652 28.229 53.5141 28.0483C53.5629 27.8628 53.5946 27.6821 53.6093 27.5063C53.6288 27.3257 53.6386 27.1597 53.6386 27.0083C53.6386 26.73 53.6068 26.4492 53.5434 26.166C53.4799 25.8828 53.3773 25.6289 53.2357 25.4043C53.099 25.1797 52.9159 24.9966 52.6864 24.855C52.4569 24.7134 52.1786 24.6426 51.8515 24.6426ZM57.7507 23.0166H59.8234V29.3228H61.9841V23.0166H64.0495V29.3228H66.2102V23.0166H68.2829V31H57.7507V23.0166ZM70.6519 23.0166H72.6294V24.1592H72.6587C72.8003 23.9199 72.9492 23.7148 73.1055 23.5439C73.2617 23.3682 73.4351 23.2241 73.6255 23.1118C73.8159 22.9995 74.0259 22.9165 74.2554 22.8628C74.4897 22.8091 74.7534 22.7822 75.0464 22.7822C75.2905 22.7822 75.542 22.8115 75.8008 22.8701C76.0596 22.9287 76.311 23.0239 76.5552 23.1558C76.8042 23.2827 77.0386 23.4512 77.2583 23.6611C77.478 23.8662 77.6709 24.1201 77.8369 24.4229C78.0029 24.7256 78.1348 25.0796 78.2324 25.4849C78.3301 25.8853 78.3789 26.3442 78.3789 26.8618C78.3789 27.5063 78.3081 28.0972 78.1665 28.6343C78.0298 29.1714 77.8198 29.6328 77.5366 30.0186C77.2583 30.4043 76.9043 30.7046 76.4746 30.9194C76.0498 31.1343 75.5493 31.2417 74.9731 31.2417C74.7729 31.2417 74.5703 31.2222 74.3652 31.1831C74.1602 31.144 73.96 31.0781 73.7646 30.9854C73.5693 30.8926 73.3838 30.7681 73.208 30.6118C73.0371 30.4507 72.8857 30.2505 72.7539 30.0112H72.7246V34.0908H70.6519V23.0166ZM74.4311 24.6426C74.0991 24.6426 73.8184 24.7134 73.5889 24.855C73.3643 24.9966 73.1811 25.1797 73.0395 25.4043C72.9028 25.6289 72.8027 25.8828 72.7393 26.166C72.6758 26.4492 72.644 26.73 72.644 27.0083C72.644 27.1597 72.6514 27.3257 72.666 27.5063C72.6855 27.6821 72.7197 27.8628 72.7686 28.0483C72.8174 28.229 72.8833 28.4048 72.9663 28.5757C73.0542 28.7466 73.1641 28.8979 73.2959 29.0298C73.4277 29.1616 73.5864 29.269 73.772 29.3521C73.9575 29.4302 74.1772 29.4692 74.4311 29.4692C74.6851 29.4692 74.9048 29.4302 75.0903 29.3521C75.2759 29.269 75.4346 29.1616 75.5664 29.0298C75.6982 28.8979 75.8057 28.7466 75.8887 28.5757C75.9766 28.4048 76.0449 28.229 76.0937 28.0483C76.1426 27.8628 76.1743 27.6821 76.189 27.5063C76.2085 27.3257 76.2183 27.1597 76.2183 27.0083C76.2183 26.73 76.1865 26.4492 76.123 26.166C76.0596 25.8828 75.957 25.6289 75.8154 25.4043C75.6787 25.1797 75.4956 24.9966 75.2661 24.855C75.0366 24.7134 74.7583 24.6426 74.4311 24.6426ZM84.7249 30.8682C84.5686 31.3271 84.427 31.7251 84.3001 32.062C84.1731 32.4038 84.0462 32.6968 83.9192 32.9409C83.7972 33.1899 83.6653 33.3926 83.5237 33.5488C83.387 33.71 83.2259 33.8369 83.0403 33.9297C82.8548 34.0225 82.6375 34.0859 82.3885 34.1201C82.1395 34.1592 81.844 34.1787 81.5022 34.1787C81.3655 34.1787 81.2361 34.1738 81.1141 34.1641C80.9969 34.1592 80.8553 34.1494 80.6893 34.1348V32.4575C80.7723 32.4673 80.8748 32.4771 80.9969 32.4868C81.1189 32.4966 81.2215 32.5015 81.3045 32.5015C81.5242 32.5015 81.7098 32.46 81.8611 32.377C82.0125 32.2939 82.1321 32.1938 82.22 32.0767C82.3128 31.9644 82.3787 31.8472 82.4178 31.7251C82.4568 31.603 82.4764 31.5005 82.4764 31.4175L79.554 23.0166H81.8758L83.5896 28.8979H83.6189L85.2522 23.0166H87.4715L84.7249 30.8682ZM90.8585 24.7012H88.4415V23.0166H95.3409V24.7012H92.9239V31H90.8585V24.7012ZM101.705 23.0166H103.778V25.9023H106.824V23.0166H108.89V31H106.824V27.5796H103.778V31H101.705V23.0166ZM117.777 29.4253C117.777 29.6646 117.79 29.8623 117.814 30.0186C117.843 30.1699 117.88 30.292 117.924 30.3848C117.968 30.4727 118.017 30.5386 118.07 30.5825C118.129 30.6216 118.19 30.6509 118.253 30.6704V31H115.961C115.922 30.9072 115.878 30.7852 115.829 30.6338C115.785 30.4775 115.763 30.2896 115.763 30.0698C115.602 30.2358 115.443 30.3896 115.287 30.5312C115.136 30.6729 114.965 30.7974 114.774 30.9048C114.584 31.0073 114.364 31.0879 114.115 31.1465C113.866 31.21 113.566 31.2417 113.214 31.2417C112.858 31.2417 112.528 31.188 112.226 31.0806C111.928 30.978 111.669 30.8242 111.449 30.6191C111.229 30.4141 111.059 30.1577 110.937 29.8501C110.814 29.5425 110.753 29.186 110.753 28.7808C110.753 28.4536 110.805 28.1509 110.907 27.8726C111.01 27.5894 111.154 27.3428 111.339 27.1328C111.53 26.918 111.759 26.7422 112.028 26.6055C112.301 26.4639 112.606 26.3687 112.943 26.3198L114.972 26.0195C115.045 26.0098 115.124 25.9951 115.207 25.9756C115.294 25.9561 115.375 25.9243 115.448 25.8804C115.521 25.8315 115.583 25.7681 115.631 25.6899C115.68 25.6069 115.705 25.4971 115.705 25.3604C115.705 25.2285 115.683 25.1089 115.639 25.0015C115.6 24.8892 115.531 24.7939 115.434 24.7158C115.336 24.6328 115.204 24.5693 115.038 24.5254C114.877 24.4814 114.674 24.4595 114.43 24.4595C114.152 24.4595 113.927 24.4888 113.756 24.5474C113.59 24.6011 113.458 24.6792 113.361 24.7817C113.263 24.8794 113.192 24.9966 113.148 25.1333C113.104 25.2651 113.073 25.4067 113.053 25.5581H110.98C110.98 25.4604 110.995 25.3262 111.024 25.1553C111.059 24.9795 111.117 24.7891 111.2 24.584C111.288 24.3789 111.408 24.1714 111.559 23.9614C111.715 23.7515 111.918 23.561 112.167 23.3901C112.421 23.2144 112.729 23.0703 113.09 22.958C113.451 22.8457 113.883 22.7871 114.386 22.7822C115.099 22.7822 115.675 22.8555 116.115 23.002C116.559 23.1436 116.903 23.3315 117.147 23.5659C117.396 23.7954 117.562 24.0542 117.646 24.3423C117.733 24.6255 117.777 24.9087 117.777 25.1919V29.4253ZM115.705 27.1035C115.578 27.1719 115.451 27.2354 115.324 27.2939C115.197 27.3477 115.028 27.394 114.818 27.4331L114.269 27.5356C114.03 27.5796 113.82 27.6309 113.639 27.6895C113.458 27.748 113.307 27.8262 113.185 27.9238C113.068 28.0166 112.978 28.1313 112.914 28.2681C112.855 28.4048 112.826 28.5757 112.826 28.7808C112.826 28.9517 112.853 29.1006 112.907 29.2275C112.96 29.3496 113.034 29.4521 113.126 29.5352C113.224 29.6133 113.336 29.6719 113.463 29.7109C113.59 29.75 113.727 29.7695 113.874 29.7695C113.952 29.7695 114.052 29.7622 114.174 29.7476C114.296 29.728 114.425 29.6938 114.562 29.645C114.699 29.5962 114.835 29.5303 114.972 29.4473C115.109 29.3594 115.231 29.2471 115.338 29.1104C115.446 28.9736 115.534 28.8076 115.602 28.6123C115.67 28.4121 115.705 28.1777 115.705 27.9092V27.1035ZM132.161 23.5732C131.99 22.8359 131.573 22.3208 130.909 22.0278C130.538 21.8667 130.125 21.7861 129.671 21.7861C128.802 21.7861 128.087 22.1157 127.525 22.7749C126.968 23.4292 126.69 24.4155 126.69 25.7339C126.69 27.062 126.993 28.002 127.598 28.5537C128.204 29.1055 128.892 29.3813 129.664 29.3813C130.421 29.3813 131.041 29.1641 131.524 28.7295C132.007 28.29 132.305 27.7163 132.418 27.0083H129.92V25.2065H134.417V31H132.923L132.696 29.6523C132.261 30.165 131.871 30.5264 131.524 30.7363C130.928 31.1025 130.196 31.2856 129.327 31.2856C127.896 31.2856 126.724 30.79 125.811 29.7988C124.859 28.8027 124.383 27.4404 124.383 25.7119C124.383 23.9639 124.864 22.5625 125.826 21.5078C126.788 20.4531 128.06 19.9258 129.642 19.9258C131.014 19.9258 132.115 20.2749 132.945 20.9731C133.78 21.6665 134.258 22.5332 134.38 23.5732H132.161ZM140.441 29.5278C141.051 29.5278 141.52 29.3105 141.847 28.876C142.174 28.4414 142.338 27.8237 142.338 27.0229C142.338 26.2222 142.174 25.6069 141.847 25.1772C141.52 24.7427 141.051 24.5254 140.441 24.5254C139.83 24.5254 139.359 24.7427 139.027 25.1772C138.7 25.6069 138.537 26.2222 138.537 27.0229C138.537 27.8237 138.7 28.4414 139.027 28.876C139.359 29.3105 139.83 29.5278 140.441 29.5278ZM144.528 27.0229C144.528 28.1948 144.191 29.1982 143.517 30.0332C142.843 30.8633 141.82 31.2783 140.448 31.2783C139.076 31.2783 138.053 30.8633 137.379 30.0332C136.705 29.1982 136.369 28.1948 136.369 27.0229C136.369 25.8706 136.705 24.8721 137.379 24.0273C138.053 23.1826 139.076 22.7603 140.448 22.7603C141.82 22.7603 142.843 23.1826 143.517 24.0273C144.191 24.8721 144.528 25.8706 144.528 27.0229ZM150.061 29.5278C150.671 29.5278 151.14 29.3105 151.467 28.876C151.794 28.4414 151.958 27.8237 151.958 27.0229C151.958 26.2222 151.794 25.6069 151.467 25.1772C151.14 24.7427 150.671 24.5254 150.061 24.5254C149.45 24.5254 148.979 24.7427 148.647 25.1772C148.32 25.6069 148.156 26.2222 148.156 27.0229C148.156 27.8237 148.32 28.4414 148.647 28.876C148.979 29.3105 149.45 29.5278 150.061 29.5278ZM154.148 27.0229C154.148 28.1948 153.811 29.1982 153.137 30.0332C152.463 30.8633 151.44 31.2783 150.068 31.2783C148.696 31.2783 147.673 30.8633 146.999 30.0332C146.325 29.1982 145.988 28.1948 145.988 27.0229C145.988 25.8706 146.325 24.8721 146.999 24.0273C147.673 23.1826 148.696 22.7603 150.068 22.7603C151.44 22.7603 152.463 23.1826 153.137 24.0273C153.811 24.8721 154.148 25.8706 154.148 27.0229ZM159.527 29.2861C160.015 29.2861 160.428 29.103 160.765 28.7368C161.102 28.3657 161.27 27.7773 161.27 26.9717C161.27 26.2148 161.109 25.6387 160.787 25.2432C160.469 24.8477 160.042 24.6499 159.505 24.6499C158.772 24.6499 158.267 24.9941 157.989 25.6826C157.842 26.0488 157.769 26.5005 157.769 27.0376C157.769 27.5015 157.847 27.9141 158.003 28.2754C158.287 28.9492 158.794 29.2861 159.527 29.2861ZM159.007 22.8262C159.407 22.8262 159.756 22.8872 160.054 23.0093C160.562 23.2192 160.972 23.605 161.285 24.1665V23.0166H163.313V30.5898C163.313 31.6201 163.14 32.3965 162.793 32.9189C162.198 33.8174 161.055 34.2666 159.366 34.2666C158.345 34.2666 157.513 34.0664 156.868 33.666C156.224 33.2656 155.867 32.6675 155.799 31.8716H158.069C158.128 32.1157 158.223 32.2915 158.355 32.3989C158.58 32.5894 158.958 32.6846 159.49 32.6846C160.242 32.6846 160.745 32.4331 160.999 31.9302C161.165 31.6079 161.248 31.0659 161.248 30.3042V29.7915C161.048 30.1333 160.833 30.3896 160.604 30.5605C160.188 30.8779 159.649 31.0366 158.985 31.0366C157.959 31.0366 157.139 30.6777 156.524 29.96C155.914 29.2373 155.608 28.2607 155.608 27.0303C155.608 25.8438 155.904 24.8477 156.495 24.042C157.085 23.2314 157.923 22.8262 159.007 22.8262ZM167.85 31H165.763V20.2041H167.85V31ZM173.493 24.5254C173.01 24.5254 172.634 24.6768 172.365 24.9795C172.102 25.2822 171.936 25.6924 171.867 26.21H175.112C175.078 25.6582 174.909 25.2407 174.607 24.9575C174.309 24.6694 173.938 24.5254 173.493 24.5254ZM173.493 22.8042C174.157 22.8042 174.755 22.9287 175.288 23.1777C175.82 23.4268 176.259 23.8198 176.606 24.3569C176.919 24.8306 177.121 25.3799 177.214 26.0049C177.268 26.3711 177.29 26.8984 177.28 27.5869H171.816C171.845 28.3877 172.097 28.9492 172.57 29.2715C172.858 29.4717 173.205 29.5718 173.61 29.5718C174.04 29.5718 174.389 29.4497 174.658 29.2056C174.804 29.0737 174.934 28.8906 175.046 28.6562H177.177C177.124 29.1299 176.877 29.6108 176.438 30.0991C175.754 30.8755 174.797 31.2637 173.566 31.2637C172.551 31.2637 171.655 30.9365 170.879 30.2822C170.102 29.6279 169.714 28.5635 169.714 27.0889C169.714 25.707 170.063 24.6475 170.761 23.9102C171.464 23.1729 172.375 22.8042 173.493 22.8042ZM184.098 20.2334H186.346V24.6133L190.463 20.2334H193.37L188.976 24.6426L193.627 31H190.778L187.445 26.2319L186.346 27.3525V31H184.098V20.2334ZM201.525 29.4253C201.525 29.6646 201.538 29.8623 201.562 30.0186C201.591 30.1699 201.628 30.292 201.672 30.3848C201.716 30.4727 201.765 30.5386 201.818 30.5825C201.877 30.6216 201.938 30.6509 202.001 30.6704V31H199.709C199.67 30.9072 199.626 30.7852 199.577 30.6338C199.533 30.4775 199.511 30.2896 199.511 30.0698C199.35 30.2358 199.191 30.3896 199.035 30.5312C198.884 30.6729 198.713 30.7974 198.522 30.9048C198.332 31.0073 198.112 31.0879 197.863 31.1465C197.614 31.21 197.314 31.2417 196.962 31.2417C196.606 31.2417 196.276 31.188 195.974 31.0806C195.676 30.978 195.417 30.8242 195.197 30.6191C194.978 30.4141 194.807 30.1577 194.685 29.8501C194.562 29.5425 194.501 29.186 194.501 28.7808C194.501 28.4536 194.553 28.1509 194.655 27.8726C194.758 27.5894 194.902 27.3428 195.087 27.1328C195.278 26.918 195.507 26.7422 195.776 26.6055C196.049 26.4639 196.354 26.3687 196.691 26.3198L198.72 26.0195C198.793 26.0098 198.872 25.9951 198.955 25.9756C199.042 25.9561 199.123 25.9243 199.196 25.8804C199.27 25.8315 199.331 25.7681 199.379 25.6899C199.428 25.6069 199.453 25.4971 199.453 25.3604C199.453 25.2285 199.431 25.1089 199.387 25.0015C199.348 24.8892 199.279 24.7939 199.182 24.7158C199.084 24.6328 198.952 24.5693 198.786 24.5254C198.625 24.4814 198.422 24.4595 198.178 24.4595C197.9 24.4595 197.675 24.4888 197.504 24.5474C197.338 24.6011 197.207 24.6792 197.109 24.7817C197.011 24.8794 196.94 24.9966 196.896 25.1333C196.853 25.2651 196.821 25.4067 196.801 25.5581H194.729C194.729 25.4604 194.743 25.3262 194.772 25.1553C194.807 24.9795 194.865 24.7891 194.948 24.584C195.036 24.3789 195.156 24.1714 195.307 23.9614C195.463 23.7515 195.666 23.561 195.915 23.3901C196.169 23.2144 196.477 23.0703 196.838 22.958C197.199 22.8457 197.631 22.7871 198.134 22.7822C198.847 22.7822 199.423 22.8555 199.863 23.002C200.307 23.1436 200.651 23.3315 200.896 23.5659C201.145 23.7954 201.311 24.0542 201.394 24.3423C201.481 24.6255 201.525 24.9087 201.525 25.1919V29.4253ZM199.453 27.1035C199.326 27.1719 199.199 27.2354 199.072 27.2939C198.945 27.3477 198.776 27.394 198.566 27.4331L198.017 27.5356C197.778 27.5796 197.568 27.6309 197.387 27.6895C197.207 27.748 197.055 27.8262 196.933 27.9238C196.816 28.0166 196.726 28.1313 196.662 28.2681C196.604 28.4048 196.574 28.5757 196.574 28.7808C196.574 28.9517 196.601 29.1006 196.655 29.2275C196.708 29.3496 196.782 29.4521 196.875 29.5352C196.972 29.6133 197.084 29.6719 197.211 29.7109C197.338 29.75 197.475 29.7695 197.622 29.7695C197.7 29.7695 197.8 29.7622 197.922 29.7476C198.044 29.728 198.173 29.6938 198.31 29.645C198.447 29.5962 198.583 29.5303 198.72 29.4473C198.857 29.3594 198.979 29.2471 199.086 29.1104C199.194 28.9736 199.282 28.8076 199.35 28.6123C199.418 28.4121 199.453 28.1777 199.453 27.9092V27.1035ZM203.814 23.0166H205.791V24.1592H205.821C205.962 23.9199 206.111 23.7148 206.267 23.5439C206.424 23.3682 206.597 23.2241 206.787 23.1118C206.978 22.9995 207.188 22.9165 207.417 22.8628C207.652 22.8091 207.915 22.7822 208.208 22.7822C208.452 22.7822 208.704 22.8115 208.963 22.8701C209.221 22.9287 209.473 23.0239 209.717 23.1558C209.966 23.2827 210.2 23.4512 210.42 23.6611C210.64 23.8662 210.833 24.1201 210.999 24.4229C211.165 24.7256 211.297 25.0796 211.394 25.4849C211.492 25.8853 211.541 26.3442 211.541 26.8618C211.541 27.5063 211.47 28.0972 211.328 28.6343C211.192 29.1714 210.982 29.6328 210.699 30.0186C210.42 30.4043 210.066 30.7046 209.637 30.9194C209.212 31.1343 208.711 31.2417 208.135 31.2417C207.935 31.2417 207.732 31.2222 207.527 31.1831C207.322 31.144 207.122 31.0781 206.927 30.9854C206.731 30.8926 206.546 30.7681 206.37 30.6118C206.199 30.4507 206.048 30.2505 205.916 30.0112H205.887V34.0908H203.814V23.0166ZM207.593 24.6426C207.261 24.6426 206.98 24.7134 206.751 24.855C206.526 24.9966 206.343 25.1797 206.201 25.4043C206.065 25.6289 205.965 25.8828 205.901 26.166C205.838 26.4492 205.806 26.73 205.806 27.0083C205.806 27.1597 205.813 27.3257 205.828 27.5063C205.847 27.6821 205.882 27.8628 205.93 28.0483C205.979 28.229 206.045 28.4048 206.128 28.5757C206.216 28.7466 206.326 28.8979 206.458 29.0298C206.59 29.1616 206.748 29.269 206.934 29.3521C207.119 29.4302 207.339 29.4692 207.593 29.4692C207.847 29.4692 208.067 29.4302 208.252 29.3521C208.438 29.269 208.596 29.1616 208.728 29.0298C208.86 28.8979 208.968 28.7466 209.051 28.5757C209.138 28.4048 209.207 28.229 209.256 28.0483C209.304 27.8628 209.336 27.6821 209.351 27.5063C209.37 27.3257 209.38 27.1597 209.38 27.0083C209.38 26.73 209.348 26.4492 209.285 26.166C209.221 25.8828 209.119 25.6289 208.977 25.4043C208.841 25.1797 208.658 24.9966 208.428 24.855C208.199 24.7134 207.92 24.6426 207.593 24.6426ZM215.221 24.7012H212.804V23.0166H219.703V24.7012H217.286V31H215.221V24.7012ZM227.895 29.4253C227.895 29.6646 227.907 29.8623 227.932 30.0186C227.961 30.1699 227.997 30.292 228.041 30.3848C228.085 30.4727 228.134 30.5386 228.188 30.5825C228.246 30.6216 228.308 30.6509 228.371 30.6704V31H226.079C226.039 30.9072 225.995 30.7852 225.947 30.6338C225.903 30.4775 225.881 30.2896 225.881 30.0698C225.72 30.2358 225.561 30.3896 225.405 30.5312C225.253 30.6729 225.082 30.7974 224.892 30.9048C224.702 31.0073 224.482 31.0879 224.233 31.1465C223.984 31.21 223.683 31.2417 223.332 31.2417C222.975 31.2417 222.646 31.188 222.343 31.0806C222.045 30.978 221.787 30.8242 221.567 30.6191C221.347 30.4141 221.176 30.1577 221.054 29.8501C220.932 29.5425 220.871 29.186 220.871 28.7808C220.871 28.4536 220.922 28.1509 221.025 27.8726C221.127 27.5894 221.271 27.3428 221.457 27.1328C221.647 26.918 221.877 26.7422 222.145 26.6055C222.419 26.4639 222.724 26.3687 223.061 26.3198L225.09 26.0195C225.163 26.0098 225.241 25.9951 225.324 25.9756C225.412 25.9561 225.493 25.9243 225.566 25.8804C225.639 25.8315 225.7 25.7681 225.749 25.6899C225.798 25.6069 225.822 25.4971 225.822 25.3604C225.822 25.2285 225.8 25.1089 225.756 25.0015C225.717 24.8892 225.649 24.7939 225.551 24.7158C225.454 24.6328 225.322 24.5693 225.156 24.5254C224.995 24.4814 224.792 24.4595 224.548 24.4595C224.269 24.4595 224.045 24.4888 223.874 24.5474C223.708 24.6011 223.576 24.6792 223.478 24.7817C223.381 24.8794 223.31 24.9966 223.266 25.1333C223.222 25.2651 223.19 25.4067 223.171 25.5581H221.098C221.098 25.4604 221.113 25.3262 221.142 25.1553C221.176 24.9795 221.235 24.7891 221.318 24.584C221.406 24.3789 221.525 24.1714 221.677 23.9614C221.833 23.7515 222.036 23.561 222.285 23.3901C222.538 23.2144 222.846 23.0703 223.207 22.958C223.569 22.8457 224.001 22.7871 224.504 22.7822C225.217 22.7822 225.793 22.8555 226.232 23.002C226.677 23.1436 227.021 23.3315 227.265 23.5659C227.514 23.7954 227.68 24.0542 227.763 24.3423C227.851 24.6255 227.895 24.9087 227.895 25.1919V29.4253ZM225.822 27.1035C225.695 27.1719 225.568 27.2354 225.441 27.2939C225.314 27.3477 225.146 27.394 224.936 27.4331L224.387 27.5356C224.147 27.5796 223.937 27.6309 223.757 27.6895C223.576 27.748 223.425 27.8262 223.303 27.9238C223.185 28.0166 223.095 28.1313 223.032 28.2681C222.973 28.4048 222.944 28.5757 222.944 28.7808C222.944 28.9517 222.971 29.1006 223.024 29.2275C223.078 29.3496 223.151 29.4521 223.244 29.5352C223.342 29.6133 223.454 29.6719 223.581 29.7109C223.708 29.75 223.845 29.7695 223.991 29.7695C224.069 29.7695 224.169 29.7622 224.291 29.7476C224.413 29.728 224.543 29.6938 224.68 29.645C224.816 29.5962 224.953 29.5303 225.09 29.4473C225.226 29.3594 225.349 29.2471 225.456 29.1104C225.563 28.9736 225.651 28.8076 225.72 28.6123C225.788 28.4121 225.822 28.1777 225.822 27.9092V27.1035ZM229.597 23.0166H232.146L233.45 25.3457L234.79 23.0166H237.266L234.651 26.9351L237.368 31H234.776L233.45 28.5977L232.014 31H229.48L232.19 26.9351L229.597 23.0166Z" fill="#136724"/>
<path d="M253 27H275M275 27L271.5 23.5M275 27L271.5 30.5" stroke="#136724" stroke-width="2"/>
</svg>
