<?xml version="1.0" encoding="UTF-8"?> <svg xmlns="http://www.w3.org/2000/svg" width="373" height="111" viewBox="0 0 373 111" fill="none"> <path d="M26.644 3.39999L27.4941 3.52008L27.6323 2.54149H26.644V3.39999ZM16.284 3.39999V2.54149H15.5373L15.4338 3.28096L16.284 3.39999ZM1.78 107L0.929789 106.881L0.792934 107.859H1.78V107ZM28.42 107V107.859H29.1752L29.2715 107.109L28.42 107ZM29.752 96.64L30.6035 96.7495L30.7279 95.7815H29.752V96.64ZM13.472 96.64L12.6219 96.5199L12.4837 97.4985H13.472V96.64ZM26.644 2.54149H16.284V4.2585H26.644V2.54149ZM15.4338 3.28096L0.929789 106.881L2.63021 107.119L17.1342 3.51902L15.4338 3.28096ZM1.78 107.859H28.42V106.141H1.78V107.859ZM29.2715 107.109L30.6035 96.7495L28.9005 96.5305L27.5685 106.891L29.2715 107.109ZM29.752 95.7815H13.472V97.4985H29.752V95.7815ZM14.3221 96.7601L27.4941 3.52008L25.7939 3.2799L12.6219 96.5199L14.3221 96.7601ZM102.084 13.76V12.9015H101.336L101.233 13.642L102.084 13.76ZM119.844 13.76V14.6185H120.588L120.693 13.8814L119.844 13.76ZM121.324 3.39999L122.173 3.5214L122.313 2.54149H121.324V3.39999ZM93.2035 3.39999V2.54149H92.4568L92.3533 3.28096L93.2035 3.39999ZM78.6995 107L77.8493 106.881L77.7125 107.859H78.6995V107ZM106.82 107V107.859H107.575L107.671 107.109L106.82 107ZM108.152 96.64L109.003 96.7495L109.127 95.7815H108.152V96.64ZM90.3915 96.64L89.5417 96.5186L89.4017 97.4985H90.3915V96.64ZM95.5715 60.38V59.5215H94.827L94.7217 60.2586L95.5715 60.38ZM108.892 60.38V61.2385H109.636L109.741 60.5014L108.892 60.38ZM110.372 50.02L111.221 50.1414L111.361 49.1615H110.372V50.02ZM97.0515 50.02L96.2012 49.902L96.0657 50.8785H97.0515V50.02ZM102.084 14.6185H119.844V12.9015H102.084V14.6185ZM120.693 13.8814L122.173 3.5214L120.474 3.27858L118.994 13.6386L120.693 13.8814ZM121.324 2.54149H93.2035V4.2585H121.324V2.54149ZM92.3533 3.28096L77.8493 106.881L79.5497 107.119L94.0537 3.51902L92.3533 3.28096ZM78.6995 107.859H106.82V106.141H78.6995V107.859ZM107.671 107.109L109.003 96.7495L107.3 96.5305L105.968 106.891L107.671 107.109ZM108.152 95.7815H90.3915V97.4985H108.152V95.7815ZM91.2414 96.7614L96.4214 60.5014L94.7217 60.2586L89.5417 96.5186L91.2414 96.7614ZM95.5715 61.2385H108.892V59.5215H95.5715V61.2385ZM109.741 60.5014L111.221 50.1414L109.522 49.8986L108.042 60.2586L109.741 60.5014ZM110.372 49.1615H97.0515V50.8785H110.372V49.1615ZM97.9019 50.138L102.934 13.878L101.233 13.642L96.2012 49.902L97.9019 50.138ZM177.764 65.56V64.7015H177.136L176.945 65.2999L177.764 65.56ZM178.504 65.56L179.361 65.5263L179.329 64.7015H178.504V65.56ZM180.132 107L179.274 107.034L179.306 107.859H180.132V107ZM191.232 107V107.859H192.139L192.089 106.952L191.232 107ZM188.272 53.72L187.457 53.4492L187.405 53.6044L187.414 53.7676L188.272 53.72ZM204.996 3.39999L205.81 3.67076L206.186 2.54149H204.996V3.39999ZM193.896 3.39999V2.54149H193.266L193.077 3.14177L193.896 3.39999ZM181.76 41.88V42.7385H182.389L182.578 42.1382L181.76 41.88ZM181.02 41.88L180.161 41.9064L180.187 42.7385H181.02V41.88ZM179.836 3.39999L180.694 3.37359L180.668 2.54149H179.836V3.39999ZM168.736 3.39999V2.54149H167.833L167.878 3.44286L168.736 3.39999ZM171.252 53.72L172.066 53.9915L172.117 53.8383L172.109 53.6771L171.252 53.72ZM153.492 107L152.677 106.729L152.3 107.859H153.492V107ZM164.592 107V107.859H165.22L165.41 107.26L164.592 107ZM177.764 66.4185H178.504V64.7015H177.764V66.4185ZM177.646 65.5937L179.274 107.034L180.989 106.966L179.361 65.5263L177.646 65.5937ZM180.132 107.859H191.232V106.141H180.132V107.859ZM192.089 106.952L189.129 53.6724L187.414 53.7676L190.374 107.048L192.089 106.952ZM189.086 53.9908L205.81 3.67076L204.181 3.12923L187.457 53.4492L189.086 53.9908ZM204.996 2.54149H193.896V4.2585H204.996V2.54149ZM193.077 3.14177L180.941 41.6218L182.578 42.1382L194.714 3.65821L193.077 3.14177ZM181.76 41.0215H181.02V42.7385H181.76V41.0215ZM181.878 41.8536L180.694 3.37359L178.977 3.4264L180.161 41.9064L181.878 41.8536ZM179.836 2.54149H168.736V4.2585H179.836V2.54149ZM167.878 3.44286L170.394 53.7629L172.109 53.6771L169.593 3.35712L167.878 3.44286ZM170.437 53.4485L152.677 106.729L154.306 107.271L172.066 53.9915L170.437 53.4485ZM153.492 107.859H164.592V106.141H153.492V107.859ZM165.41 107.26L178.582 65.8201L176.945 65.2999L163.773 106.74L165.41 107.26ZM278.204 3.39999V2.54149H277.457L277.353 3.28096L278.204 3.39999ZM265.772 92.2L266.618 92.3411L266.62 92.3301L266.622 92.319L265.772 92.2ZM254.672 97.232L255.358 96.7169L255.342 96.6945L255.323 96.6733L254.672 97.232ZM253.932 92.2L254.775 92.3582L254.779 92.3387L254.782 92.319L253.932 92.2ZM266.364 3.39999L267.214 3.51902L267.351 2.54149H266.364V3.39999ZM256.004 3.39999V2.54149H255.257L255.153 3.28096L256.004 3.39999ZM243.572 92.2L244.418 92.3411L244.42 92.3301L244.422 92.319L243.572 92.2ZM246.236 104.632L246.903 104.092L246.889 104.074L246.874 104.058L246.236 104.632ZM269.768 104.632L269.204 103.984L269.202 103.986L269.768 104.632ZM276.132 92.2L276.978 92.3411L276.98 92.3301L276.982 92.319L276.132 92.2ZM288.564 3.39999L289.414 3.51902L289.551 2.54149H288.564V3.39999ZM277.353 3.28096L264.921 92.081L266.622 92.319L279.054 3.51902L277.353 3.28096ZM264.925 92.0589C264.574 94.1635 263.855 95.6323 262.867 96.5733C261.892 97.5017 260.566 98.0015 258.816 98.0015V99.7185C260.913 99.7185 262.695 99.1083 264.051 97.8167C265.394 96.5377 266.229 94.6765 266.618 92.3411L264.925 92.0589ZM258.816 98.0015C257.018 98.0015 256.014 97.5912 255.358 96.7169L253.985 97.7471C255.105 99.2408 256.765 99.7185 258.816 99.7185V98.0015ZM255.323 96.6733C254.683 95.9265 254.351 94.6191 254.775 92.3582L253.088 92.0418C252.624 94.5169 252.884 96.4655 254.02 97.7907L255.323 96.6733ZM254.782 92.319L267.214 3.51902L265.513 3.28096L253.081 92.081L254.782 92.319ZM266.364 2.54149H256.004V4.2585H266.364V2.54149ZM255.153 3.28096L242.721 92.081L244.422 92.319L256.854 3.51902L255.153 3.28096ZM242.725 92.0589C241.81 97.5467 242.701 101.989 245.597 105.206L246.874 104.058C244.442 101.355 243.557 97.5093 244.418 92.3411L242.725 92.0589ZM245.568 105.172C248.289 108.533 252.268 110.079 257.336 110.079V108.361C252.635 108.361 249.214 106.947 246.903 104.092L245.568 105.172ZM257.336 110.079C262.269 110.079 266.617 108.53 270.333 105.278L269.202 103.986C265.814 106.95 261.874 108.361 257.336 108.361V110.079ZM270.331 105.28C273.919 102.159 276.066 97.8161 276.978 92.3411L275.285 92.0589C274.421 97.2399 272.424 101.185 269.204 103.984L270.331 105.28ZM276.982 92.319L289.414 3.51902L287.713 3.28096L275.281 92.081L276.982 92.319ZM288.564 2.54149H278.204V4.2585H288.564V2.54149ZM349.397 18.2L350.247 18.3249L350.248 18.3135L349.397 18.2ZM361.237 18.2L362.087 18.3236L362.088 18.3135L361.237 18.2ZM358.869 34.48L358.02 34.3564L357.877 35.3385H358.869V34.48ZM369.229 34.48V35.3385H369.972L370.079 34.6036L369.229 34.48ZM371.597 18.2L372.447 18.3236L372.447 18.3214L371.597 18.2ZM368.785 5.768L369.437 5.20929L369.43 5.20141L369.423 5.19369L368.785 5.768ZM345.253 5.768L344.69 5.12017L344.682 5.12699L344.674 5.13401L345.253 5.768ZM339.037 18.2L339.885 18.3374L339.886 18.3294L339.887 18.3214L339.037 18.2ZM338.593 33L339.448 32.9146L339.446 32.9005L339.444 32.8865L338.593 33ZM340.961 45.284L341.79 45.0608L341.786 45.0461L341.782 45.0315L340.961 45.284ZM344.661 56.384L343.869 56.7142L344.661 56.384ZM348.509 67.188L349.327 66.9263L348.509 67.188ZM351.025 78.732L351.875 78.6106L351.875 78.6062L351.025 78.732ZM350.877 92.2L351.724 92.3411L351.727 92.3223L351.73 92.3033L350.877 92.2ZM339.777 97.232L340.464 96.7169L340.447 96.6945L340.429 96.6733L339.777 97.232ZM339.037 92.2L339.881 92.3582L339.885 92.3369L339.888 92.3155L339.037 92.2ZM341.849 71.48L342.7 71.5955L342.832 70.6215H341.849V71.48ZM331.489 71.48V70.6215H330.739L330.639 71.3645L331.489 71.48ZM328.677 92.2L329.524 92.3411L329.526 92.3283L329.528 92.3155L328.677 92.2ZM331.341 104.632L332.009 104.092L331.994 104.074L331.979 104.058L331.341 104.632ZM354.873 104.632L354.31 103.984L354.308 103.986L354.873 104.632ZM361.237 92.2L362.084 92.3411L362.086 92.3296L362.088 92.3181L361.237 92.2ZM361.681 77.548L362.536 77.4626L362.534 77.4485L362.532 77.4345L361.681 77.548ZM359.165 65.116L359.986 64.8635L359.165 65.116ZM355.317 54.164L354.525 54.4942L355.317 54.164ZM351.617 43.36L352.444 43.1285L352.44 43.1133L352.435 43.0983L351.617 43.36ZM349.101 31.668L349.951 31.5466L349.951 31.5422L349.101 31.668ZM350.248 18.3135C350.53 16.2027 351.183 14.7459 352.127 13.817C353.056 12.903 354.372 12.3985 356.205 12.3985V10.6815C354.043 10.6815 352.251 11.287 350.923 12.5929C349.61 13.8841 348.857 15.7572 348.546 18.0865L350.248 18.3135ZM356.205 12.3985C357.973 12.3985 359.074 12.9037 359.705 13.7273C360.357 14.5774 360.669 15.9699 360.386 18.0865L362.088 18.3135C362.398 15.9901 362.118 14.0526 361.068 12.6827C359.997 11.2862 358.286 10.6815 356.205 10.6815V12.3985ZM360.388 18.0764L358.02 34.3564L359.719 34.6036L362.087 18.3236L360.388 18.0764ZM358.869 35.3385H369.229V33.6215H358.869V35.3385ZM370.079 34.6036L372.447 18.3236L370.748 18.0764L368.38 34.3564L370.079 34.6036ZM372.447 18.3214C373.21 12.9816 372.31 8.56142 369.437 5.20929L368.133 6.3267C370.588 9.19056 371.465 13.0584 370.747 18.0786L372.447 18.3214ZM369.423 5.19369C366.579 2.03337 362.637 0.321492 357.685 0.321492V2.0385C362.205 2.0385 365.663 3.58262 368.147 6.34231L369.423 5.19369ZM357.685 0.321492C352.593 0.321492 348.249 2.02503 344.69 5.12017L345.817 6.41583C349.065 3.59095 353.009 2.0385 357.685 2.0385V0.321492ZM344.674 5.13401C341.104 8.39429 338.952 12.7297 338.187 18.0786L339.887 18.3214C340.603 13.3103 342.595 9.35769 345.832 6.40199L344.674 5.13401ZM338.19 18.0626C337.292 23.6024 337.137 28.5728 337.742 33.1135L339.444 32.8865C338.866 28.5472 339.007 23.7496 339.885 18.3374L338.19 18.0626ZM337.739 33.0854C338.188 37.5695 338.937 41.6232 340.141 45.5365L341.782 45.0315C340.618 41.2488 339.887 37.3105 339.448 32.9146L337.739 33.0854ZM340.132 45.5072C341.175 49.3795 342.37 53.1174 343.869 56.7142L345.454 56.0538C343.992 52.5465 342.82 48.8845 341.79 45.0608L340.132 45.5072ZM343.869 56.7142C345.334 60.2306 346.509 63.7534 347.692 67.4496L349.327 66.9263C348.142 63.2226 346.949 59.6414 345.454 56.0538L343.869 56.7142ZM347.692 67.4496C348.855 71.0862 349.587 74.8825 350.176 78.8578L351.875 78.6062C351.279 74.5895 350.531 70.6898 349.327 66.9263L347.692 67.4496ZM350.175 78.8534C350.753 82.8951 350.612 87.253 350.025 92.0967L351.73 92.3033C352.326 87.379 352.482 82.8569 351.875 78.6106L350.175 78.8534ZM350.03 92.0589C349.68 94.1635 348.961 95.6323 347.973 96.5733C346.998 97.5017 345.672 98.0015 343.921 98.0015V99.7185C346.019 99.7185 347.801 99.1083 349.157 97.8167C350.5 96.5377 351.335 94.6765 351.724 92.3411L350.03 92.0589ZM343.921 98.0015C342.124 98.0015 341.12 97.5912 340.464 96.7169L339.091 97.7471C340.211 99.2408 341.871 99.7185 343.921 99.7185V98.0015ZM340.429 96.6733C339.789 95.9265 339.457 94.6191 339.881 92.3582L338.194 92.0418C337.729 94.5169 337.99 96.4655 339.125 97.7907L340.429 96.6733ZM339.888 92.3155L342.7 71.5955L340.999 71.3645L338.187 92.0845L339.888 92.3155ZM341.849 70.6215H331.489V72.3385H341.849V70.6215ZM330.639 71.3645L327.827 92.0845L329.528 92.3155L332.34 71.5955L330.639 71.3645ZM327.831 92.0589C326.916 97.5467 327.807 101.989 330.703 105.206L331.979 104.058C329.547 101.355 328.663 97.5093 329.524 92.3411L327.831 92.0589ZM330.674 105.172C333.395 108.533 337.373 110.079 342.441 110.079V108.361C337.741 108.361 334.32 106.947 332.009 104.092L330.674 105.172ZM342.441 110.079C347.375 110.079 351.722 108.53 355.439 105.278L354.308 103.986C350.92 106.95 346.98 108.361 342.441 108.361V110.079ZM355.437 105.28C359.025 102.159 361.172 97.8161 362.084 92.3411L360.391 92.0589C359.527 97.2399 357.529 101.185 354.31 103.984L355.437 105.28ZM362.088 92.3181C362.835 86.936 362.988 81.9825 362.536 77.4626L360.827 77.6334C361.263 81.9935 361.119 86.8081 360.387 92.0819L362.088 92.3181ZM362.532 77.4345C361.938 72.9752 361.19 68.7775 359.986 64.8635L358.345 65.3685C359.508 69.1505 360.241 73.2408 360.83 77.6615L362.532 77.4345ZM359.986 64.8635C358.799 61.0049 357.605 57.4229 356.11 53.8338L354.525 54.4942C355.989 58.0091 357.164 61.5311 358.345 65.3685L359.986 64.8635ZM356.11 53.8338C354.646 50.32 353.473 46.8019 352.444 43.1285L350.791 43.5915C351.834 47.3181 353.029 50.904 354.525 54.4942L356.11 53.8338ZM352.435 43.0983C351.272 39.4628 350.54 35.6674 349.951 31.5466L348.251 31.7894C348.847 35.9566 349.595 39.8572 350.8 43.6217L352.435 43.0983ZM349.951 31.5422C349.375 27.6558 349.514 23.3052 350.247 18.3249L348.548 18.0751C347.8 23.1587 347.644 27.6882 348.252 31.7938L349.951 31.5422Z" fill="#2A2A34"></path> </svg> 