<?xml version="1.0" encoding="UTF-8"?> <svg xmlns="http://www.w3.org/2000/svg" width="576" height="121" viewBox="0 0 576 121" fill="none"> <path d="M18.8 58.9V58.0415H18.0522L17.9496 58.7822L18.8 58.9ZM29.012 65.56L29.8621 65.68L29.863 65.6735L29.012 65.56ZM25.46 90.72L26.3068 90.8611L26.3086 90.8506L26.3101 90.84L25.46 90.72ZM28.124 103.152L28.7913 102.612L28.7771 102.594L28.7621 102.578L28.124 103.152ZM38.632 107.74V108.599H39.3766L39.4819 107.861L38.632 107.74ZM40.112 97.38L40.9619 97.5014L41.1019 96.5215H40.112V97.38ZM36.56 95.752L37.2468 95.2369L37.23 95.2145L37.2118 95.1933L36.56 95.752ZM35.82 90.72L34.9698 90.6L34.9681 90.6135L35.82 90.72ZM39.372 65.56L40.2221 65.68L40.223 65.6735L39.372 65.56ZM38.78 60.084L39.5771 59.7652L39.5569 59.7146L39.5305 59.6671L38.78 60.084ZM36.116 56.68L36.6747 56.0282L36.6535 56.01L36.6311 55.9932L36.116 56.68ZM31.972 54.46L31.1302 54.2916L30.9901 54.9919L31.6532 55.2571L31.972 54.46ZM32.12 53.72L31.8733 52.8977L31.3793 53.0459L31.2782 53.5516L32.12 53.72ZM36.116 51.5L35.617 50.8014L35.5825 50.826L35.5507 50.8539L36.116 51.5ZM39.224 48.244L39.9273 48.7363L39.9446 48.7116L39.9602 48.6857L39.224 48.244ZM41.148 42.62L40.2972 42.5047L40.2961 42.5135L41.148 42.62ZM44.256 19.68L45.1067 19.7953L45.107 19.7935L44.256 19.68ZM46.476 14.648L45.9107 14.0019L45.8892 14.0207L45.8689 14.0409L46.476 14.648ZM50.472 13.02V13.8785H51.2166L51.3219 13.1414L50.472 13.02ZM51.952 2.65999L52.8019 2.7814L52.9419 1.80149H51.952V2.65999ZM40.112 7.248L39.5487 6.60016L39.5408 6.60699L39.5331 6.614L40.112 7.248ZM33.896 19.68L33.0461 19.5586L33.0453 19.5647L33.896 19.68ZM30.788 42.62L31.6348 42.7611L31.637 42.7482L31.6387 42.7353L30.788 42.62ZM20.132 49.28L19.282 49.1594L19.143 50.1385H20.132V49.28ZM26.644 3.39999L27.494 3.52064L27.633 2.54149H26.644V3.39999ZM16.284 3.39999V2.54149H15.5373L15.4338 3.28096L16.284 3.39999ZM1.78 107L0.929789 106.881L0.792934 107.859H1.78V107ZM12.14 107V107.859H12.8878L12.9904 107.118L12.14 107ZM18.8 59.7585H23.98V58.0415H18.8V59.7585ZM23.98 59.7585C25.7475 59.7585 26.8483 60.2637 27.4797 61.0873C28.1314 61.9374 28.4433 63.3299 28.161 65.4465L29.863 65.6735C30.1728 63.3501 29.8926 61.4126 28.8423 60.0427C27.7717 58.6462 26.0605 58.0415 23.98 58.0415V59.7585ZM28.1619 65.44L24.6099 90.6L26.3101 90.84L29.8621 65.68L28.1619 65.44ZM24.6132 90.5789C23.6985 96.0667 24.5899 100.509 27.4859 103.726L28.7621 102.578C26.3301 99.8754 25.4455 96.0293 26.3068 90.8611L24.6132 90.5789ZM27.4567 103.692C30.1646 107.037 33.9826 108.599 38.632 108.599V106.882C34.4014 106.882 31.1154 105.483 28.7913 102.612L27.4567 103.692ZM39.4819 107.861L40.9619 97.5014L39.2621 97.2586L37.7821 107.619L39.4819 107.861ZM40.112 96.5215C38.8333 96.5215 37.9354 96.155 37.2468 95.2369L35.8732 96.2671C36.9606 97.717 38.4307 98.2385 40.112 98.2385V96.5215ZM37.2118 95.1933C36.5873 94.4647 36.3767 93.1875 36.6719 90.8265L34.9681 90.6135C34.6713 92.9885 34.7567 94.9673 35.9082 96.3107L37.2118 95.1933ZM36.6701 90.84L40.2221 65.68L38.5219 65.44L34.9699 90.6L36.6701 90.84ZM40.223 65.6735C40.5382 63.3096 40.2249 61.3846 39.5771 59.7652L37.9829 60.4028C38.5191 61.7434 38.7979 63.3704 38.521 65.4465L40.223 65.6735ZM39.5305 59.6671C38.7566 58.2742 37.8092 57.0006 36.6747 56.0282L35.5573 57.3318C36.4948 58.1354 37.3234 59.2298 38.0295 60.5009L39.5305 59.6671ZM36.6311 55.9932C35.364 55.0429 33.8082 54.2699 32.2908 53.6629L31.6532 55.2571C33.0958 55.8341 34.5 56.5411 35.6009 57.3668L36.6311 55.9932ZM32.8138 54.6284L32.9618 53.8884L31.2782 53.5516L31.1302 54.2916L32.8138 54.6284ZM32.3667 54.5423C33.9665 54.0624 35.4067 53.2614 36.6813 52.1461L35.5507 50.8539C34.4573 51.8106 33.2335 52.4896 31.8733 52.8977L32.3667 54.5423ZM36.615 52.1986C37.7419 51.3936 38.8442 50.2836 39.9273 48.7363L38.5207 47.7517C37.5318 49.1644 36.5621 50.1264 35.617 50.8014L36.615 52.1986ZM39.9602 48.6857C40.9015 47.1169 41.6872 45.2279 41.9999 42.7265L40.2961 42.5135C40.0168 44.7481 39.3225 46.4111 38.4878 47.8023L39.9602 48.6857ZM41.9987 42.7353L45.1067 19.7953L43.4053 19.5647L40.2973 42.5047L41.9987 42.7353ZM45.107 19.7935C45.385 17.7086 46.0651 16.273 47.0831 15.2551L45.8689 14.0409C44.5189 15.3909 43.719 17.2114 43.405 19.5665L45.107 19.7935ZM47.0413 15.2941C48.1029 14.3652 49.2412 13.8785 50.472 13.8785V12.1615C48.7428 12.1615 47.2171 12.8588 45.9107 14.0019L47.0413 15.2941ZM51.3219 13.1414L52.8019 2.7814L51.1021 2.53858L49.6221 12.8986L51.3219 13.1414ZM51.952 1.80149C47.2856 1.80149 43.0937 3.51756 39.5487 6.60016L40.6753 7.89583C43.9383 5.05843 47.7384 3.5185 51.952 3.5185V1.80149ZM39.5331 6.614C35.9623 9.87429 33.8103 14.2097 33.0461 19.5586L34.7459 19.8014C35.4617 14.7903 37.4537 10.8377 40.6909 7.88199L39.5331 6.614ZM33.0453 19.5647L29.9373 42.5047L31.6387 42.7353L34.7467 19.7953L33.0453 19.5647ZM29.9412 42.4789C29.5904 44.5835 28.8715 46.0523 27.8834 46.9933C26.9087 47.9217 25.5826 48.4215 23.832 48.4215V50.1385C25.9294 50.1385 27.7113 49.5283 29.0676 48.2367C30.4105 46.9577 31.2456 45.0965 31.6348 42.7611L29.9412 42.4789ZM23.832 48.4215H20.132V50.1385H23.832V48.4215ZM20.982 49.4006L27.494 3.52064L25.794 3.27935L19.282 49.1594L20.982 49.4006ZM26.644 2.54149H16.284V4.2585H26.644V2.54149ZM15.4338 3.28096L0.929789 106.881L2.63021 107.119L17.1342 3.51902L15.4338 3.28096ZM1.78 107.859H12.14V106.141H1.78V107.859ZM12.9904 107.118L19.6504 59.0177L17.9496 58.7822L11.2896 106.882L12.9904 107.118ZM103 97.232L103.687 96.7169L103.67 96.6945L103.652 96.6733L103 97.232ZM102.26 92.2L103.104 92.3582L103.108 92.3387L103.111 92.319L102.26 92.2ZM112.62 18.2L113.471 18.319L113.471 18.3135L112.62 18.2ZM124.46 18.2L125.311 18.319L125.311 18.3135L124.46 18.2ZM114.1 92.2L114.947 92.3411L114.949 92.3301L114.951 92.319L114.1 92.2ZM108.476 5.768L107.913 5.12017L107.905 5.12699L107.898 5.13401L108.476 5.768ZM102.26 18.2L101.411 18.0786L101.41 18.081L102.26 18.2ZM91.9004 92.2L92.7473 92.3411L92.7491 92.3301L92.7506 92.319L91.9004 92.2ZM94.5644 104.632L95.2317 104.092L95.2176 104.074L95.2026 104.058L94.5644 104.632ZM118.096 104.632L117.533 103.984L117.531 103.986L118.096 104.632ZM124.46 92.2L125.307 92.3411L125.309 92.3301L125.311 92.319L124.46 92.2ZM134.82 18.2L133.971 18.0786L133.97 18.081L134.82 18.2ZM132.008 5.768L132.66 5.20929L132.654 5.20141L132.647 5.19369L132.008 5.768ZM107.144 98.0015C105.347 98.0015 104.343 97.5912 103.687 96.7169L102.314 97.7471C103.434 99.2408 105.094 99.7185 107.144 99.7185V98.0015ZM103.652 96.6733C103.012 95.9265 102.68 94.6191 103.104 92.3582L101.417 92.0418C100.953 94.5169 101.213 96.4655 102.349 97.7907L103.652 96.6733ZM103.111 92.319L113.471 18.319L111.77 18.081L101.41 92.081L103.111 92.319ZM113.471 18.3135C113.753 16.2027 114.406 14.7459 115.35 13.817C116.279 12.903 117.595 12.3985 119.428 12.3985V10.6815C117.266 10.6815 115.474 11.287 114.146 12.5929C112.833 13.8841 112.08 15.7572 111.769 18.0865L113.471 18.3135ZM119.428 12.3985C121.196 12.3985 122.297 12.9037 122.928 13.7273C123.58 14.5774 123.892 15.9699 123.609 18.0865L125.311 18.3135C125.621 15.9901 125.341 14.0526 124.291 12.6827C123.22 11.2862 121.509 10.6815 119.428 10.6815V12.3985ZM123.61 18.081L113.25 92.081L114.951 92.319L125.311 18.319L123.61 18.081ZM113.254 92.0589C112.903 94.1635 112.184 95.6323 111.196 96.5733C110.221 97.5017 108.895 98.0015 107.144 98.0015V99.7185C109.242 99.7185 111.024 99.1083 112.38 97.8167C113.723 96.5377 114.558 94.6765 114.947 92.3411L113.254 92.0589ZM120.908 0.321492C115.816 0.321492 111.473 2.02503 107.913 5.12017L109.04 6.41583C112.288 3.59095 116.233 2.0385 120.908 2.0385V0.321492ZM107.898 5.13401C104.327 8.39429 102.175 12.7297 101.411 18.0786L103.11 18.3214C103.826 13.3103 105.818 9.35769 109.055 6.40199L107.898 5.13401ZM101.41 18.081L91.0502 92.081L92.7506 92.319L103.111 18.319L101.41 18.081ZM91.0536 92.0589C90.139 97.5467 91.0304 101.989 93.9263 105.206L95.2026 104.058C92.7705 101.355 91.8859 97.5093 92.7473 92.3411L91.0536 92.0589ZM93.8972 105.172C96.6182 108.533 100.597 110.079 105.664 110.079V108.361C100.964 108.361 97.5426 106.947 95.2317 104.092L93.8972 105.172ZM105.664 110.079C110.598 110.079 114.946 108.53 118.662 105.278L117.531 103.986C114.143 106.95 110.203 108.361 105.664 108.361V110.079ZM118.66 105.28C122.248 102.159 124.395 97.8161 125.307 92.3411L123.614 92.0589C122.75 97.2399 120.753 101.185 117.533 103.984L118.66 105.28ZM125.311 92.319L135.671 18.319L133.97 18.081L123.61 92.081L125.311 92.319ZM135.67 18.3214C136.433 12.9816 135.534 8.56142 132.66 5.20929L131.357 6.3267C133.811 9.19056 134.688 13.0584 133.971 18.0786L135.67 18.3214ZM132.647 5.19369C129.802 2.03337 125.86 0.321492 120.908 0.321492V2.0385C125.428 2.0385 128.887 3.58262 131.37 6.34231L132.647 5.19369ZM199.058 87.76L198.2 87.7834L198.223 88.6185H199.058V87.76ZM208.678 87.76V88.6185H209.313L209.499 88.0112L208.678 87.76ZM223.626 38.92V38.0615H222.991L222.805 38.6688L223.626 38.92ZM224.366 38.92L225.22 39.0109L225.321 38.0615H224.366V38.92ZM217.114 107L216.261 106.909L216.159 107.859H217.114V107ZM227.474 107V107.859H228.253L228.329 107.083L227.474 107ZM237.538 3.39999L238.393 3.483L238.484 2.54149H237.538V3.39999ZM224.218 3.39999V2.54149H223.571L223.393 3.16328L224.218 3.39999ZM208.086 59.64V60.4985H208.733L208.911 59.8767L208.086 59.64ZM207.346 59.64L206.488 59.6423L206.49 60.4985H207.346V59.64ZM207.198 3.39999L208.057 3.39773L208.054 2.54149H207.198V3.39999ZM193.878 3.39999V2.54149H193.162L193.034 3.24557L193.878 3.39999ZM174.934 107L174.09 106.846L173.904 107.859H174.934V107ZM185.294 107V107.859H186.018L186.14 107.145L185.294 107ZM196.986 38.92V38.0615H196.263L196.14 38.7747L196.986 38.92ZM197.726 38.92L198.584 38.8966L198.562 38.0615H197.726V38.92ZM199.058 88.6185H208.678V86.9015H199.058V88.6185ZM209.499 88.0112L224.447 39.1712L222.805 38.6688L207.857 87.5088L209.499 88.0112ZM223.626 39.7785H224.366V38.0615H223.626V39.7785ZM223.513 38.8291L216.261 106.909L217.968 107.091L225.22 39.0109L223.513 38.8291ZM217.114 107.859H227.474V106.141H217.114V107.859ZM228.329 107.083L238.393 3.483L236.684 3.31699L226.62 106.917L228.329 107.083ZM237.538 2.54149H224.218V4.2585H237.538V2.54149ZM223.393 3.16328L207.261 59.4033L208.911 59.8767L225.043 3.6367L223.393 3.16328ZM208.086 58.7815H207.346V60.4985H208.086V58.7815ZM208.205 59.6377L208.057 3.39773L206.34 3.40225L206.488 59.6423L208.205 59.6377ZM207.198 2.54149H193.878V4.2585H207.198V2.54149ZM193.034 3.24557L174.09 106.846L175.779 107.154L194.723 3.55442L193.034 3.24557ZM174.934 107.859H185.294V106.141H174.934V107.859ZM186.14 107.145L197.832 39.0653L196.14 38.7747L184.448 106.855L186.14 107.145ZM196.986 39.7785H197.726V38.0615H196.986V39.7785ZM196.868 38.9434L198.2 87.7834L199.916 87.7366L198.584 38.8966L196.868 38.9434ZM292.081 83.32V82.4615H291.398L291.244 83.1266L292.081 83.32ZM301.701 83.32L302.559 83.3575L302.598 82.4615H301.701V83.32ZM300.665 107L299.807 106.962L299.768 107.859H300.665V107ZM311.765 107V107.859H312.596L312.623 107.028L311.765 107ZM315.169 3.39999L316.027 3.42819L316.056 2.54149H315.169V3.39999ZM301.109 3.39999V2.54149H300.437L300.275 3.19402L301.109 3.39999ZM275.505 107L274.671 106.794L274.408 107.859H275.505V107ZM286.605 107V107.859H287.287L287.441 107.193L286.605 107ZM302.441 72.96V73.8185H303.251L303.298 73.0098L302.441 72.96ZM294.301 72.96L293.462 72.7761L293.234 73.8185H294.301V72.96ZM304.365 27.08V26.2215H303.674L303.526 26.8961L304.365 27.08ZM305.105 27.08L305.962 27.1298L306.015 26.2215H305.105V27.08ZM292.081 84.1785H301.701V82.4615H292.081V84.1785ZM300.843 83.2825L299.807 106.962L301.523 107.038L302.559 83.3575L300.843 83.2825ZM300.665 107.859H311.765V106.141H300.665V107.859ZM312.623 107.028L316.027 3.42819L314.311 3.3718L310.907 106.972L312.623 107.028ZM315.169 2.54149H301.109V4.2585H315.169V2.54149ZM300.275 3.19402L274.671 106.794L276.338 107.206L301.942 3.60597L300.275 3.19402ZM275.505 107.859H286.605V106.141H275.505V107.859ZM287.441 107.193L292.917 83.5134L291.244 83.1266L285.768 106.807L287.441 107.193ZM302.441 72.1015H294.301V73.8185H302.441V72.1015ZM295.139 73.1439L305.203 27.2639L303.526 26.8961L293.462 72.7761L295.139 73.1439ZM304.365 27.9385H305.105V26.2215H304.365V27.9385ZM304.248 27.0302L301.584 72.9102L303.298 73.0098L305.962 27.1298L304.248 27.0302ZM378.94 60.38V59.5215H378.193L378.089 60.2612L378.94 60.38ZM390.78 60.38L391.63 60.4988L391.766 59.5215H390.78V60.38ZM384.268 107L383.417 106.881L383.281 107.859H384.268V107ZM394.628 107V107.859H395.374L395.478 107.119L394.628 107ZM409.132 3.39999L409.982 3.51902L410.119 2.54149H409.132V3.39999ZM398.772 3.39999V2.54149H398.025L397.921 3.28123L398.772 3.39999ZM392.26 50.02V50.8785H393.006L393.11 50.1388L392.26 50.02ZM380.419 50.02L379.569 49.9012L379.433 50.8785H380.419V50.02ZM386.932 3.39999L387.782 3.51876L387.918 2.54149H386.932V3.39999ZM376.572 3.39999V2.54149H375.825L375.721 3.28096L376.572 3.39999ZM362.068 107L361.217 106.881L361.08 107.859H362.068V107ZM372.428 107V107.859H373.174L373.278 107.119L372.428 107ZM378.94 61.2385H390.78V59.5215H378.94V61.2385ZM389.929 60.2612L383.417 106.881L385.118 107.119L391.63 60.4988L389.929 60.2612ZM384.268 107.859H394.628V106.141H384.268V107.859ZM395.478 107.119L409.982 3.51902L408.281 3.28096L393.777 106.881L395.478 107.119ZM409.132 2.54149H398.772V4.2585H409.132V2.54149ZM397.921 3.28123L391.409 49.9012L393.11 50.1388L399.622 3.51876L397.921 3.28123ZM392.26 49.1615H380.419V50.8785H392.26V49.1615ZM381.27 50.1388L387.782 3.51876L386.081 3.28123L379.569 49.9012L381.27 50.1388ZM386.932 2.54149H376.572V4.2585H386.932V2.54149ZM375.721 3.28096L361.217 106.881L362.918 107.119L377.422 3.51902L375.721 3.28096ZM362.068 107.859H372.428V106.141H362.068V107.859ZM373.278 107.119L379.79 60.4988L378.089 60.2612L371.577 106.881L373.278 107.119ZM489.945 96.64L490.796 96.7553L490.928 95.7815H489.945V96.64ZM484.765 96.64L483.915 96.5199L483.777 97.4985H484.765V96.64ZM497.937 3.39999L498.787 3.52008L498.926 2.54149H497.937V3.39999ZM469.817 3.39999V2.54149H469.11L468.975 3.23605L469.817 3.39999ZM453.981 84.8L454.818 84.993L454.821 84.9785L454.824 84.9639L453.981 84.8ZM452.205 89.832L451.437 89.4481L452.205 89.832ZM449.985 93.532L450.672 94.0471L450.678 94.0391L450.684 94.031L449.985 93.532ZM447.025 96.64V97.4985H447.343L447.584 97.2918L447.025 96.64ZM445.545 96.64V95.7815H444.79L444.694 96.5301L445.545 96.64ZM442.585 119.58L441.734 119.47L441.609 120.439H442.585V119.58ZM452.797 119.58V120.439H453.543L453.647 119.7L452.797 119.58ZM454.573 107V106.141H453.827L453.723 106.88L454.573 107ZM478.253 107L479.103 107.12L479.241 106.141H478.253V107ZM476.477 119.58L475.627 119.46L475.489 120.439H476.477V119.58ZM486.837 119.58V120.439H487.587L487.688 119.695L486.837 119.58ZM458.273 95.9L457.724 95.2405L457.491 95.4345L457.431 95.7316L458.273 95.9ZM460.789 93.088L461.476 93.6031L461.49 93.584L461.504 93.5642L460.789 93.088ZM462.713 89.684L461.929 89.3353L461.922 89.3501L461.916 89.3652L462.713 89.684ZM464.341 84.8L465.178 84.993L465.181 84.9774L465.184 84.9616L464.341 84.8ZM477.957 13.76V12.9015H477.248L477.114 13.5984L477.957 13.76ZM486.097 13.76L486.947 13.8799L487.085 12.9015H486.097V13.76ZM474.405 96.64V97.4985H475.151L475.255 96.7599L474.405 96.64ZM458.125 96.64L457.283 96.4716L457.078 97.4985H458.125V96.64ZM489.945 95.7815H484.765V97.4985H489.945V95.7815ZM485.615 96.7601L498.787 3.52008L497.087 3.2799L483.915 96.5199L485.615 96.7601ZM497.937 2.54149H469.817V4.2585H497.937V2.54149ZM468.975 3.23605L453.139 84.6361L454.824 84.9639L470.66 3.56394L468.975 3.23605ZM453.145 84.607C452.715 86.4689 452.145 88.0324 451.437 89.4481L452.973 90.2159C453.745 88.6716 454.359 86.979 454.818 84.993L453.145 84.607ZM451.437 89.4481C450.719 90.885 450.003 92.0307 449.287 93.033L450.684 94.031C451.448 92.9613 452.212 91.739 452.973 90.2159L451.437 89.4481ZM449.298 93.0169C448.457 94.1384 447.468 95.1295 446.467 95.9882L447.584 97.2918C448.654 96.3745 449.737 95.2936 450.672 94.0471L449.298 93.0169ZM447.025 95.7815H445.545V97.4985H447.025V95.7815ZM444.694 96.5301L441.734 119.47L443.437 119.69L446.397 96.7499L444.694 96.5301ZM442.585 120.439H452.797V118.721H442.585V120.439ZM453.647 119.7L455.423 107.12L453.723 106.88L451.947 119.46L453.647 119.7ZM454.573 107.859H478.253V106.141H454.573V107.859ZM477.403 106.88L475.627 119.46L477.327 119.7L479.103 107.12L477.403 106.88ZM476.477 120.439H486.837V118.721H476.477V120.439ZM487.688 119.695L490.796 96.7553L489.095 96.5247L485.987 119.465L487.688 119.695ZM458.823 96.5595C459.79 95.7533 460.579 94.7995 461.476 93.6031L460.102 92.5729C459.224 93.7445 458.532 94.5667 457.724 95.2405L458.823 96.5595ZM461.504 93.5642C462.083 92.695 462.879 91.5818 463.51 90.0028L461.916 89.3652C461.364 90.7462 460.68 91.705 460.075 92.6118L461.504 93.5642ZM463.498 90.0327C464.109 88.6571 464.72 86.977 465.178 84.993L463.505 84.607C463.075 86.471 462.501 88.0469 461.929 89.3353L463.498 90.0327ZM465.184 84.9616L478.8 13.9216L477.114 13.5984L463.498 84.6384L465.184 84.9616ZM477.957 14.6185H486.097V12.9015H477.957V14.6185ZM485.247 13.6401L473.555 96.5201L475.255 96.7599L486.947 13.8799L485.247 13.6401ZM474.405 95.7815H458.125V97.4985H474.405V95.7815ZM458.967 96.8084L459.115 96.0684L457.431 95.7316L457.283 96.4716L458.967 96.8084ZM551.746 83.32V82.4615H551.063L550.909 83.1266L551.746 83.32ZM561.366 83.32L562.223 83.3575L562.263 82.4615H561.366V83.32ZM560.33 107L559.472 106.962L559.433 107.859H560.33V107ZM571.43 107V107.859H572.26L572.288 107.028L571.43 107ZM574.834 3.39999L575.692 3.42819L575.721 2.54149H574.834V3.39999ZM560.774 3.39999V2.54149H560.102L559.94 3.19402L560.774 3.39999ZM535.17 107L534.336 106.794L534.073 107.859H535.17V107ZM546.27 107V107.859H546.952L547.106 107.193L546.27 107ZM562.106 72.96V73.8185H562.916L562.963 73.0098L562.106 72.96ZM553.966 72.96L553.127 72.7761L552.898 73.8185H553.966V72.96ZM564.03 27.08V26.2215H563.339L563.191 26.8961L564.03 27.08ZM564.77 27.08L565.627 27.1298L565.68 26.2215H564.77V27.08ZM551.746 84.1785H561.366V82.4615H551.746V84.1785ZM560.508 83.2825L559.472 106.962L561.187 107.038L562.223 83.3575L560.508 83.2825ZM560.33 107.859H571.43V106.141H560.33V107.859ZM572.288 107.028L575.692 3.42819L573.976 3.3718L570.572 106.972L572.288 107.028ZM574.834 2.54149H560.774V4.2585H574.834V2.54149ZM559.94 3.19402L534.336 106.794L536.003 107.206L561.607 3.60597L559.94 3.19402ZM535.17 107.859H546.27V106.141H535.17V107.859ZM547.106 107.193L552.582 83.5134L550.909 83.1266L545.433 106.807L547.106 107.193ZM562.106 72.1015H553.966V73.8185H562.106V72.1015ZM554.804 73.1439L564.868 27.2639L563.191 26.8961L553.127 72.7761L554.804 73.1439ZM564.03 27.9385H564.77V26.2215H564.03V27.9385ZM563.913 27.0302L561.249 72.9102L562.963 73.0098L565.627 27.1298L563.913 27.0302Z" fill="#24242B"></path> </svg> 