<?xml version="1.0" encoding="UTF-8"?> <svg xmlns="http://www.w3.org/2000/svg" width="285" height="106" viewBox="0 0 285 106" fill="none"> <path d="M4.104 11.76L3.25413 11.6386L3.11414 12.6185H4.104V11.76ZM14.464 11.76L15.3142 11.8788L15.4508 10.9015H14.464V11.76ZM1.44 105L0.589752 104.881L0.453245 105.859H1.44V105ZM11.8 105V105.859H12.5469L12.6502 105.119L11.8 105ZM24.824 11.76V10.9015H24.0771L23.9738 11.6412L24.824 11.76ZM35.184 11.76V12.6185H35.9286L36.0339 11.8814L35.184 11.76ZM36.664 1.39999L37.5139 1.5214L37.6539 0.541491H36.664V1.39999ZM5.584 1.39999V0.541491H4.83943L4.73413 1.27858L5.584 1.39999ZM4.104 12.6185H14.464V10.9015H4.104V12.6185ZM13.6138 11.6412L0.589752 104.881L2.29025 105.119L15.3142 11.8788L13.6138 11.6412ZM1.44 105.859H11.8V104.141H1.44V105.859ZM12.6502 105.119L25.6742 11.8788L23.9738 11.6412L10.9498 104.881L12.6502 105.119ZM24.824 12.6185H35.184V10.9015H24.824V12.6185ZM36.0339 11.8814L37.5139 1.5214L35.8141 1.27858L34.3341 11.6386L36.0339 11.8814ZM36.664 0.541491H5.584V2.2585H36.664V0.541491ZM4.73413 1.27858L3.25413 11.6386L4.95387 11.8814L6.43388 1.5214L4.73413 1.27858ZM90.1614 57.64L89.3114 57.5192L89.1722 58.4985H90.1614V57.64ZM98.1534 1.39999L99.0033 1.52078L99.1425 0.541491H98.1534V1.39999ZM87.7934 1.39999V0.541491H87.0467L86.9432 1.28096L87.7934 1.39999ZM73.2894 105L72.4392 104.881L72.3023 105.859H73.2894V105ZM83.6494 105V105.859H84.2661L84.463 105.274L83.6494 105ZM102.593 48.76V47.9015H101.977L101.78 48.4859L102.593 48.76ZM103.333 48.76L104.184 48.8786L104.32 47.9015H103.333V48.76ZM95.4894 105L94.6391 104.881L94.5028 105.859H95.4894V105ZM105.849 105V105.859H106.596L106.7 105.119L105.849 105ZM120.353 1.39999L121.204 1.51902L121.34 0.541491H120.353V1.39999ZM109.993 1.39999V0.541491H109.378L109.18 1.12402L109.993 1.39999ZM90.9014 57.64V58.4985H91.5166L91.7143 57.916L90.9014 57.64ZM91.0113 57.7608L99.0033 1.52078L97.3034 1.27921L89.3114 57.5192L91.0113 57.7608ZM98.1534 0.541491H87.7934V2.2585H98.1534V0.541491ZM86.9432 1.28096L72.4392 104.881L74.1396 105.119L88.6436 1.51902L86.9432 1.28096ZM73.2894 105.859H83.6494V104.141H73.2894V105.859ZM84.463 105.274L103.407 49.034L101.78 48.4859L82.8358 104.726L84.463 105.274ZM102.593 49.6185H103.333V47.9015H102.593V49.6185ZM102.483 48.6414L94.6391 104.881L96.3397 105.119L104.184 48.8786L102.483 48.6414ZM95.4894 105.859H105.849V104.141H95.4894V105.859ZM106.7 105.119L121.204 1.51902L119.503 1.28096L104.999 104.881L106.7 105.119ZM120.353 0.541491H109.993V2.2585H120.353V0.541491ZM109.18 1.12402L90.0884 57.364L91.7143 57.916L110.806 1.67596L109.18 1.12402ZM90.9014 56.7815H90.1614V58.4985H90.9014V56.7815ZM183.999 11.76V10.9015H183.252L183.149 11.6412L183.999 11.76ZM202.499 11.76V12.6185H203.244L203.349 11.8814L202.499 11.76ZM203.979 1.39999L204.829 1.5214L204.969 0.541491H203.979V1.39999ZM175.119 1.39999V0.541491H174.372L174.269 1.28096L175.119 1.39999ZM160.615 105L159.765 104.881L159.628 105.859H160.615V105ZM170.975 105V105.859H171.722L171.825 105.119L170.975 105ZM183.999 12.6185H202.499V10.9015H183.999V12.6185ZM203.349 11.8814L204.829 1.5214L203.129 1.27858L201.649 11.6386L203.349 11.8814ZM203.979 0.541491H175.119V2.2585H203.979V0.541491ZM174.269 1.28096L159.765 104.881L161.465 105.119L175.969 1.51902L174.269 1.28096ZM160.615 105.859H170.975V104.141H160.615V105.859ZM171.825 105.119L184.849 11.8788L183.149 11.6412L170.125 104.881L171.825 105.119ZM283.821 18.42L282.971 18.2986L282.971 18.299L283.821 18.42ZM281.009 5.988L281.66 5.42929L281.654 5.42141L281.647 5.41369L281.009 5.988ZM253.629 1.39999V0.541491H252.882L252.778 1.28096L253.629 1.39999ZM239.125 105L238.274 104.881L238.137 105.859H239.125V105ZM249.485 105V105.859H250.233L250.335 105.117L249.485 105ZM253.777 73.92V73.0615H253.028L252.926 73.8026L253.777 73.92ZM271.981 69.332L271.417 68.6842L271.409 68.691L271.402 68.698L271.981 69.332ZM278.345 56.9L279.191 57.0411L279.193 57.0311L279.194 57.021L278.345 56.9ZM267.985 56.9L267.135 56.779L267.134 56.7865L267.985 56.9ZM255.257 63.56L254.406 63.441L254.269 64.4185H255.257V63.56ZM262.509 11.76V10.9015H261.762L261.658 11.641L262.509 11.76ZM273.461 18.42L274.311 18.541L274.312 18.5335L273.461 18.42ZM284.67 18.5414C285.433 13.2016 284.534 8.78143 281.66 5.42929L280.357 6.5467C282.811 9.41057 283.688 13.2784 282.971 18.2986L284.67 18.5414ZM281.647 5.41369C278.802 2.25337 274.861 0.541491 269.909 0.541491V2.2585C274.429 2.2585 277.887 3.80262 280.37 6.5623L281.647 5.41369ZM269.909 0.541491H253.629V2.2585H269.909V0.541491ZM252.778 1.28096L238.274 104.881L239.975 105.119L254.479 1.51902L252.778 1.28096ZM239.125 105.859H249.485V104.141H239.125V105.859ZM250.335 105.117L254.627 74.0374L252.926 73.8026L248.634 104.883L250.335 105.117ZM253.777 74.7785H259.697V73.0615H253.777V74.7785ZM259.697 74.7785C264.626 74.7785 268.983 73.2315 272.559 69.966L271.402 68.698C268.17 71.6485 264.239 73.0615 259.697 73.0615V74.7785ZM272.544 69.9798C276.132 66.8593 278.279 62.5161 279.191 57.0411L277.498 56.7589C276.634 61.9399 274.637 65.8847 271.417 68.6842L272.544 69.9798ZM279.194 57.021L284.67 18.5409L282.971 18.299L277.495 56.779L279.194 57.021ZM267.134 56.7865C266.854 58.8842 266.17 60.3442 265.205 61.2781C264.251 62.2008 262.929 62.7015 261.177 62.7015V64.4185C263.272 64.4185 265.058 63.8092 266.399 62.5119C267.728 61.2258 268.523 59.3558 268.836 57.0135L267.134 56.7865ZM261.177 62.7015H255.257V64.4185H261.177V62.7015ZM256.107 63.679L263.359 11.879L261.658 11.641L254.406 63.441L256.107 63.679ZM262.509 12.6185H268.429V10.9015H262.509V12.6185ZM268.429 12.6185C270.196 12.6185 271.297 13.1237 271.928 13.9473C272.58 14.7974 272.892 16.1899 272.61 18.3065L274.312 18.5335C274.621 16.2101 274.341 14.2726 273.291 12.9027C272.22 11.5062 270.509 10.9015 268.429 10.9015V12.6185ZM272.611 18.299L267.135 56.779L268.834 57.021L274.31 18.5409L272.611 18.299Z" fill="#2A2A34"></path> </svg> 