<?xml version="1.0" encoding="UTF-8"?> <svg xmlns="http://www.w3.org/2000/svg" width="105" height="149" viewBox="0 0 105 149" fill="none"> <path opacity="0.2" fill-rule="evenodd" clip-rule="evenodd" d="M17.5505 131.231L17.5332 131.208L17.5144 131.186C16.5666 130.08 16.1285 128.205 16.7095 125.106L16.7133 125.086L16.7161 125.065L30.7562 24.7798L30.7569 24.774C31.143 21.8781 32.044 19.8363 33.3834 18.5188C34.7074 17.2166 36.5676 16.5165 39.1057 16.5165C41.5517 16.5165 43.1425 17.2174 44.0693 18.4263C45.0168 19.6621 45.4343 21.6365 45.0481 24.5368L45.0477 24.54L31.0101 124.808C30.5278 127.692 29.5354 129.743 28.1407 131.071C26.7579 132.388 24.887 133.083 22.4583 133.083C19.9815 133.083 18.5144 132.516 17.5505 131.231ZM31.8852 124.943L45.9252 24.657C46.7274 18.6399 44.3206 15.6313 39.1057 15.6313C33.6903 15.6313 30.6817 18.6399 29.8794 24.657L15.8394 124.943C15.2377 128.152 15.6389 130.358 16.8423 131.762C18.0457 133.367 19.8509 133.968 22.4583 133.968C27.6732 133.968 30.8823 130.96 31.8852 124.943ZM23.6826 7.14101L23.6745 7.14804L23.6665 7.15528C18.8814 11.5243 15.9908 17.3376 14.9631 24.5318L14.9627 24.5343L0.92433 124.809C-0.301772 132.179 0.901003 138.092 4.73625 142.366C8.35706 146.827 13.6532 148.894 20.4526 148.894C25.7854 148.894 30.602 147.547 34.8779 144.745L35.0089 143.588C30.7301 146.575 25.8779 148.008 20.4526 148.008C13.8337 148.008 8.81944 146.003 5.40972 141.791C1.79944 137.779 0.596006 132.163 1.79944 124.943L15.8394 24.657C16.8423 17.637 19.6503 12.021 24.2634 7.80902C28.8766 3.79758 34.4926 1.5913 41.1114 1.5913C47.5297 1.5913 52.544 3.79758 56.1543 7.80902C59.7646 12.021 60.968 17.637 59.9652 24.657L56.9071 46.5H57.801L60.8415 24.7822L60.8417 24.7809C61.8678 17.5967 60.6523 11.6964 56.8264 7.23291L56.8195 7.22478L56.8123 7.21682C53.0161 2.99883 47.7524 0.706055 41.1114 0.706055C34.278 0.706055 28.4559 2.99023 23.6826 7.14101ZM98.8729 46.5L104.775 4.7237L104.917 3.71462H103.898H92.8667H92.0989L91.9904 4.47468C91.216 9.89495 88.9028 14.3213 85.2461 17.7889C81.3823 21.2632 77.3791 22.7689 73.2107 22.7689H72.4408L72.334 23.5314L70.93 33.56L70.7889 34.568H71.8067C74.0593 34.568 76.1417 34.3639 77.838 33.9398C79.4226 33.5437 80.8906 33.1298 82.1755 32.4964C83.2515 32.1273 84.2934 31.4903 85.1911 30.829L82.9879 46.5H83.8818L86.1234 30.5565L86.2478 29.6713H85.3539H85.245C84.2421 30.4736 83.0387 31.2759 81.8353 31.677C80.6319 32.2787 79.2279 32.6799 77.6233 33.081C76.2387 33.4272 74.5553 33.624 72.7022 33.6714C72.4078 33.679 72.1091 33.6827 71.8067 33.6827L71.9307 32.7973L73.2107 23.6542C77.6233 23.6542 81.8353 22.0496 85.8467 18.4393C89.6576 14.829 92.0644 10.2159 92.8667 4.59987H103.004H103.898L103.773 5.48512L97.9789 46.5H98.8729Z" fill="white"></path> </svg> 