<?xml version="1.0" encoding="UTF-8"?> <svg xmlns="http://www.w3.org/2000/svg" width="124" height="149" viewBox="0 0 124 149" fill="none"> <path opacity="0.2" fill-rule="evenodd" clip-rule="evenodd" d="M17.5505 131.231L17.5332 131.208L17.5144 131.186C16.5666 130.08 16.1285 128.205 16.7095 125.106L16.7133 125.086L16.7161 125.065L30.7562 24.7798L30.7569 24.774C31.143 21.8781 32.044 19.8363 33.3834 18.5188C34.7074 17.2166 36.5676 16.5165 39.1057 16.5165C41.5517 16.5165 43.1425 17.2174 44.0693 18.4263C45.0168 19.6621 45.4343 21.6365 45.0481 24.5368L45.0477 24.54L31.0101 124.808C30.5278 127.692 29.5354 129.743 28.1407 131.071C26.7579 132.388 24.887 133.083 22.4583 133.083C19.9815 133.083 18.5144 132.516 17.5505 131.231ZM31.8852 124.943L45.9252 24.657C46.7274 18.6399 44.3206 15.6313 39.1057 15.6313C33.6903 15.6313 30.6817 18.6399 29.8794 24.657L15.8394 124.943C15.2377 128.152 15.6389 130.358 16.8423 131.762C18.0457 133.367 19.8509 133.968 22.4583 133.968C27.6732 133.968 30.8823 130.96 31.8852 124.943ZM23.6826 7.14101L23.6745 7.14804L23.6665 7.15528C18.8814 11.5243 15.9908 17.3376 14.9631 24.5318L14.9627 24.5343L0.92433 124.809C-0.301772 132.179 0.901003 138.092 4.73625 142.366C8.35706 146.827 13.6532 148.894 20.4526 148.894C27.0745 148.894 32.9005 146.817 37.8835 142.457C42.6858 138.28 45.5699 132.459 46.7984 125.088L46.8003 125.077L46.8019 125.065L60.8415 24.7822L60.8417 24.7809C61.8678 17.5967 60.6523 11.6964 56.8264 7.23291L56.8195 7.22478L56.8123 7.21682C53.0161 2.99883 47.7524 0.706055 41.1114 0.706055C34.278 0.706055 28.4559 2.99023 23.6826 7.14101ZM5.40972 141.791C1.79944 137.779 0.596006 132.163 1.79944 124.943L15.8394 24.657C16.8423 17.637 19.6503 12.021 24.2634 7.80902C28.8766 3.79758 34.4926 1.5913 41.1114 1.5913C47.5297 1.5913 52.544 3.79758 56.1543 7.80902C59.7646 12.021 60.968 17.637 59.9652 24.657L45.9252 124.943C44.7217 132.163 41.9137 137.779 37.3006 141.791C32.4869 146.003 26.8709 148.008 20.4526 148.008C13.8337 148.008 8.81944 146.003 5.40972 141.791ZM67.1936 93.9718H66.4236L66.3169 94.7343L62.1065 124.809C60.8795 132.184 62.0848 138.101 65.9266 142.375C69.7411 146.82 75.0241 148.894 81.8353 148.894C87.3188 148.894 92.2647 147.469 96.5245 144.493L96.6593 143.302C92.4163 146.484 87.4307 148.008 81.8353 148.008C75.2164 148.008 70.2021 146.003 66.5919 141.791C62.9816 137.779 61.7781 132.163 62.9816 124.943L67.1936 94.857H80.3397H81.2336L81.1096 95.7423L77.0216 124.943C76.2193 130.96 78.4256 133.968 83.841 133.968C89.0558 133.968 92.265 130.96 93.0673 124.943L98.8839 82.8227C99.285 79.8142 98.8839 77.6079 97.6804 76.0033C96.477 74.5993 95.073 73.797 93.0673 73.797H80.9244H80.0301L80.1566 72.9118L82.0359 59.757L106.175 19.5251L106.706 18.6399H105.674H79.7209H78.8267L78.9532 17.7546L80.8324 4.59987H122.058H122.952L122.826 5.48512L120.947 18.6399L96.6074 58.8782L96.0759 59.757C96.4202 59.757 96.7601 59.7653 97.0954 59.7818C100.421 59.9454 103.306 60.9155 105.795 62.6018L105.907 61.6157C103.496 60.0741 100.74 59.1522 97.6129 58.9264L121.704 19.098L121.798 18.9437L121.823 18.7651L123.829 4.72506L123.973 3.71462H122.952H80.8324H80.0647L79.9561 4.47468L77.9504 18.5147L77.806 19.5251H78.8267H105.143L81.2768 59.3016L81.1848 59.4549L81.1595 59.6318L79.1538 73.6718L79.0094 74.6823H80.0301H93.0673C94.7636 74.6823 95.9305 75.3306 96.9892 76.5572C97.986 77.9018 98.3892 79.8322 98.0066 82.7037L98.0064 82.7057L92.1903 124.822L92.1898 124.826C91.8055 127.708 90.86 129.753 89.4932 131.076C88.1383 132.387 86.2715 133.083 83.841 133.083C81.2845 133.083 79.7049 132.377 78.8078 131.181C77.8853 129.951 77.5103 127.979 77.8985 125.063L77.899 125.06L82.1103 94.9798L82.2514 93.9718H81.2336H67.1936Z" fill="white"></path> </svg> 