<?xml version="1.0" encoding="UTF-8"?> <svg xmlns="http://www.w3.org/2000/svg" width="1387" height="424" viewBox="0 0 1387 424" fill="none"> <path opacity="0.1" d="M0 190.5C0 190.5 263 190.5 274 190.5C285 190.5 280.5 214.5 288 214.5C295.5 214.5 295.5 169.5 308 169.5C320.5 169.5 317.5 242 331.5 242C345.5 242 350 132.5 365.5 132.5C381 132.5 383.5 287 402.5 287C421.5 287 421 98 442 98C463 98 452.5 328.5 471 328.5C489.5 328.5 499 67 519.5 67C540 67 538 366 557 366C576 366 606 1 630.5 1C655 1 648 423.5 673 423.5C698 423.5 703.5 1 726.5 1C749.5 1 751 423.5 775.5 423.5C800 423.5 804.5 67 828 67C851.5 67 853.5 366 877 366C900.5 366 913.5 98 933.5 98C953.5 98 943 287 962.5 287C982 287 983.5 132.5 1001.5 132.5C1019.5 132.5 1010.5 242 1027 242C1043.5 242 1039.5 169.5 1049.5 169.5C1059.5 169.5 1051 214.5 1062.5 214.5C1074 214.5 1067 190.5 1074 190.5C1081 190.5 1386.5 190.5 1386.5 190.5" stroke="url(#paint0_linear)"></path> <defs> <linearGradient id="paint0_linear" x1="0.499998" y1="190.5" x2="1386.5" y2="190.5" gradientUnits="userSpaceOnUse"> <stop stop-color="white" stop-opacity="0"></stop> <stop offset="0.541667" stop-color="white"></stop> <stop offset="1" stop-color="white" stop-opacity="0"></stop> </linearGradient> </defs> </svg> 