<?xml version="1.0" encoding="UTF-8"?> <svg xmlns="http://www.w3.org/2000/svg" width="44" height="46" viewBox="0 0 44 46" fill="none"> <path d="M39.9412 17.1859C41.8963 15.3638 43.0938 12.6089 43.0938 9.82666C43.0938 4.4088 38.6773 0 33.25 0H30.4375H24.8125H19.1875H5.125C4.34772 0 3.71875 0.627877 3.71875 1.40381C3.71875 2.53294 3.91563 3.60751 4.19528 4.64979C2.17412 6.23319 0.90625 8.8205 0.90625 11.4176C0.90625 13.7248 1.85247 15.8567 3.40703 17.3975C1.93487 18.0556 0.90625 19.532 0.90625 21.2443C0.90625 24.6557 3.3595 27.5 6.59566 28.1278C7.04247 33.5727 10.3255 38.2186 14.9688 40.5967V46.5129C14.9688 47.2888 15.5977 47.9167 16.375 47.9167H27.625C28.4023 47.9167 29.0312 47.2888 29.0312 46.5129V40.5967C33.6745 38.2186 36.9575 33.5727 37.4043 28.1278C40.6405 27.5 43.0938 24.6557 43.0938 21.2443C43.0938 19.2918 41.7498 17.6608 39.9412 17.1859ZM6.53125 21.2443V25.1971C4.89794 24.6157 3.71875 23.0721 3.71875 21.2443C3.71875 20.4698 4.34912 19.8405 5.125 19.8405H6.53125V21.2443ZM11.0297 13.001C12.6592 13.7655 14.4584 14.2253 16.375 14.2253H33.6867C34.11 15.1142 34.4078 16.0569 34.5486 17.0329H24.8125C24.0352 17.0329 23.4062 17.6608 23.4062 18.4367V19.8405H20.5938V18.4367C20.5938 17.6608 19.9648 17.0329 19.1875 17.0329H9.4675C9.67741 15.5868 10.2167 14.2168 11.0297 13.001ZM34.6562 26.8595C34.6562 33.8265 28.979 39.4938 22 39.4938C15.021 39.4938 9.34375 33.8265 9.34375 26.8595V26.8237C10.5226 27.7145 11.9736 28.2633 13.5625 28.2633C15.1514 28.2633 16.6024 27.7145 17.7812 26.8237V26.8595C17.7812 29.1818 19.6737 31.071 22 31.071C22.7773 31.071 23.4062 30.4431 23.4062 29.6672C23.4062 28.8912 22.7773 28.2633 22 28.2633C21.2241 28.2633 20.5938 27.6341 20.5938 26.8595V22.6481H23.5486C24.2019 25.848 27.0422 28.2633 30.4375 28.2633C32.0264 28.2633 33.4774 27.7145 34.6562 26.8237V26.8595ZM37.4688 25.1971V21.2443V19.8405H38.875C39.6509 19.8405 40.2812 20.4698 40.2812 21.2443C40.2812 23.0721 39.1021 24.6157 37.4688 25.1971Z" fill="#14C54D"></path> </svg> 