<svg width="19" height="19" viewBox="0 0 19 19" fill="none" xmlns="http://www.w3.org/2000/svg">
<path d="M15.7612 2.69607C14.0222 0.963547 11.7088 0.00880114 9.24663 0.0078125C6.79 0.0078125 4.4729 0.961711 2.72244 2.69381C0.96887 4.42888 0.00225975 6.73468 0 9.17804V9.18086V9.18256C0.000282469 10.6614 0.388819 12.1533 1.12635 13.5151L0.025281 18.5197L5.08755 17.3682C6.36968 18.0144 7.80025 18.355 9.2431 18.3556H9.24677C11.703 18.3556 14.0201 17.4016 15.7708 15.6693C17.5259 13.9328 18.493 11.63 18.4941 9.1851C18.4948 6.75742 17.5244 4.45289 15.7612 2.69607ZM9.24663 16.9108H9.24338C7.94784 16.9102 6.66416 16.5849 5.53131 15.9699L5.29192 15.8399L1.92573 16.6056L2.65691 13.2826L2.51595 13.0395C1.81515 11.831 1.44483 10.4969 1.44483 9.181C1.44751 4.92179 4.94703 1.45264 9.24635 1.45264C11.3233 1.45349 13.2749 2.25867 14.7415 3.7196C16.2303 5.20313 17.0498 7.14397 17.0491 9.18467C17.0474 13.4449 13.5472 16.9108 9.24663 16.9108Z" fill="#148E2D"/>
<path d="M6.7296 5.13672H6.32426C6.18317 5.13672 5.95408 5.18954 5.76031 5.4004C5.5664 5.61141 5.01996 6.12141 5.01996 7.15863C5.01996 8.19586 5.77796 9.19806 5.88361 9.33887C5.98939 9.47954 7.3468 11.676 9.49667 12.521C11.2834 13.2232 11.6471 13.0836 12.0348 13.0484C12.4226 13.0134 13.2863 12.5385 13.4625 12.0463C13.6388 11.5541 13.6388 11.1321 13.586 11.044C13.533 10.9562 13.3919 10.9035 13.1805 10.7981C12.9689 10.6926 11.9323 10.174 11.7383 10.1035C11.5444 10.0333 11.4035 9.99816 11.2624 10.2093C11.1213 10.42 10.7059 10.9076 10.5825 11.0482C10.4592 11.189 10.3357 11.2067 10.1242 11.1012C9.91261 10.9954 9.23835 10.7689 8.43035 10.0508C7.80143 9.49197 7.36502 8.7793 7.24158 8.5683C7.11828 8.35743 7.22844 8.24332 7.33451 8.1381C7.42956 8.04375 7.55794 7.91466 7.66373 7.79165C7.76937 7.66849 7.79946 7.58064 7.87007 7.43997C7.94055 7.2993 7.90524 7.17615 7.85242 7.07079C7.79946 6.96528 7.39355 5.92283 7.20542 5.50591H7.20556C7.0471 5.1548 6.8803 5.14293 6.7296 5.13672Z" fill="#148E2D"/>
</svg>
