<?xml version="1.0" encoding="iso-8859-1"?>
<!-- Generator: Adobe Illustrator 21.0.2, SVG Export Plug-In . SVG Version: 6.00 Build 0)  -->
<svg version="1.1" id="Layer_1" xmlns="http://www.w3.org/2000/svg" xmlns:xlink="http://www.w3.org/1999/xlink" x="0px" y="0px"
	 viewBox="0 0 103.002 102.999" style="enable-background:new 0 0 103.002 102.999;" xml:space="preserve">
<g>
	
		<line style="fill:none;stroke:#000000;stroke-width:3;stroke-linecap:round;stroke-linejoin:round;stroke-miterlimit:10;" x1="23.094" y1="51.807" x2="30.44" y2="51.807"/>
	
		<line style="fill:none;stroke:#000000;stroke-width:3;stroke-linecap:round;stroke-linejoin:round;stroke-miterlimit:10;" x1="23.094" y1="61.471" x2="30.44" y2="61.471"/>
	
		<polygon style="fill:none;stroke:#000000;stroke-width:3;stroke-linecap:round;stroke-linejoin:round;stroke-miterlimit:10;" points="
		30.44,39.657 30.44,77.762 86.272,77.762 91.242,39.657 	"/>
	
		<polyline style="fill:none;stroke:#000000;stroke-width:3;stroke-linecap:round;stroke-linejoin:round;stroke-miterlimit:10;" points="
		91.242,44.627 98.144,39.657 98.144,58.71 89.329,54.319 	"/>
	
		<circle style="fill:none;stroke:#000000;stroke-width:3;stroke-linecap:round;stroke-linejoin:round;stroke-miterlimit:10;" cx="42.038" cy="58.71" r="4.28"/>
	
		<circle style="fill:none;stroke:#000000;stroke-width:3;stroke-linecap:round;stroke-linejoin:round;stroke-miterlimit:10;" cx="56.12" cy="58.71" r="4.28"/>
	
		<line style="fill:none;stroke:#000000;stroke-width:3;stroke-linecap:round;stroke-linejoin:round;stroke-miterlimit:10;" x1="41.271" y1="39.657" x2="50.177" y2="26.238"/>
	<g>
		
			<polygon style="fill:none;stroke:#000000;stroke-width:3;stroke-linecap:round;stroke-linejoin:round;stroke-miterlimit:10;" points="
			3.858,44.627 9.104,44.627 12.418,49.322 12.418,63.956 8.138,68.097 3.858,68.097 		"/>
		
			<polyline style="fill:none;stroke:#000000;stroke-width:3;stroke-linecap:round;stroke-linejoin:round;stroke-miterlimit:10;" points="
			12.418,49.322 22.939,49.322 22.939,63.956 12.418,63.956 		"/>
		
			<line style="fill:none;stroke:#000000;stroke-width:3;stroke-linecap:round;stroke-linejoin:round;stroke-miterlimit:10;" x1="50.177" y1="26.238" x2="90.634" y2="26.238"/>
	</g>
</g>
</svg>
