<?xml version="1.0" encoding="utf-8"?>
<!-- Generator: Adobe Illustrator 24.1.2, SVG Export Plug-In . SVG Version: 6.00 Build 0)  -->
<svg version="1.1" id="Слой_1" xmlns="http://www.w3.org/2000/svg" xmlns:xlink="http://www.w3.org/1999/xlink" x="0px" y="0px"
	 viewBox="0 0 481 53" style="enable-background:new 0 0 481 53;" xml:space="preserve">
<style type="text/css">
	.st0{fill:#371B0F;}
	.st1{display:none;fill:#FEFEFE;}
	.st2{fill:none;}
	.st3{fill:#F2EBED;}
	.st4{fill:#F3ECED;}
	.st5{fill:#4F372C;}
	.st6{fill:#493026;}
	.st7{fill:#5F493F;}
	.st8{fill:#6B574E;}
	.st9{fill:#5F4A41;}
	.st10{fill:#523B30;}
	.st11{fill:#5D473E;}
	.st12{fill:#BEB6B2;}
	.st13{fill:#491D2C;}
	.st14{fill:#4B1E31;}
	.st15{fill:#FAF9F9;}
	.st16{fill:#FAFAFA;}
	.st17{fill:#6B584E;}
	.st18{fill:#8C7A74;}
	.st19{fill:#9A8C86;}
	.st20{fill:#B9AFAB;}
	.st21{fill:#FCFBFB;}
	.st22{fill:#76645D;}
	.st23{fill:#B7AEAB;}
	.st24{fill:#E6D7D6;}
	.st25{fill:#E8DBD8;}
</style>
<g>
	<path class="st0" d="M481.52,15.99c0,12.14,0,24.28,0.01,36.43c0,0.34-0.07,0.44-0.43,0.44c-160.22-0.01-320.44-0.01-480.67,0
		C0.07,52.85,0,52.77,0,52.42c0.01-10.95,0.01-21.9,0.01-32.85c0.94-0.14,1.53,0.45,1.35,1.36c-0.01,0.03-0.02,0.06-0.02,0.09
		c-0.11,0.69,0.17,0.97,0.84,0.77c0.54-0.16,1.08-0.37,1.5-0.75c0.74-0.67,1.69-0.86,2.59-1.14c0.59-0.18,1.15-0.41,1.7-0.66
		c0.38-0.17,0.52-0.51,0.52-0.92c0-0.74-0.23-1.45-0.34-2.17c-0.04-0.26-0.09-0.52-0.1-0.79c-0.02-0.47-0.3-0.81-0.77-0.85
		c-0.53-0.05-1.05-0.07-1.57,0.16c-0.53,0.24-1.13,0.29-1.7,0.27c-1.12-0.04-2.22,0.06-3.28,0.42c-0.23,0.08-0.48,0.18-0.72-0.01
		c0-0.88,0-1.75,0-2.63c0.09-0.09,0.21-0.2,0.33-0.15c0.61,0.23,1.3,0,1.91,0.35c0.46,0.27,1.02,0.4,1.58,0.39
		c0.34,0,0.59,0.11,0.8,0.4c0.32,0.44,0.5,0.48,1.01,0.32c0.71-0.21,1.4-0.4,2.15-0.11c0.38,0.15,0.71-0.26,0.83-0.8
		c0.18-0.78-0.29-1.24-0.8-1.64c-0.22-0.18-0.6-0.07-0.89,0.09c-0.34,0.19-0.47,0.15-0.48-0.23c-0.02-0.74-0.24-1.44-0.23-2.19
		c0.01-0.72,0.15-1.4,0.29-2.08c0.08-0.39,0.72-0.66,1.12-0.37c0.66,0.49,1.22,0.21,1.78-0.09c1-0.54,2.07-0.87,3.15-1.18
		c0.4-0.11,0.74-0.34,1.11-0.49c0.84-0.34,1.61-0.8,2.35-1.35c0.61-0.46,1.27-0.86,1.94-1.23c0.59-0.33,1.27-0.43,1.9-0.68
		c0.39-0.15,0.96,0.12,1.2,0.47c0.23,0.34,0.19,0.69-0.11,1.13c-0.16,0.24-0.37,0.43-0.61,0.58c-0.19,0.12-0.35,0.26-0.47,0.46
		c-0.17,0.28-0.12,0.5,0.16,0.68c0.31,0.2,0.67,0.26,1.01,0.36c0.34,0.1,0.76,0.14,0.81,0.59c0.05,0.41-0.31,0.62-0.59,0.78
		c-1.95,1.09-3.89,2.23-6.16,2.6c-0.42,0.07-0.84,0.06-1.26,0.11c-0.58,0.08-0.91,0.33-0.94,0.9c-0.08,1.13-0.11,2.27,0.33,3.34
		c0.36,0.86,0.5,1.78,0.83,2.64c0.22,0.55,0.44,1.09,0.56,1.69c0.13,0.66,0.09,1.35,0.39,1.97c0.12,0.24-0.06,0.45-0.24,0.62
		c-0.27,0.27-0.57,0.49-0.88,0.7c-0.58,0.39-0.95,0.99-1.48,1.43c-0.85,0.7-1.76,1.12-2.91,1.09c-0.74-0.02-1.5-0.08-2.25,0
		c-0.67,0.07-0.81,0.23-0.79,0.89c0.04,1.19,0.35,2.32,0.82,3.4c0.39,0.89,0.74,1.79,1.1,2.7c0.34,0.86,1.15,1.17,1.97,0.74
		c0.28-0.15,0.56-0.21,0.86-0.17c1.74,0.2,3.47-0.02,5.2-0.14c1.45-0.1,2.9-0.25,4.36-0.09c1.09,0.12,1.87-0.28,2.3-1.25
		c0.83-1.89,2.43-2.17,4.25-1.79c0.9,0.19,1.66,0.72,2.43,1.21c0.44,0.27,0.93,0.37,1.41,0.49c0.28,0.07,0.41-0.11,0.45-0.4
		c0.12-0.77,0.14-1.55,0.3-2.32c0.35-1.66,1.8-2.97,3.52-2.96c1.01,0,2.03-0.16,3.03,0.11c0.23,0.06,0.46,0.12,0.62,0.31
		c0.16,0.18,0.36,0.23,0.59,0.21c0.3-0.04,0.56,0.06,0.76,0.28c0.3,0.33,0.69,0.54,1.06,0.77c1.22,0.75,2.34,1.62,3.36,2.63
		c0.35,0.34,0.64,0.73,0.92,1.13c0.41,0.57,0.96,0.88,1.68,0.87c2.26-0.02,4.51,0.01,6.77-0.01c0.61-0.01,1.24,0.12,1.87,0.11
		c0.28-0.01,0.56,0.01,0.84-0.08c0.09-0.03,0.19-0.06,0.28-0.01c0.53,0.29,1.1,0.15,1.66,0.18c2.35,0.11,4.69,0.1,7.04,0.1
		c1.03,0,1.98-0.25,2.87-0.77c0.13-0.07,0.21-0.18,0.3-0.29c0.25-0.32,0.5-0.65,0.79-0.93c0.7-0.68,1.53-0.95,2.5-0.78
		c0.31,0.06,0.61,0.13,0.93,0.13c0.63-0.02,1.08-0.41,1.11-1.04c0.03-0.6,0.22-1.13,0.53-1.63c0.15-0.24,0.32-0.42,0.58-0.52
		c0.07-0.03,0.17-0.05,0.21-0.11c0.37-0.6,1.01-0.47,1.55-0.58c0.56-0.11,1.11-0.14,1.71-0.01c0.91,0.2,1.74,0.6,2.6,0.92
		c0.94,0.35,1.69,1,2.39,1.71c0.41,0.41,0.8,0.82,1.03,1.37c0.15,0.33,0.53,0.37,0.82,0.12c0.33-0.3,0.45-0.68,0.54-1.11
		c0.2-0.99,0.25-2.01,0.58-2.98c0.52-1.5,1.91-1.69,3.14-1.06c0.45,0.23,0.94,0.46,1.28,0.86c0.36,0.41,0.69,0.84,1.09,1.22
		c0.47,0.43,0.79,0.99,1.25,1.44c0.41,0.41,0.68,0.93,0.99,1.43c0.64,1.03,1.07,1.08,1.87,0.19c1.21-1.35,2.28-2.82,3.45-4.21
		c0.35-0.42,0.8-0.58,1.28-0.8c0.61-0.28,1.24-0.41,1.87-0.53c0.89-0.16,1.75,0.01,2.55,0.41c0.87,0.43,1.6,1.04,2.14,1.86
		c0.17,0.26,0.44,0.4,0.68,0.57c0.29,0.2,0.58,0.09,0.7-0.25c0.1-0.3,0.17-0.6,0.17-0.92c-0.01-0.59,0.02-1.19-0.05-1.78
		c-0.06-0.44,0.12-0.86,0.16-1.29c0.07-0.73,0.13-1.46,0.16-2.19c0.03-0.79,0.09-1.59,0.27-2.37c0.19-0.82,0.36-1.65,0.55-2.48
		c0.09-0.4,0.21-0.79,0.39-1.16c0.16-0.34,0.3-0.68,0.4-1.05c0.14-0.52,0.53-0.87,0.92-1.22c0.37-0.33,0.79-0.56,1.24-0.75
		c0.16-0.07,0.34-0.15,0.5-0.06c0.28,0.16,0.55,0.1,0.81,0.02c0.51-0.16,1-0.08,1.46,0.14c0.66,0.32,1.37,0.55,1.91,1.08
		c0.14,0.13,0.32,0.2,0.5,0.24c0.39,0.07,0.75,0.2,1.12,0.35c0.23,0.04,0.4,0.18,0.61,0.27c0.04,0.02,0.08,0.04,0.11,0.07
		c0.13,0.12,0.29,0.18,0.45,0.22c0.44,0.26,0.91,0.5,1.18,0.96c0.02,0.01-0.05,0.07,0.03,0.06c0.05,0.01,0.09,0.03,0.13,0.06
		c0.12,0.12,0.23,0.25,0.38,0.33c0.04,0.02,0.07,0.05,0.1,0.08c0.2,0.19,0.36,0.42,0.6,0.57c0.94,0.75,1.91,1.47,2.82,2.26
		c0.36,0.32,0.6,0.77,0.98,1.1c0.65,0.57,1.24,1.22,1.87,1.81c0.09,0.09,0.19,0.17,0.24,0.29c0.29,0.73,0.87,1.25,1.33,1.87
		c0.42,0.56,0.79,1.15,0.95,1.86c0.09,0.4,0.28,0.8,0.48,1.16c0.5,0.92,0.85,1.93,1.45,2.78c0.53,0.75,0.81,1.66,1.51,2.29
		c0.23,0.2,0.46,0.32,0.76,0.2c0.32-0.13,0.55-0.39,0.5-0.72c-0.15-0.96,0.23-1.82,0.39-2.72c0.15-0.86,0.58-1.55,1.23-2.12
		c0.34-0.3,0.77-0.43,1.18-0.53c0.99-0.22,2-0.35,3.03-0.25c0.11,0.01,0.23,0.03,0.32-0.03c0.48-0.32,0.98-0.2,1.44,0
		c0.79,0.34,1.62,0.37,2.45,0.48c0.51,0.07,1.01,0.22,1.54,0.17c0.28-0.03,0.5,0.26,0.78,0.3c0.64,0.1,1.23,0.35,1.85,0.51
		c0.92,0.24,1.76,0.64,2.59,1.09c0.33,0.18,0.67,0.35,1.02,0.48c0.47,0.17,0.79-0.02,0.9-0.51c0.03-0.12,0.08-0.25,0.05-0.37
		c-0.16-0.76,0.09-1.49,0.12-2.23c0.03-0.71,0.38-1.25,0.89-1.74c0.63-0.6,1.43-0.79,2.21-1.07c0.69-0.25,1.35-0.3,2.06-0.2
		c0.43,0.06,0.88,0.05,1.31,0c0.8-0.08,1.52,0.19,2.28,0.35c0.65,0.14,1.3,0.28,1.96,0.37c0.12,0.02,0.25,0,0.37,0.06
		c0.78,0.41,1.66,0.58,2.44,0.99c0.69,0.36,1.38,0.74,2.01,1.21c0.7,0.52,1.43,1.01,2.19,1.46c0.66,0.38,0.95,0.28,1.23-0.42
		c0.48-1.16,1.25-2.07,2.32-2.73c0.08-0.05,0.16-0.1,0.23-0.17c0.79-0.85,1.88-1.06,2.94-1.33c0.15-0.04,0.31-0.01,0.47,0.03
		c1.29,0.32,2.48,0.85,3.49,1.75c0.76,0.68,1.56,1.3,2.38,1.91c0.08,0.06,0.15,0.11,0.24,0.15c0.45,0.23,0.69,0.11,0.75-0.38
		c0.02-0.16,0.01-0.31,0.02-0.47c0.04-1.13,0.51-2.02,1.32-2.8c0.4-0.38,0.69-0.41,1.13-0.15c0.3,0.18,0.66,0.2,1.01,0.19
		c1.32-0.03,2.63,0.08,3.95-0.07c0.06-0.01,0.13-0.02,0.19,0c1.22,0.37,2.53,0.35,3.75,0.76c1.13,0.38,2.25,0.77,3.31,1.33
		c0.47,0.25,1,0.34,1.47,0.62c0.88,0.53,1.76,1.07,2.65,1.59c0.53,0.31,0.98,0.73,1.23,1.31c0.07,0.16,0.21,0.22,0.35,0.3
		c0.55,0.35,1,0.78,1.33,1.36c0.16,0.29,0.53,0.42,0.78,0.67c0.16,0.16,0.35,0.3,0.51,0.48c0.29,0.33,0.71,0.3,0.87-0.1
		c0.33-0.82,1.1-1.16,1.69-1.7c0.2-0.19,0.48-0.28,0.66-0.51c0.14-0.19,0.36-0.16,0.56-0.14c0.54,0.06,1.06,0.04,1.52-0.32
		c0.21-0.16,0.46-0.17,0.72-0.13c0.78,0.14,1.56,0.11,2.34,0.03c0.73-0.07,1.42,0.17,2.12,0.35c0.17,0.04,0.32,0.15,0.49,0.15
		c0.71-0.01,1.31,0.28,1.88,0.65c0.05,0.03,0.11,0.07,0.17,0.08c0.25,0.05,0.53,0.13,0.72-0.05c0.21-0.19,0.02-0.45-0.06-0.65
		c-0.29-0.64-0.66-1.24-0.91-1.9c-0.2-0.54-0.34-1.1-0.51-1.66c-0.04-0.13-0.04-0.28,0-0.42c0.22-0.72,0.48-1.42,0.81-2.1
		c0.09-0.18,0.25-0.28,0.45-0.3c0.39-0.03,0.77-0.16,1.16-0.15c0.11,0,0.23,0.01,0.33-0.03c1.03-0.49,2.06-0.3,3.11-0.05
		c1.04,0.25,2.13,0.32,3.18,0.56c1.79,0.42,3.52,1.01,5.18,1.81c0.13,0.06,0.25,0.13,0.35,0.24c0.97,1.21,2.12,2.17,3.59,2.72
		c0.19,0.07,0.38,0.14,0.54,0.28c0.21,0.21,0.37,0.46,0.59,0.66c0.46,0.43,0.98,0.53,1.56,0.32c0.56-0.2,1.12-0.41,1.73-0.14
		c0.06,0.03-0.01,0.03,0.04,0.01c0.77-0.3,1.49,0.13,2.23,0.17c2.89,0.15,5.79,0.13,8.68,0.19c0.99,0.02,1.99,0.11,2.95,0.49
		c0.67,0.27,1.36,0.17,1.99-0.21c0.25-0.15,0.47-0.26,0.7,0.03c0.06,0.08,0.16,0.09,0.25,0.11c1.03,0.19,2.06,0.4,3.12,0.39
		c0.3,0,0.6-0.01,0.88,0.1c1.22,0.5,2.45,0.37,3.68,0.04c0.15-0.04,0.3-0.08,0.46-0.06c0.83,0.49,1.64,1.03,2.59,1.27
		c1.06,0.27,2.12,0.52,3.22,0.27c0.56-0.07,1.13-0.03,1.69-0.04c1.88-0.02,3.75-0.07,5.61-0.37c0.48-0.08,0.95-0.2,1.42-0.3
		c0.67-0.13,1.34-0.15,1.98,0.15c0.57,0.27,1.12,0.02,1.65-0.1c1.79-0.42,3.6-0.65,5.4-0.99c1.41-0.27,2.8-0.62,4.24-0.78
		c0.54-0.06,1.1-0.03,1.64-0.13c0.79,0.08,1.55-0.09,2.31-0.23c0.1-0.03,0.2-0.05,0.31-0.04c0.5-0.07,0.93-0.35,1.42-0.43
		c0.68-0.16,1.4-0.02,2.07-0.29c0.16-0.06,0.34-0.08,0.51-0.07c1.48,0.06,2.93-0.21,4.38-0.44c1.45-0.24,2.92-0.3,4.36-0.65
		c0.35-0.09,0.72-0.07,1.08-0.02c0.5,0.07,0.89-0.08,1.21-0.45c0.27-0.21,0.61-0.16,0.89-0.16c0.83-0.02,1.63-0.17,2.42-0.37
		c0.08-0.02,0.15-0.01,0.23,0.01c0.44,0.22,0.89,0.19,1.37,0.11c1.49-0.24,3-0.44,4.51-0.49c0.57-0.02,1.14-0.16,1.72-0.21
		c1.1-0.1,2.2-0.24,3.3-0.4c1.28,0.2,2.55,0.13,3.79-0.26c0.4-0.13,0.78-0.32,1.2-0.39c0.88,0.19,1.73-0.14,2.59-0.14
		c1.02,0,2.03-0.17,3.04-0.08c0.69,0.06,1.32-0.21,2-0.2c0.45,0.01,0.91,0.01,1.36,0.08c0.8,0.12,1.59,0,2.38-0.12
		c1.13-0.18,2.26-0.26,3.39-0.4c1.11-0.13,2.23-0.22,3.36-0.22c1.44-0.01,2.88,0.05,4.31,0.1c0.81,0.03,1.62-0.17,2.43-0.02
		c0.34,0.06,0.42-0.27,0.58-0.47c0.09-0.08,0.2-0.1,0.32-0.09c0.52,0.31,1.08,0.2,1.64,0.21c1.69,0.04,3.32-0.25,4.95-0.63
		c0.59-0.14,1.23-0.1,1.82-0.01c1.02,0.16,2.05,0.24,3.07,0.41c0.71,0.12,1.44,0,2.16,0.11c0.11,0.02,0.23-0.02,0.31-0.08
		c0.5-0.39,1.05-0.26,1.57-0.13c0.5,0.13,0.99,0.15,1.49,0.14c0.86-0.02,1.72,0.09,2.57-0.14c0.07-0.02,0.16-0.03,0.23-0.01
		c1.33,0.23,2.68,0.12,4.02,0.3c0.16,0.02,0.31,0.03,0.47,0.04c0.65,0.03,1.28-0.02,1.93,0.24c0.54,0.22,1.2,0.22,1.8,0.03
		c0.14-0.04,0.28-0.06,0.42-0.04c0.48,0.09,0.93,0.04,1.38-0.13c0.12-0.04,0.25-0.07,0.37-0.05c1.07,0.24,2.17,0.19,3.26,0.38
		c1.02,0.17,2.06,0.38,3.12,0.33c0.4-0.02,0.78,0.03,1.14,0.22c0.24,0.13,0.5,0.17,0.77,0.06c0.21-0.08,0.43-0.09,0.65-0.05
		c1.44,0.24,2.9,0.23,4.35,0.29c0.69,0.03,1.39-0.04,2.02,0.26c0.48,0.23,0.95,0.41,1.46,0.45c0.79,0.07,1.58,0.21,2.37,0.29
		c0.99,0.1,1.99,0.14,2.98,0.31c0.63,0.11,1.28,0.14,1.91,0.17c0.94,0.06,1.87,0.2,2.8,0.25c0.31,0.02,0.63-0.02,0.87,0.26
		c0.1,0.11,0.2,0.02,0.29-0.04c0.23-0.14,0.46-0.01,0.69-0.01c0.35,0.08,0.69,0.18,1.05,0.04c0.1-0.04,0.22-0.01,0.32,0.03
		c1.04,0.36,2.09,0.58,3.19,0.38c0.6,0.15,1.21,0.15,1.82,0.13c1,0.21,2,0.36,3.02,0.39c1.88,0.06,3.74,0.33,5.6,0.54
		c1.57,0.18,3.14,0.31,4.71,0.48c1.65,0.17,3.3,0.32,4.95,0.47c1.53,0.14,3.05,0.31,4.58,0.48c1.43,0.16,2.85,0.44,4.29,0.44
		c0.84,0,1.11-0.23,1.28-1.05c0.29-1.39,0.95-2.57,1.94-3.62c1.4-1.48,3.06-2.52,4.89-3.34c0.48-0.22,0.49-0.22,0.27-0.72
		c0.03-0.12,0.11-0.19,0.21-0.23c0.07-0.03,0.15-0.05,0.23-0.05c1.75,0.16,3.36-0.48,5.01-0.85c1.88-0.42,3.76-0.8,5.68-0.94
		c1.29-0.09,2.6-0.09,3.88,0.21c0.62,0.15,1.23,0.12,1.83-0.16c0.42-0.2,0.89-0.27,1.32-0.48
		C481.11,15.88,481.32,15.88,481.52,15.99z"/>
	<path class="st1" d="M119.84,11.96c-0.04,0.09-0.15,0.12-0.19,0.08c-0.47-0.38-1.22-0.19-1.58-0.59c-0.5-0.55-1.2-0.66-1.76-1.06
		c-0.25-0.18-0.57-0.22-0.85-0.29c-0.27-0.07-0.6,0.14-0.91,0.19c-0.19,0.03-0.44,0.25-0.56-0.12c-0.05-0.16-0.14-0.05-0.21-0.02
		c-1,0.34-1.91,0.88-2.3,1.87c-0.42,1.08-0.94,2.14-1.05,3.33c-0.07,0.76-0.4,1.46-0.42,2.25c-0.01,0.29,0.01,0.61-0.05,0.91
		c-0.18,0.84,0,1.71-0.22,2.52c-0.11,0.4,0.15,0.85-0.23,1.21c-0.11,0.11,0.07,0.39,0.06,0.57c-0.05,0.83,0.22,1.69-0.19,2.5
		c0.32,0.62-0.41,0.27-0.51,0.52c-0.02,0.06-0.28,0.09-0.45-0.17c-0.17-0.27-0.59-0.39-0.77-0.73c-0.31-0.57-0.81-0.97-1.32-1.31
		c-0.59-0.4-1.26-0.66-2.01-0.79c-0.79-0.13-1.49,0.25-2.25,0.17c-0.03,0-0.07-0.01-0.08,0c-0.17,0.48-0.61,0.37-0.96,0.47
		c-0.72,0.19-1.01,0.86-1.43,1.36c-0.5,0.6-1.1,1.13-1.49,1.8c-0.28,0.47-0.64,0.87-0.97,1.26c-0.31,0.36-0.59,0.81-1.08,1.03
		c-0.55,0.24-0.95,0.09-1.33-0.53c-0.34-0.56-0.69-1.11-1.06-1.64c-0.1-0.14-0.21-0.35-0.47-0.23c-0.11,0.05-0.2-0.06-0.15-0.15
		c0.26-0.44-0.14-0.54-0.37-0.67c-0.12-0.07-0.22-0.07-0.2-0.23c0.02-0.11-0.05-0.19-0.12-0.24c-0.72-0.48-1.07-1.35-1.86-1.78
		c-0.72-0.39-1.48-0.66-2.25-0.47c-0.56,0.14-0.95,0.64-1.13,1.24c-0.16,0.54-0.22,1.09-0.31,1.64c-0.11,0.65-0.21,1.32-0.38,1.96
		c-0.11,0.41-0.62,0.76-1.02,0.77c-0.33,0.01-0.41-0.18-0.57-0.44c-0.17-0.27-0.15-0.65-0.58-0.87c-0.36-0.18-0.65-0.65-0.98-0.97
		c-0.6-0.57-1.27-1-2.08-1.2c-0.07-0.02-0.18,0.01-0.23-0.03c-0.56-0.48-1.28-0.51-1.93-0.74c-0.82-0.3-1.56,0-2.33,0.11
		c-0.2,0.03-0.41,0-0.64,0c0.18,0.33-0.01,0.45-0.26,0.48c-0.59,0.06-0.71,0.58-0.94,0.96c-0.15,0.26-0.26,0.58-0.24,0.92
		c0.07,1.15-0.89,1.6-1.82,1.35c-1.34-0.37-2.38-0.01-3.2,1.17c-0.16,0.23-0.45,0.36-0.47,0.72c-0.01,0.19-0.26-0.06-0.42,0.07
		c-0.69,0.55-1.55,0.7-2.39,0.72c-1.71,0.04-3.42,0.05-5.12,0c-1.19-0.04-2.38-0.08-3.58-0.08c-0.13,0-0.29,0.06-0.31-0.17
		c-0.01-0.1-0.12-0.11-0.18-0.08c-0.73,0.34-1.5,0.19-2.23,0.12c-1.38-0.13-2.74-0.02-4.11-0.06c-1.14-0.04-2.29,0-3.43-0.01
		c-0.67-0.01-1.22-0.29-1.59-0.85c-0.76-1.14-1.79-1.97-2.85-2.8c-0.69-0.54-1.44-0.97-2.18-1.44c-0.14-0.09-0.27-0.22-0.37-0.36
		c-0.17-0.24-0.37-0.31-0.64-0.22c-0.32,0.1-0.53,0-0.75-0.28c-0.26-0.34-0.73-0.3-1.12-0.37c-0.6-0.12-1.22-0.01-1.82-0.03
		c-0.65-0.02-1.44-0.02-2.06,0.42c-0.48,0.34-1.03,0.61-1.33,1.16c-0.3,0.54-0.49,1.13-0.62,1.74c-0.07,0.31-0.12,0.61-0.08,0.92
		c0.05,0.41-0.14,0.78-0.12,1.2c0.01,0.35-0.35,0.42-0.65,0.37c-0.4-0.07-0.73-0.41-1.19-0.28c-0.18,0.05-0.08-0.22-0.26-0.31
		c-0.84-0.44-1.64-0.96-2.57-1.23c-1.61-0.48-3.24,0.29-3.88,1.8c-0.29,0.69-0.81,1.14-1.63,1.29c-0.6,0.1-1.17-0.03-1.75-0.04
		c-1.06-0.02-2.12,0.05-3.17,0.13c-1.47,0.11-2.93,0.27-4.4,0.26c-0.31,0-0.61-0.01-0.92-0.07c-0.32-0.06-0.67-0.09-0.98,0.18
		c-0.24,0.22-1.6,0.17-1.75-0.06c-0.1-0.15-0.21-0.32-0.28-0.51c-0.58-1.49-1.19-2.96-1.74-4.46c-0.23-0.65-0.25-1.35-0.32-2.04
		c-0.04-0.41-0.01-0.66,0.36-0.9c0.29-0.19,0.57-0.12,0.85-0.13c0.81-0.04,1.63-0.06,2.44,0c0.84,0.06,1.46-0.37,2.08-0.8
		c0.34-0.23,0.7-0.5,0.92-0.84c0.38-0.57,0.96-0.88,1.47-1.28c0.48-0.38,0.56-0.48,0.29-1.05c-0.22-0.47-0.02-0.98-0.21-1.45
		c-0.16-0.38-0.1-0.81-0.29-1.19c-0.37-0.75-0.61-1.54-0.78-2.36c-0.11-0.55-0.42-1.05-0.56-1.61c-0.24-0.94-0.14-1.88-0.16-2.82
		c0-0.38,0.41-0.59,0.49-0.96c0-0.02,0.08-0.04,0.13-0.03c2.17,0.12,4.09-0.63,5.96-1.62c0.59-0.31,1.14-0.74,1.8-0.93
		c0.28-0.08,0.41-0.41,0.66-0.58c0.07-0.05,0.03-0.39-0.27-0.45c-0.44-0.1-0.88-0.23-1.3-0.37C19.67,5.1,19.41,4.73,19.6,4.4
		c0.13-0.24,0.27-0.51,0.57-0.64c0.28-0.12,0.48-0.36,0.66-0.61c0.25-0.34,0.35-0.65,0.08-1c-0.26-0.34-0.76-0.45-1.17-0.26
		c-0.71,0.32-1.58,0.32-2.17,0.87C17,3.29,16.15,3.4,15.7,4.08c-0.53-0.07-0.63,0.79-1.23,0.57c-0.03,0.36-0.51,0.04-0.56,0.37
		c-0.01,0.05-0.12,0.11-0.18,0.11c-0.57-0.03-0.93,0.66-1.55,0.44c-0.12,0.41-0.64,0.06-0.8,0.43c-0.01,0.03-0.26,0.17-0.47,0.08
		c-0.09-0.04-0.33-0.06-0.37,0.18c-0.01,0.06-0.02,0.14-0.1,0.13c-0.4-0.07-0.63,0.25-0.94,0.37C8.96,6.98,8.39,7.44,7.81,6.97
		C7.55,6.76,7.32,6.8,7.06,6.78c-0.32-0.03-0.33,0.09-0.42,0.4C6.39,8.09,6.32,9.02,6.43,9.92c0.07,0.56,0.15,1.12,0.16,1.69
		c0.15,0.03,0.23-0.09,0.25-0.17c0.05-0.23,0.12-0.33,0.36-0.18c0.21,0.13,0.4-0.1,0.63-0.08c0.18,0.02,0.27,0.01,0.26,0.25
		c0,0.26,0.27,0.41,0.47,0.48c0.19,0.07,0.28,0.21,0.26,0.31c-0.07,0.33,0.04,0.7-0.03,0.97c-0.08,0.34-0.33,0.73-0.66,0.97
		c-0.06,0.04-0.15,0.04-0.22-0.02c-0.24-0.21-0.63-0.05-0.85-0.33c-0.03-0.04-0.19-0.04-0.22,0c-0.18,0.23-0.52,0.24-0.68,0.22
		c-0.36-0.03-0.59,0.24-0.93,0.24c-0.43-0.01-0.65-0.27-0.79-0.56c-0.1-0.22-0.19-0.28-0.4-0.28c-0.81,0.02-1.57-0.17-2.26-0.61
		c-0.04-0.02-0.09-0.06-0.12-0.05c-0.57,0.19-1.1-0.15-1.66-0.1C0.01,8.61,0.01,4.52,0,0.43C0,0.08,0.08,0,0.43,0
		C23.9,0.01,47.36,0.01,70.82,0.01c34.14,0,68.28,0,102.41,0c0.11,0.39,0,0.8,0.05,1.11c0.04-0.31-0.06-0.71,0.05-1.11
		c5.05,0,10.09,0,15.14,0c0.11,0.36,0,0.73,0.05,1.02c0.03-0.29-0.06-0.66,0.05-1.02c97.49,0,194.99,0,292.48-0.01
		c0.4,0,0.48,0.09,0.48,0.48c-0.02,5.17-0.01,10.34-0.01,15.51c-0.58,0-1.01,0.44-1.6,0.5c-0.41,0.04-0.77,0.35-1.24,0.38
		c-0.29,0.02-0.59-0.01-0.84-0.07c-0.8-0.2-1.61-0.27-2.42-0.25c-0.83,0.01-1.66,0.05-2.49,0.15c-1.11,0.13-2.21,0.28-3.29,0.52
		c-1.49,0.32-2.97,0.66-4.44,1.07c-0.68,0.19-1.46,0.04-2.19,0.05c-0.09-0.01-0.19-0.05-0.2,0.1c0.08,0.17,0.49,0,0.38,0.37
		c-0.08,0.28-0.21,0.4-0.53,0.5c-0.58,0.18-1.11,0.52-1.66,0.8c-0.91,0.47-1.7,1.12-2.5,1.75c-0.09,0.07-0.16,0.15-0.23,0.23
		c-0.32,0.39-0.77,0.69-1.03,1.08c-0.26,0.39-0.53,0.81-0.77,1.21c-0.33,0.54-0.41,1.13-0.59,1.68c-0.13,0.39-0.14,0.79-0.49,1.08
		c-0.17,0.14-0.35,0.22-0.58,0.23c-1.26,0.03-2.48-0.22-3.72-0.35c-0.64-0.07-1.29-0.12-1.92-0.21c-1.09-0.17-2.2-0.18-3.3-0.35
		c-0.56-0.08-1.14-0.08-1.71-0.13c-1.21-0.1-2.42-0.24-3.62-0.36c-0.67-0.07-1.35-0.13-2.02-0.19c-1.33-0.12-2.65-0.26-3.98-0.44
		c-0.7-0.1-1.41-0.14-2.11-0.21c-0.45-0.04-0.91-0.2-1.32-0.18c-0.34,0.01-0.67,0-1.01-0.01c-0.95-0.02-1.89-0.13-2.81-0.39
		c-0.2-0.1-0.43-0.08-0.62-0.19c-0.28-0.22-0.58-0.35-0.9-0.08c-0.11,0.09-0.23,0.12-0.37,0.1c-0.64,0.21-1.27,0.2-1.92,0.01
		c-0.46-0.13-0.95-0.17-1.39-0.39c-0.05-0.03-0.15-0.03-0.18,0c-0.36,0.37-0.68,0.06-1.02-0.03c-0.18-0.04-0.35-0.12-0.53-0.16
		c-0.06-0.01-0.12-0.03-0.18-0.05c0.02,0.05,0.12,0.08,0.06,0.16c0,0.14,0,0.3-0.22,0.26c-0.11-0.02-0.28,0.06-0.27-0.15
		c0.01-0.21-0.13-0.21-0.28-0.21c-1.71-0.05-3.42-0.28-5.12-0.42c-1.25-0.1-2.49-0.25-3.74-0.38c-0.84-0.09-1.71-0.14-2.53-0.37
		c-0.45-0.13-0.87-0.41-1.34-0.56c-0.51-0.16-0.98,0.05-1.46,0.02c-0.92-0.06-1.84-0.22-2.78-0.2c-0.46,0.01-0.92,0.09-1.36-0.16
		c-0.14-0.08-0.43-0.07-0.54,0.03c-0.32,0.29-0.67,0.17-0.9,0.01c-0.37-0.27-0.75-0.27-1.15-0.24c-0.44,0.03-0.95,0.08-1.3-0.05
		c-0.46-0.17-0.93-0.19-1.35-0.22c-0.98-0.07-1.94-0.45-2.93-0.29c-0.39,0.06-0.68-0.34-1.11-0.12c-0.45,0.23-0.96,0.3-1.47,0.12
		c-0.09-0.03-0.23-0.02-0.32,0.02c-0.47,0.27-0.95,0.16-1.42,0.05c-0.24-0.06-0.52,0.27-0.72-0.08c-0.18-0.31-0.48-0.2-0.73-0.19
		c-0.83,0.06-1.66-0.03-2.46-0.13c-0.64-0.08-1.27-0.01-1.9-0.04c-0.19-0.01-0.3-0.14-0.5-0.13c-1.34,0.02-2.67,0.2-4.01,0.12
		c-0.55-0.03-1.08-0.18-1.6-0.32c-0.18-0.05-0.24,0.01-0.35,0.09c-0.33,0.25-0.64,0.39-1.1,0.25c-0.34-0.11-0.74-0.02-1.12-0.03
		c-0.69-0.02-1.36-0.09-2.04-0.3c-0.35-0.1-0.81,0.05-1.2-0.08c-0.71-0.24-1.47,0.07-2.18-0.18c-0.39,0.34-0.9,0.25-1.35,0.36
		c-0.79,0.18-1.58,0.48-2.39,0.38c-0.76-0.1-1.49,0.03-2.23,0.1c-0.31,0.03-0.53-0.18-0.76-0.37c-0.1-0.05-0.2-0.13-0.29,0.01
		c0,0.55-0.26,0.78-0.82,0.65c-0.43-0.1-0.84-0.04-1.27-0.01c-0.8,0.04-1.61-0.01-2.42-0.04c-1.21-0.04-2.43-0.14-3.64,0.06
		c-0.02,0-0.03,0.01-0.05,0c-0.7-0.24-1.37,0.17-2.06,0.1c-0.63-0.07-1.23,0.17-1.85,0.23c-0.1,0.01-0.21,0.05-0.32,0.04
		c-0.96-0.04-1.9,0.2-2.85,0.3c-0.46,0.05-0.93,0.03-1.36-0.04c-0.59-0.1-1.23-0.19-1.75-0.03c-0.88,0.26-1.74,0.05-2.59,0.16
		c-0.65,0.09-1.28,0.09-1.93,0.03c-0.25-0.02-0.62,0.08-0.93,0.16c-0.56,0.16-1.1,0.13-1.64-0.02c-0.09-0.06-0.19-0.03-0.28-0.04
		c-0.3-0.04-0.54,0.13-0.8,0.21c-0.84,0.27-1.69,0.39-2.57,0.35c-0.27-0.01-0.53,0.02-0.79,0.06c-0.19,0.03-0.39,0.02-0.57,0.08
		c-1.37,0.25-2.78,0.27-4.13,0.52c-0.86,0.16-1.77-0.1-2.58,0.32c-0.16,0.08-0.3-0.04-0.47-0.03c-0.95,0.07-1.88,0.25-2.81,0.41
		c-0.33,0.06-0.68,0.03-0.92-0.27c-0.11-0.14-0.24-0.1-0.38-0.06c-0.88,0.26-1.79,0.33-2.71,0.37c-0.16,0.01-0.26,0.07-0.37,0.16
		c-0.07,0.32-0.58,0.72-0.91,0.65c-0.87-0.21-1.69-0.03-2.53,0.19c-0.7,0.18-1.42,0.18-2.13,0.27c-0.73,0.09-1.45,0.19-2.18,0.32
		c-1.11,0.19-2.23,0.31-3.36,0.27c-0.23-0.01-0.45,0.03-0.67,0.13c-0.29,0.13-0.59,0.25-0.92,0.07c-0.09-0.05-0.27-0.07-0.39,0.05
		c-0.21,0.23-0.44,0.11-0.66,0.04c-0.51-0.06-0.89,0.3-1.33,0.45c-0.09,0-0.18,0-0.27,0c-0.54,0.12-1.1,0.1-1.65,0.14
		c-0.25,0.02-0.49,0.05-0.72,0.14c-0.86,0.15-1.75,0.11-2.61,0.28c-0.76,0.15-1.53,0.29-2.29,0.44c-0.11,0.02-0.31-0.01-0.28,0.22
		c0.01,0.07-0.09,0.12-0.13,0.09c-0.44-0.43-0.91-0.03-1.3,0.04c-1.55,0.28-3.13,0.44-4.66,0.88c-0.35,0.1-0.75,0.12-1.12,0.21
		c-0.1,0.03-0.24,0.04-0.32-0.01c-1.06-0.68-2.13-0.28-3.2-0.07c-0.86,0.17-1.72,0.31-2.59,0.35c-1.73,0.08-3.46,0.09-5.19,0.12
		c-0.2,0.06-0.39,0.04-0.59-0.03c-0.41-0.26-0.89-0.14-1.33-0.2c-1.15-0.15-2.16-0.6-3.15-1.15c-0.14-0.08-0.26-0.18-0.42-0.21
		c-0.09,0-0.17-0.03-0.26-0.04c-0.75,0.32-1.57,0.37-2.36,0.47c-0.5,0.06-1.02-0.06-1.48-0.24c-0.4-0.16-0.79-0.23-1.21-0.22
		c-1.05,0.01-2.08-0.16-3.09-0.4c-0.08-0.02-0.17-0.13-0.22,0.02c-0.04,0.13-0.14,0.13-0.22,0.09c-0.11-0.05-0.09-0.17-0.03-0.24
		c0.1-0.12,0.06-0.21-0.05-0.27c-0.11-0.05-0.15,0.08-0.21,0.13c-0.6,0.52-1.77,0.63-2.5,0.26c-0.32-0.16-0.69-0.21-1.05-0.26
		c-2.53-0.34-5.08-0.05-7.61-0.21c-1.19-0.07-2.38-0.14-3.58-0.16c-0.09,0-0.18,0.02-0.26-0.05c-0.21-0.18-0.4-0.41-0.71-0.08
		c-0.1,0.11-0.37,0.07-0.57-0.05c-0.45-0.27-0.9-0.11-1.31,0.08c-1.16,0.52-1.9-0.01-2.48-0.89c-0.03-0.05-0.02-0.12-0.09-0.14
		c-0.1-0.14-0.21-0.28-0.39-0.31c-0.4-0.06-0.72-0.28-1.07-0.44c-0.24-0.31-0.56-0.51-0.92-0.66c-0.06-0.02-0.12-0.06-0.16-0.11
		c-0.31-0.45-0.69-0.82-1.16-1.12c-0.13-0.08-0.23-0.19-0.35-0.28c-0.75-0.42-1.55-0.73-2.35-1.04c-0.79-0.3-1.6-0.54-2.41-0.77
		c-0.82-0.23-1.66-0.36-2.49-0.55c-0.3-0.07-0.6,0.03-0.84-0.02c-0.38-0.08-0.82-0.11-1.13-0.29c-0.3-0.17-0.55-0.13-0.82-0.14
		c-0.55-0.01-1.12-0.11-1.6,0.34c-0.1,0.09-0.44,0.06-0.63,0c-0.38-0.12-0.66,0.35-1.04,0.1c-0.03-0.02-0.27,0.14-0.31,0.25
		c-0.24,0.7-0.52,1.37-0.8,2.05c-0.11,0.28,0.07,0.57,0.18,0.83c0.07,0.14,0.09,0.29,0.13,0.43c0.23,0.68,0.45,1.36,0.87,1.99
		c0.22,0.33,0.39,0.77,0.51,1.19c0.06,0.2-0.05,0.34-0.18,0.38c-0.34,0.1-0.75,0.18-1.03-0.03c-0.25-0.19-0.54-0.28-0.79-0.47
		c-0.13-0.11-0.34-0.19-0.5-0.18c-0.89,0.04-1.67-0.46-2.54-0.52c-0.28-0.02-0.54-0.02-0.82,0c-0.65,0.07-1.3,0.1-1.95-0.02
		c-0.35-0.06-0.68-0.16-1,0.15c-0.45,0.44-1.04,0.33-1.58,0.25c-0.26-0.04-0.39-0.05-0.41,0.23c-0.02,0.38-0.42,0.28-0.61,0.39
		c-0.4,0.24-0.58,0.73-1.01,0.86c-0.54,0.16-0.46,0.7-0.74,1.02c-0.35,0.4-0.76,0.34-1.04-0.11c-0.12-0.19-0.22-0.5-0.58-0.38
		c-0.11,0.04-0.19-0.03-0.16-0.15c0.11-0.46-0.17-0.44-0.47-0.36c-0.11,0.03-0.22,0.1-0.28-0.03c-0.05-0.11,0-0.21,0.15-0.21
		c0.1,0,0.16-0.1,0.08-0.14c-0.45-0.24-0.59-0.8-1.09-1.03c-0.2-0.09-0.64-0.11-0.64-0.41c0-0.51-0.39-0.68-0.65-0.97
		c-0.53-0.59-1.29-0.83-1.96-1.21c-0.29-0.16-0.47-0.44-0.78-0.58c-0.75-0.35-1.51-0.66-2.28-0.96c-0.24-0.09-0.49-0.25-0.73-0.38
		c-0.29-0.16-0.61-0.2-0.9-0.34c-0.52-0.24-1.06-0.49-1.62-0.57c-0.87-0.14-1.71-0.48-2.62-0.39c-0.15,0.02-0.39,0.15-0.46-0.21
		c-0.03-0.15-0.34-0.07-0.52-0.06c-1.58,0.15-3.17,0.15-4.75-0.02c-0.28-0.03-0.57-0.2-0.78-0.46c-0.1,0.33-0.37,0.47-0.57,0.68
		c-0.66,0.7-1.09,1.53-1.07,2.54c0.01,0.26,0.06,0.52-0.07,0.78c-0.17,0.33-0.46,0.49-0.76,0.29c-0.7-0.48-1.37-1-2.04-1.54
		c-0.63-0.5-1.2-1.07-1.94-1.46c-0.73-0.38-1.46-0.74-2.27-0.9c-0.7-0.14-1.33,0.14-1.92,0.44c-0.32,0.17-0.72,0.11-0.99,0.45
		c-0.5,0.64-1.31,0.94-1.85,1.55c-0.02,0.02-0.08,0.03-0.07,0.04c0.13,0.51-0.44,0.51-0.58,0.81c-0.17,0.35-0.31,0.72-0.46,1.08
		c-0.22,0.52-0.66,0.61-1.15,0.33c-1.09-0.62-2.06-1.4-3.12-2.07c-1.04-0.66-2.2-1.05-3.32-1.54c-0.57-0.25-1.27,0.03-1.73-0.52
		c-0.01-0.01-0.1,0.06-0.16,0.06c-0.28,0.03-0.56,0.09-0.81-0.08c-0.12-0.08-0.18-0.31-0.33-0.02c-0.03,0.05-0.28,0.1-0.3-0.07
		c-0.04-0.34-0.27-0.28-0.49-0.28c-0.6,0-1.19,0.01-1.79,0c-0.43-0.01-0.86,0-1.3-0.06c-0.29-0.04-0.69-0.23-0.97,0.22
		c-0.1,0.16-0.56,0.08-0.87,0.19c-0.53,0.19-1,0.38-1.46,0.74c-0.44,0.35-0.72,0.72-0.95,1.19c-0.07,0.15-0.08,0.29-0.1,0.44
		c-0.05,0.39,0.12,0.8-0.17,1.18c-0.1,0.13-0.04,0.41,0.03,0.63c0.14,0.44,0.02,0.89-0.12,1.31c-0.11,0.33-0.61,0.46-0.98,0.29
		c-0.51-0.24-1-0.54-1.5-0.78c-0.73-0.33-1.46-0.67-2.26-0.87c-0.71-0.18-1.48-0.27-2.11-0.59c-0.59-0.3-1.19-0.07-1.75-0.31
		c-0.24-0.1-0.56-0.07-0.85-0.17c-0.15-0.05-0.39-0.2-0.46,0.15c-0.03,0.15-0.2,0.12-0.25,0.03c-0.32-0.57-0.95-0.43-1.42-0.64
		c-0.33-0.15-0.75-0.2-1.04,0.21c-0.07,0.1-0.29-0.09-0.48-0.08c-0.52,0.02-1.04-0.02-1.55,0.02c-0.3,0.02-0.62,0.24-0.89,0.19
		c-0.49-0.09-0.78,0.38-1.23,0.31c-0.03,0-0.05,0.01-0.08,0.01c-0.31,0.06-0.11,0.44-0.27,0.49c-0.18,0.05-0.43-0.1-0.39,0.26
		c0.01,0.11-0.07,0.17-0.15,0.22c-0.21,0.14-0.21,0.14-0.08,0.33c0.03,0.04,0.04,0.12,0.03,0.18c-0.03,0.1-0.15,0.1-0.19,0.06
		c-0.29-0.26-0.26,0.07-0.25,0.16c0.08,0.5-0.12,0.96-0.25,1.39c-0.19,0.62-0.3,1.21-0.2,1.84c0.05,0.29-0.24,0.81-0.53,0.84
		c-0.19,0.02-0.23,0.29-0.56,0.14c-0.38-0.17-0.53-0.46-0.78-0.69c-0.25-0.23-0.43-0.49-0.54-0.84c-0.09-0.3-0.19-0.68-0.6-0.78
		c-0.03-0.01-0.03-0.08-0.05-0.12c-0.23-0.43-0.45-0.87-0.68-1.29c-0.24-0.44-0.37-1.02-0.67-1.42c-0.29-0.38-0.16-0.93-0.6-1.21
		c-0.05-0.03-0.08-0.14-0.08-0.21c-0.03-0.54-0.32-0.94-0.59-1.39c-0.25-0.43-0.59-0.78-0.87-1.17c-0.29-0.41-0.65-0.77-0.75-1.29
		c-0.02-0.09-0.16-0.1-0.21-0.15c-0.18-0.17-0.58-0.17-0.46-0.58c0.01-0.03-0.08-0.13-0.1-0.13c-0.43,0.17-0.45-0.23-0.6-0.44
		c-0.05-0.07-0.08-0.19-0.15-0.22c-0.51-0.2-0.71-0.81-1.24-0.98c-0.06-0.02-0.11-0.01-0.14-0.09c-0.14-0.48-0.17-0.45-0.61-0.86
		c-0.61-0.56-1.39-0.91-1.9-1.58c-0.14-0.18-0.47-0.08-0.51-0.38c-0.15-0.22-0.33-0.41-0.55-0.57l0,0c-0.18-0.1-0.3-0.27-0.47-0.38
		c-0.03-0.03-0.07-0.06-0.1-0.09c0,0,0.01,0.01,0.01,0.01c-0.36-0.39-0.79-0.66-1.23-0.95c-0.14-0.13-0.33-0.16-0.47-0.29l0,0
		C120.2,12.15,120.06,11.96,119.84,11.96z"/>
	<path class="st2" d="M0.01,15.33c0.44-0.09,0.91-0.13,1.32-0.3c0.68-0.28,1.38-0.29,2.09-0.26c0.73,0.03,1.5,0.05,2.14-0.24
		c0.57-0.25,1.1-0.22,1.66-0.23c0.6-0.01,0.96,0.49,0.98,1.08c0.02,0.57,0.19,1.14,0.29,1.71c0.07,0.39,0.13,0.78,0.17,1.18
		c0.05,0.57-0.22,1.02-0.9,1.26c-1.11,0.4-2.22,0.77-3.34,1.15c-0.09,0.03-0.18,0.01-0.25,0.1c-0.48,0.6-1.19,0.83-1.84,1.14
		c-0.33,0.16-0.63,0-0.95,0.05C1.25,22,1.12,21.72,1.15,21.54C1.2,21.27,1,21,1.3,20.73c0.21-0.18-0.25-0.92-0.62-0.96
		c-0.25-0.02-0.46-0.1-0.68-0.21C0.01,18.16,0.01,16.75,0.01,15.33z"/>
	<ellipse class="st3" cx="173.29" cy="0.56" rx="0.07" ry="0.78"/>
	<ellipse class="st4" cx="188.52" cy="0.52" rx="0.07" ry="0.72"/>
	<path class="st2" d="M4.39,24.05c0.29-0.16,0.65-0.18,1.02-0.16c0.41,0.02,0.73,0.48,0.64,0.89c-0.09,0.39,0.07,0.75,0.15,1.12
		c0.03,0.14,0.06,0.28-0.07,0.38c-0.12,0.1-0.31,0.1-0.4,0.03c-0.41-0.33-0.94-0.42-1.35-0.73c-0.39-0.3-0.57-1.12-0.31-1.52
		C4.15,23.93,4.25,23.99,4.39,24.05z"/>
	<path class="st5" d="M274.91,29.33c0.16,0.17,0.37,0.06,0.56,0.12c-0.85,0.21-1.7,0.06-2.53-0.12c-1.18-0.25-2.29-0.68-3.21-1.5
		c0.03-0.11,0.12-0.07,0.19-0.08c0.5,0.23,0.94,0.55,1.44,0.78c1.02,0.46,2.09,0.71,3.2,0.73
		C274.68,29.25,274.81,29.25,274.91,29.33z"/>
	<path class="st6" d="M239.24,24.83c0.36,0.16,0.67,0.44,1.13,0.4c0.21-0.02,0.31,0.22,0.31,0.44c-1.64-0.57-3-1.53-4.05-2.92
		c0.18-0.02,0.24,0.16,0.37,0.21c0.47,0.3,0.81,0.74,1.21,1.12c0.04,0.03,0.07,0.07,0.11,0.1
		C238.66,24.35,238.98,24.55,239.24,24.83z"/>
	<path class="st7" d="M316.86,24.18c0.05-0.2,0.16-0.29,0.38-0.29c0.92,0,1.82-0.12,2.7-0.38c0.2-0.06,0.38-0.09,0.37,0.21
		C319.18,24.02,318.02,24.11,316.86,24.18z"/>
	<path class="st8" d="M331.22,22.75c0.11-0.18,0.35-0.02,0.47-0.17c1.38,0.03,2.74-0.04,4.03-0.6c0.1-0.04,0.21-0.06,0.31,0
		c0.07,0.02,0.16,0,0.19,0.11c-1.27,0.47-2.56,0.84-3.94,0.76C331.93,22.83,331.58,22.79,331.22,22.75z"/>
	<path class="st9" d="M299.15,26.89c0.34-0.42,0.82-0.24,1.24-0.28c0.37-0.04,0.75,0,1.12,0C300.75,26.87,299.95,26.91,299.15,26.89
		z"/>
	<path class="st10" d="M425.37,24.37c0.1-0.06,0.2-0.11,0.3-0.17c0.35-0.13,0.69-0.07,1.02,0.05c0.18,0.11,0.42,0.11,0.57,0.28
		C426.63,24.55,425.98,24.62,425.37,24.37z"/>
	<path class="st11" d="M301.79,26.61c0.33-0.28,0.7-0.51,1.13-0.6c0.05-0.01,0.13,0.1,0.2,0.15
		C302.68,26.34,302.25,26.53,301.79,26.61z"/>
	<path class="st12" d="M420.22,23.91c-0.07-0.15-0.26-0.06-0.38-0.21c0.4-0.03,0.73,0.04,1.03,0.26
		C420.65,23.94,420.43,23.93,420.22,23.91z"/>
	<path class="st2" d="M466.94,18.28c0.02,0.14-0.07,0.17-0.17,0.15c-0.11-0.02-0.27,0.08-0.29-0.13c-0.02-0.13,0.07-0.16,0.17-0.15
		C466.75,18.17,466.91,18.09,466.94,18.28z"/>
	<path class="st2" d="M376.38,21.16c0.1,0,0.18,0.01,0.18,0.14c0,0.17-0.12,0.14-0.22,0.14c-0.11,0.01-0.16-0.04-0.16-0.16
		C376.2,21.15,376.29,21.17,376.38,21.16z"/>
	<path class="st13" d="M122.64,13.92c0.26,0.12,0.49,0.26,0.55,0.57C122.94,14.37,122.8,14.14,122.64,13.92z"/>
	<path class="st2" d="M44.02,28.85c-0.01,0.08,0.03,0.19-0.11,0.21c-0.15,0.02-0.18-0.06-0.17-0.19c0-0.09,0-0.18,0.13-0.19
		C44,28.68,44.03,28.75,44.02,28.85z"/>
	<path class="st14" d="M119.84,11.96c0.28-0.1,0.39,0.14,0.55,0.27C120.16,12.22,120.01,12.07,119.84,11.96z"/>
	<path class="st15" d="M122.07,13.46c-0.01,0.11,0.08,0.26-0.12,0.27c-0.08,0.01-0.15-0.01-0.15-0.11
		C121.79,13.38,121.95,13.45,122.07,13.46C122.08,13.47,122.07,13.46,122.07,13.46z"/>
	<path class="st16" d="M263.33,28.14c0,0.08,0,0.15-0.11,0.16c-0.1,0.01-0.18-0.01-0.18-0.14c0-0.09,0.04-0.14,0.13-0.14
		C263.27,28.03,263.33,28.05,263.33,28.14z"/>
	<path class="st2" d="M7.72,30.42c0,0.09-0.04,0.13-0.13,0.14c-0.12,0.01-0.16-0.06-0.15-0.16c0.01-0.1,0.07-0.12,0.15-0.12
		C7.69,30.29,7.72,30.34,7.72,30.42z"/>
	<path class="st13" d="M122.17,13.54c0.23,0.04,0.34,0.22,0.47,0.38C122.41,13.9,122.29,13.73,122.17,13.54z"/>
	<path class="st17" d="M361.7,20.51c-0.1-0.04-0.11-0.12-0.03-0.16c0.16-0.09,0.24,0.04,0.32,0.16
		C361.9,20.5,361.8,20.5,361.7,20.51z"/>
	<path class="st14" d="M120.39,12.23c0.19,0.05,0.36,0.11,0.47,0.29C120.66,12.48,120.48,12.42,120.39,12.23z"/>
	<path class="st18" d="M462.8,18.44c-0.06-0.01-0.14,0.02-0.18-0.06c0.13,0.04,0.23-0.25,0.37-0.04
		C462.93,18.37,462.86,18.4,462.8,18.44z"/>
	<path class="st19" d="M274.91,29.33c-1.75,0.05-3.34-0.43-4.8-1.4c-0.07-0.05-0.13-0.13-0.2-0.19c0.16-0.16,0.25,0.01,0.35,0.08
		c1.3,0.84,2.72,1.3,4.27,1.34C274.68,29.16,274.87,29.1,274.91,29.33z"/>
	<path class="st20" d="M336.04,21.99c-0.82,0.25-1.63,0.56-2.49,0.63c-0.62,0.06-1.24,0.11-1.86-0.03c0.24-0.09,0.48-0.11,0.73-0.1
		c1.11,0.05,2.17-0.15,3.2-0.55C335.75,21.9,335.94,21.69,336.04,21.99z"/>
	<path class="st21" d="M426.69,24.26c-0.17,0.06-0.35-0.02-0.53,0.16c-0.19,0.19-0.23-0.33-0.49-0.21
		C425.96,23.87,426.29,23.89,426.69,24.26z"/>
	<path class="st22" d="M238.2,24.08c-0.5-0.27-0.83-0.72-1.21-1.12C237.54,23.19,237.9,23.6,238.2,24.08z"/>
	<path class="st22" d="M239.24,24.83c-0.32-0.2-0.66-0.37-0.93-0.64C238.73,24.25,239.05,24.45,239.24,24.83z"/>
	<path class="st23" d="M477.01,15.87c0.31-0.09,0.53-0.12,0.74-0.02c0.01,0,0,0.06-0.01,0.09C477.52,15.92,477.31,15.9,477.01,15.87
		z"/>
	<path class="st24" d="M255.84,8.7c0.08,0.19,0.08,0.39,0,0.58C255.84,9.09,255.84,8.89,255.84,8.7z"/>
	<path class="st25" d="M253.25,6.67c-0.13,0-0.27,0-0.43,0C252.96,6.54,253.1,6.6,253.25,6.67z"/>
</g>
</svg>
